<?xml version="1.0" encoding="UTF-8"?>
<svg id="Layer_2" data-name="Layer 2" xmlns="http://www.w3.org/2000/svg" viewBox="0 0 344 404">
  <g id="Layer_1-2" data-name="Layer 1">
    <g id="grid_-_dot_-_compound" data-name="grid - dot - compound">
      <rect width="344" height="404" style="fill: #fff; opacity: 0;"/>
      <path d="M340.35,27.64c.09.1.15.22.15.35,0,.07-.02.13-.04.2-.03.06-.06.11-.11.16-.05.04-.1.08-.16.11-.06.02-.13.03-.19.03-.14,0-.27-.05-.36-.14-.04-.05-.08-.1-.11-.16-.02-.07-.04-.13-.04-.2,0-.13.06-.26.15-.35.05-.04.1-.08.16-.11.13-.05.26-.05.39,0,.06.03.11.07.16.11ZM292,27.5c-.28,0-.5.22-.5.49s.22.51.5.51.5-.23.5-.51-.23-.49-.5-.49ZM52,27.5c-.28,0-.5.22-.5.49s.22.51.5.51.5-.23.5-.51-.23-.49-.5-.49ZM100,27.5c-.28,0-.5.22-.5.49s.22.51.5.51.5-.23.5-.51-.23-.49-.5-.49ZM124,27.5c-.28,0-.5.22-.5.49s.22.51.5.51.5-.23.5-.51-.23-.49-.5-.49ZM328,27.5c-.28,0-.5.22-.5.49s.22.51.5.51.5-.23.5-.51-.23-.49-.5-.49ZM88,27.5c-.28,0-.5.22-.5.49s.22.51.5.51.5-.23.5-.51-.23-.49-.5-.49ZM160,27.5c-.28,0-.5.22-.5.49s.22.51.5.51.5-.23.5-.51-.23-.49-.5-.49ZM316,27.5c-.28,0-.5.22-.5.49s.22.51.5.51.5-.23.5-.51-.23-.49-.5-.49ZM184,27.5c-.28,0-.5.22-.5.49s.22.51.5.51.5-.23.5-.51-.23-.49-.5-.49ZM208,27.5c-.28,0-.5.22-.5.49s.22.51.5.51.5-.23.5-.51-.23-.49-.5-.49ZM172,27.5c-.28,0-.5.22-.5.49s.22.51.5.51.5-.23.5-.51-.23-.49-.5-.49ZM148,27.5c-.28,0-.5.22-.5.49s.22.51.5.51.5-.23.5-.51-.23-.49-.5-.49ZM40,27.5c-.28,0-.5.22-.5.49s.22.51.5.51.5-.23.5-.51-.23-.49-.5-.49ZM268,27.5c-.28,0-.5.22-.5.49s.22.51.5.51.5-.23.5-.51-.23-.49-.5-.49ZM76,27.5c-.28,0-.5.22-.5.49s.22.51.5.51.5-.23.5-.51-.23-.49-.5-.49ZM64,27.5c-.28,0-.5.22-.5.49s.22.51.5.51.5-.23.5-.51-.23-.49-.5-.49ZM232,27.5c-.28,0-.5.22-.5.49s.22.51.5.51.5-.23.5-.51-.23-.49-.5-.49ZM304,27.5c-.28,0-.5.22-.5.49s.22.51.5.51.5-.23.5-.51-.23-.49-.5-.49ZM256,27.5c-.28,0-.5.22-.5.49s.22.51.5.51.5-.23.5-.51-.23-.49-.5-.49ZM280,27.5c-.28,0-.5.22-.5.49s.22.51.5.51.5-.23.5-.51-.23-.49-.5-.49ZM16,27.5c-.28,0-.5.22-.5.49s.22.51.5.51.5-.23.5-.51-.23-.49-.5-.49ZM136,27.5c-.28,0-.5.22-.5.49s.22.51.5.51.5-.23.5-.51-.23-.49-.5-.49ZM196,27.5c-.28,0-.5.22-.5.49s.22.51.5.51.5-.23.5-.51-.23-.49-.5-.49ZM28,27.5c-.28,0-.5.22-.5.49s.22.51.5.51.5-.23.5-.51-.23-.49-.5-.49ZM219.99,27.5c-.27,0-.49.22-.49.49s.22.51.49.51.51-.23.51-.51-.23-.49-.51-.49ZM112,27.5c-.28,0-.5.22-.5.49s.22.51.5.51.5-.23.5-.51-.23-.49-.5-.49ZM244,27.5c-.28,0-.5.22-.5.49s.22.51.5.51.5-.23.5-.51-.23-.49-.5-.49ZM4.35,27.64c-.19-.18-.52-.18-.71,0-.04.05-.08.1-.11.16-.02.07-.03.13-.03.2,0,.06,0,.13.03.19.03.06.07.11.11.16.1.09.23.15.36.15s.26-.06.35-.15c.05-.05.08-.1.11-.16.02-.06.04-.13.04-.19,0-.07-.02-.13-.04-.2-.03-.06-.06-.11-.11-.16ZM340.35,15.64s-.1-.08-.16-.11c-.13-.05-.26-.05-.39,0-.06.03-.11.07-.16.11-.04.05-.08.1-.11.16-.02.06-.04.13-.04.2,0,.13.06.25.15.35.05.04.1.08.16.11.07.02.13.04.2.04.06,0,.13-.02.19-.04.06-.03.11-.07.16-.11.09-.1.15-.23.15-.35,0-.07-.02-.13-.04-.2-.03-.06-.07-.11-.11-.16ZM232,15.5c-.28,0-.5.22-.5.49s.22.5.5.5.5-.22.5-.5-.23-.49-.5-.49ZM219.99,15.5c-.27,0-.49.22-.49.49s.22.5.49.5.51-.22.51-.5-.23-.49-.51-.49ZM268,15.5c-.28,0-.5.22-.5.49s.22.5.5.5.5-.22.5-.5-.23-.49-.5-.49ZM64,15.5c-.28,0-.5.22-.5.49s.22.5.5.5.5-.22.5-.5-.23-.49-.5-.49ZM76,15.5c-.28,0-.5.22-.5.49s.22.5.5.5.5-.22.5-.5-.23-.49-.5-.49ZM16,15.5c-.28,0-.5.22-.5.49s.22.5.5.5.5-.22.5-.5-.23-.49-.5-.49ZM196,15.5c-.28,0-.5.22-.5.49s.22.5.5.5.5-.22.5-.5-.23-.49-.5-.49ZM52,15.5c-.28,0-.5.22-.5.49s.22.5.5.5.5-.22.5-.5-.23-.49-.5-.49ZM172,15.5c-.28,0-.5.22-.5.49s.22.5.5.5.5-.22.5-.5-.23-.49-.5-.49ZM256,15.5c-.28,0-.5.22-.5.49s.22.5.5.5.5-.22.5-.5-.23-.49-.5-.49ZM304,15.5c-.28,0-.5.22-.5.49s.22.5.5.5.5-.22.5-.5-.23-.49-.5-.49ZM280,15.5c-.28,0-.5.22-.5.49s.22.5.5.5.5-.22.5-.5-.23-.49-.5-.49ZM208,15.5c-.28,0-.5.22-.5.49s.22.5.5.5.5-.22.5-.5-.23-.49-.5-.49ZM328,15.5c-.28,0-.5.22-.5.49s.22.5.5.5.5-.22.5-.5-.23-.49-.5-.49ZM244,15.5c-.28,0-.5.22-.5.49s.22.5.5.5.5-.22.5-.5-.23-.49-.5-.49ZM148,15.5c-.28,0-.5.22-.5.49s.22.5.5.5.5-.22.5-.5-.23-.49-.5-.49ZM292,15.5c-.28,0-.5.22-.5.49s.22.5.5.5.5-.22.5-.5-.23-.49-.5-.49ZM40,15.5c-.28,0-.5.22-.5.49s.22.5.5.5.5-.22.5-.5-.23-.49-.5-.49ZM184,15.5c-.28,0-.5.22-.5.49s.22.5.5.5.5-.22.5-.5-.23-.49-.5-.49ZM88,15.5c-.28,0-.5.22-.5.49s.22.5.5.5.5-.22.5-.5-.23-.49-.5-.49ZM28,15.5c-.28,0-.5.22-.5.49s.22.5.5.5.5-.22.5-.5-.23-.49-.5-.49ZM316,15.5c-.28,0-.5.22-.5.49s.22.5.5.5.5-.22.5-.5-.23-.49-.5-.49ZM112,15.5c-.28,0-.5.22-.5.49s.22.5.5.5.5-.22.5-.5-.23-.49-.5-.49ZM136,15.5c-.28,0-.5.22-.5.49s.22.5.5.5.5-.22.5-.5-.23-.49-.5-.49ZM124,15.5c-.28,0-.5.22-.5.49s.22.5.5.5.5-.22.5-.5-.23-.49-.5-.49ZM100,15.5c-.28,0-.5.22-.5.49s.22.5.5.5.5-.22.5-.5-.23-.49-.5-.49ZM160,15.5c-.28,0-.5.22-.5.49s.22.5.5.5.5-.22.5-.5-.23-.49-.5-.49ZM3.64,15.64c-.09.09-.14.22-.14.36,0,.06,0,.13.03.19.03.06.07.11.11.16.1.09.23.15.36.15s.26-.06.35-.15c.09-.09.15-.22.15-.35,0-.14-.06-.27-.15-.36-.19-.19-.52-.18-.71,0ZM339.64,4.35s.1.08.16.11c.07.02.13.04.2.04.06,0,.13-.02.19-.04.06-.03.11-.07.16-.11.04-.05.08-.1.11-.16.02-.06.04-.13.04-.19,0-.13-.06-.26-.15-.36-.05-.04-.1-.08-.16-.11-.19-.07-.41-.03-.55.11-.04.05-.08.1-.11.16-.02.07-.04.13-.04.2,0,.06.02.13.04.19.03.06.07.11.11.16ZM112,3.5c-.28,0-.5.22-.5.49s.22.5.5.5.5-.22.5-.5-.23-.49-.5-.49ZM219.99,3.5c-.27,0-.49.22-.49.49s.22.5.49.5.51-.22.51-.5-.23-.49-.51-.49ZM280,3.5c-.28,0-.5.22-.5.49s.22.5.5.5.5-.22.5-.5-.23-.49-.5-.49ZM16,3.5c-.28,0-.5.22-.5.49s.22.5.5.5.5-.22.5-.5-.23-.49-.5-.49ZM244,3.5c-.28,0-.5.22-.5.49s.22.5.5.5.5-.22.5-.5-.23-.49-.5-.49ZM124,3.5c-.28,0-.5.22-.5.49s.22.5.5.5.5-.22.5-.5-.23-.49-.5-.49ZM76,3.5c-.28,0-.5.22-.5.49s.22.5.5.5.5-.22.5-.5-.23-.49-.5-.49ZM28,3.5c-.28,0-.5.22-.5.49s.22.5.5.5.5-.22.5-.5-.23-.49-.5-.49ZM148,3.5c-.28,0-.5.22-.5.49s.22.5.5.5.5-.22.5-.5-.23-.49-.5-.49ZM64,3.5c-.28,0-.5.22-.5.49s.22.5.5.5.5-.22.5-.5-.23-.49-.5-.49ZM172,3.5c-.28,0-.5.22-.5.49s.22.5.5.5.5-.22.5-.5-.23-.49-.5-.49ZM232,3.5c-.28,0-.5.22-.5.49s.22.5.5.5.5-.22.5-.5-.23-.49-.5-.49ZM292,3.5c-.28,0-.5.22-.5.49s.22.5.5.5.5-.22.5-.5-.23-.49-.5-.49ZM304,3.5c-.28,0-.5.22-.5.49s.22.5.5.5.5-.22.5-.5-.23-.49-.5-.49ZM256,3.5c-.28,0-.5.22-.5.49s.22.5.5.5.5-.22.5-.5-.23-.49-.5-.49ZM160,3.5c-.28,0-.5.22-.5.49s.22.5.5.5.5-.22.5-.5-.23-.49-.5-.49ZM136,3.5c-.28,0-.5.22-.5.49s.22.5.5.5.5-.22.5-.5-.23-.49-.5-.49ZM184,3.5c-.28,0-.5.22-.5.49s.22.5.5.5.5-.22.5-.5-.23-.49-.5-.49ZM100,3.5c-.28,0-.5.22-.5.49s.22.5.5.5.5-.22.5-.5-.23-.49-.5-.49ZM196,3.5c-.28,0-.5.22-.5.49s.22.5.5.5.5-.22.5-.5-.23-.49-.5-.49ZM52,3.5c-.28,0-.5.22-.5.49s.22.5.5.5.5-.22.5-.5-.23-.49-.5-.49ZM40,3.5c-.28,0-.5.22-.5.49s.22.5.5.5.5-.22.5-.5-.23-.49-.5-.49ZM328,3.5c-.28,0-.5.22-.5.49s.22.5.5.5.5-.22.5-.5-.23-.49-.5-.49ZM316,3.5c-.28,0-.5.22-.5.49s.22.5.5.5.5-.22.5-.5-.23-.49-.5-.49ZM268,3.5c-.28,0-.5.22-.5.49s.22.5.5.5.5-.22.5-.5-.23-.49-.5-.49ZM208,3.5c-.28,0-.5.22-.5.49s.22.5.5.5.5-.22.5-.5-.23-.49-.5-.49ZM88,3.5c-.28,0-.5.22-.5.49s.22.5.5.5.5-.22.5-.5-.23-.49-.5-.49ZM3.64,3.64s-.08.1-.11.16c-.02.06-.03.13-.03.19,0,.13.05.26.14.36.09.09.22.14.36.14.13,0,.26-.05.35-.14.09-.1.15-.23.15-.36s-.06-.25-.15-.35c-.19-.19-.52-.18-.71,0ZM340.35,39.64s-.1-.08-.16-.11c-.19-.07-.41-.03-.55.11-.04.05-.08.1-.11.16-.02.07-.04.13-.04.2,0,.13.06.26.15.35.05.04.1.08.16.11.07.02.13.03.2.03.06,0,.13-.01.19-.03.06-.03.11-.07.16-.11.09-.1.15-.22.15-.35,0-.07-.02-.13-.04-.2-.03-.06-.06-.11-.11-.16ZM148,39.5c-.28,0-.5.22-.5.49s.22.51.5.51.5-.23.5-.51-.23-.49-.5-.49ZM232,39.5c-.28,0-.5.22-.5.49s.22.51.5.51.5-.23.5-.51-.23-.49-.5-.49ZM184,39.5c-.28,0-.5.22-.5.49s.22.51.5.51.5-.23.5-.51-.23-.49-.5-.49ZM88,39.5c-.28,0-.5.22-.5.49s.22.51.5.51.5-.23.5-.51-.23-.49-.5-.49ZM328,39.5c-.28,0-.5.22-.5.49s.22.51.5.51.5-.23.5-.51-.23-.49-.5-.49ZM292,39.5c-.28,0-.5.22-.5.49s.22.51.5.51.5-.23.5-.51-.23-.49-.5-.49ZM64,39.5c-.28,0-.5.22-.5.49s.22.51.5.51.5-.23.5-.51-.23-.49-.5-.49ZM124,39.5c-.28,0-.5.22-.5.49s.22.51.5.51.5-.23.5-.51-.23-.49-.5-.49ZM136,39.5c-.28,0-.5.22-.5.49s.22.51.5.51.5-.23.5-.51-.23-.49-.5-.49ZM28,39.5c-.28,0-.5.22-.5.49s.22.51.5.51.5-.23.5-.51-.23-.49-.5-.49ZM16,39.5c-.28,0-.5.22-.5.49s.22.51.5.51.5-.23.5-.51-.23-.49-.5-.49ZM196,39.5c-.28,0-.5.22-.5.49s.22.51.5.51.5-.23.5-.51-.23-.49-.5-.49ZM280,39.5c-.28,0-.5.22-.5.49s.22.51.5.51.5-.23.5-.51-.23-.49-.5-.49ZM256,39.5c-.28,0-.5.22-.5.49s.22.51.5.51.5-.23.5-.51-.23-.49-.5-.49ZM160,39.5c-.28,0-.5.22-.5.49s.22.51.5.51.5-.23.5-.51-.23-.49-.5-.49ZM52,39.5c-.28,0-.5.22-.5.49s.22.51.5.51.5-.23.5-.51-.23-.49-.5-.49ZM100,39.5c-.28,0-.5.22-.5.49s.22.51.5.51.5-.23.5-.51-.23-.49-.5-.49ZM76,39.5c-.28,0-.5.22-.5.49s.22.51.5.51.5-.23.5-.51-.23-.49-.5-.49ZM244,39.5c-.28,0-.5.22-.5.49s.22.51.5.51.5-.23.5-.51-.23-.49-.5-.49ZM208,39.5c-.28,0-.5.22-.5.49s.22.51.5.51.5-.23.5-.51-.23-.49-.5-.49ZM316,39.5c-.28,0-.5.22-.5.49s.22.51.5.51.5-.23.5-.51-.23-.49-.5-.49ZM268,39.5c-.28,0-.5.22-.5.49s.22.51.5.51.5-.23.5-.51-.23-.49-.5-.49ZM304,39.5c-.28,0-.5.22-.5.49s.22.51.5.51.5-.23.5-.51-.23-.49-.5-.49ZM219.99,39.5c-.27,0-.49.22-.49.49s.22.51.49.51.51-.23.51-.51-.23-.49-.51-.49ZM172,39.5c-.28,0-.5.22-.5.49s.22.51.5.51.5-.23.5-.51-.23-.49-.5-.49ZM112,39.5c-.28,0-.5.22-.5.49s.22.51.5.51.5-.23.5-.51-.23-.49-.5-.49ZM40,39.5c-.28,0-.5.22-.5.49s.22.51.5.51.5-.23.5-.51-.23-.49-.5-.49ZM4.35,39.64c-.05-.05-.1-.08-.16-.11-.19-.07-.41-.03-.55.11-.04.05-.08.1-.1.16-.03.07-.04.13-.04.2,0,.13.05.26.14.35.1.09.23.15.36.15.06,0,.13-.02.19-.04.06-.03.11-.06.16-.11.09-.09.15-.22.15-.35,0-.07-.02-.13-.04-.2-.03-.06-.06-.11-.11-.16ZM340.35,63.64s-.1-.08-.16-.11c-.13-.05-.26-.05-.39,0-.06.03-.11.07-.16.11-.04.05-.08.1-.11.16-.02.06-.04.13-.04.19,0,.07.02.13.04.2.03.06.07.11.11.16.05.04.1.08.16.11.07.02.13.04.2.04.06,0,.13-.02.19-.04.06-.03.11-.07.16-.11.09-.1.15-.23.15-.36,0-.06-.02-.13-.04-.19-.03-.06-.07-.11-.11-.16ZM40,63.49c-.28,0-.5.23-.5.5s.22.51.5.51.5-.23.5-.51-.23-.5-.5-.5ZM28,63.49c-.28,0-.5.23-.5.5s.22.51.5.51.5-.23.5-.51-.23-.5-.5-.5ZM328,63.49c-.28,0-.5.23-.5.5s.22.51.5.51.5-.23.5-.51-.23-.5-.5-.5ZM292,63.49c-.28,0-.5.23-.5.5s.22.51.5.51.5-.23.5-.51-.23-.5-.5-.5ZM100,63.49c-.28,0-.5.23-.5.5s.22.51.5.51.5-.23.5-.51-.23-.5-.5-.5ZM148,63.49c-.28,0-.5.23-.5.5s.22.51.5.51.5-.23.5-.51-.23-.5-.5-.5ZM196,63.49c-.28,0-.5.23-.5.5s.22.51.5.51.5-.23.5-.51-.23-.5-.5-.5ZM280,63.49c-.28,0-.5.23-.5.5s.22.51.5.51.5-.23.5-.51-.23-.5-.5-.5ZM76,63.49c-.28,0-.5.23-.5.5s.22.51.5.51.5-.23.5-.51-.23-.5-.5-.5ZM316,63.49c-.28,0-.5.23-.5.5s.22.51.5.51.5-.23.5-.51-.23-.5-.5-.5ZM136,63.49c-.28,0-.5.23-.5.5s.22.51.5.51.5-.23.5-.51-.23-.5-.5-.5ZM160,63.49c-.28,0-.5.23-.5.5s.22.51.5.51.5-.23.5-.51-.23-.5-.5-.5ZM244,63.49c-.28,0-.5.23-.5.5s.22.51.5.51.5-.23.5-.51-.23-.5-.5-.5ZM219.99,63.49c-.27,0-.49.23-.49.5s.22.51.49.51.51-.23.51-.51-.23-.5-.51-.5ZM16,63.49c-.28,0-.5.23-.5.5s.22.51.5.51.5-.23.5-.51-.23-.5-.5-.5ZM172,63.49c-.28,0-.5.23-.5.5s.22.51.5.51.5-.23.5-.51-.23-.5-.5-.5ZM52,63.49c-.28,0-.5.23-.5.5s.22.51.5.51.5-.23.5-.51-.23-.5-.5-.5ZM64,63.49c-.28,0-.5.23-.5.5s.22.51.5.51.5-.23.5-.51-.23-.5-.5-.5ZM268,63.49c-.28,0-.5.23-.5.5s.22.51.5.51.5-.23.5-.51-.23-.5-.5-.5ZM304,63.49c-.28,0-.5.23-.5.5s.22.51.5.51.5-.23.5-.51-.23-.5-.5-.5ZM112,63.49c-.28,0-.5.23-.5.5s.22.51.5.51.5-.23.5-.51-.23-.5-.5-.5ZM88,63.49c-.28,0-.5.23-.5.5s.22.51.5.51.5-.23.5-.51-.23-.5-.5-.5ZM208,63.49c-.28,0-.5.23-.5.5s.22.51.5.51.5-.23.5-.51-.23-.5-.5-.5ZM256,63.49c-.28,0-.5.23-.5.5s.22.51.5.51.5-.23.5-.51-.23-.5-.5-.5ZM184,63.49c-.28,0-.5.23-.5.5s.22.51.5.51.5-.23.5-.51-.23-.5-.5-.5ZM232,63.49c-.28,0-.5.23-.5.5s.22.51.5.51.5-.23.5-.51-.23-.5-.5-.5ZM124,63.49c-.28,0-.5.23-.5.5s.22.51.5.51.5-.23.5-.51-.23-.5-.5-.5ZM4.35,63.64c-.19-.18-.52-.19-.71,0-.04.05-.08.1-.1.16-.03.07-.04.13-.04.2,0,.13.05.25.14.35.1.09.23.15.36.15s.26-.06.35-.15c.09-.1.15-.22.15-.35,0-.07-.02-.13-.04-.2-.03-.06-.06-.11-.11-.16ZM340.19,87.54c-.19-.07-.41-.03-.55.11-.04.05-.08.1-.11.16-.02.07-.04.13-.04.2,0,.13.06.26.15.35.05.04.1.08.16.11.07.02.13.03.2.03.06,0,.13-.01.19-.03.06-.03.11-.07.16-.11.09-.1.15-.22.15-.35s-.06-.26-.15-.36c-.05-.04-.1-.08-.16-.11ZM304,87.49c-.28,0-.5.23-.5.5s.22.51.5.51.5-.23.5-.51-.23-.5-.5-.5ZM40,87.49c-.28,0-.5.23-.5.5s.22.51.5.51.5-.23.5-.51-.23-.5-.5-.5ZM256,87.49c-.28,0-.5.23-.5.5s.22.51.5.51.5-.23.5-.51-.23-.5-.5-.5ZM232,87.49c-.28,0-.5.23-.5.5s.22.51.5.51.5-.23.5-.51-.23-.5-.5-.5ZM196,87.49c-.28,0-.5.23-.5.5s.22.51.5.51.5-.23.5-.51-.23-.5-.5-.5ZM292,87.49c-.28,0-.5.23-.5.5s.22.51.5.51.5-.23.5-.51-.23-.5-.5-.5ZM136,87.49c-.28,0-.5.23-.5.5s.22.51.5.51.5-.23.5-.51-.23-.5-.5-.5ZM112,87.49c-.28,0-.5.23-.5.5s.22.51.5.51.5-.23.5-.51-.23-.5-.5-.5ZM268,87.49c-.28,0-.5.23-.5.5s.22.51.5.51.5-.23.5-.51-.23-.5-.5-.5ZM160,87.49c-.28,0-.5.23-.5.5s.22.51.5.51.5-.23.5-.51-.23-.5-.5-.5ZM328,87.49c-.28,0-.5.23-.5.5s.22.51.5.51.5-.23.5-.51-.23-.5-.5-.5ZM316,87.49c-.28,0-.5.23-.5.5s.22.51.5.51.5-.23.5-.51-.23-.5-.5-.5ZM280,87.49c-.28,0-.5.23-.5.5s.22.51.5.51.5-.23.5-.51-.23-.5-.5-.5ZM88,87.49c-.28,0-.5.23-.5.5s.22.51.5.51.5-.23.5-.51-.23-.5-.5-.5ZM148,87.49c-.28,0-.5.23-.5.5s.22.51.5.51.5-.23.5-.51-.23-.5-.5-.5ZM52,87.49c-.28,0-.5.23-.5.5s.22.51.5.51.5-.23.5-.51-.23-.5-.5-.5ZM76,87.49c-.28,0-.5.23-.5.5s.22.51.5.51.5-.23.5-.51-.23-.5-.5-.5ZM244,87.49c-.28,0-.5.23-.5.5s.22.51.5.51.5-.23.5-.51-.23-.5-.5-.5ZM64,87.49c-.28,0-.5.23-.5.5s.22.51.5.51.5-.23.5-.51-.23-.5-.5-.5ZM219.99,87.49c-.27,0-.49.23-.49.5s.22.51.49.51.51-.23.51-.51-.23-.5-.51-.5ZM100,87.49c-.28,0-.5.23-.5.5s.22.51.5.51.5-.23.5-.51-.23-.5-.5-.5ZM184,87.49c-.28,0-.5.23-.5.5s.22.51.5.51.5-.23.5-.51-.23-.5-.5-.5ZM172,87.49c-.28,0-.5.23-.5.5s.22.51.5.51.5-.23.5-.51-.23-.5-.5-.5ZM16,87.49c-.28,0-.5.23-.5.5s.22.51.5.51.5-.23.5-.51-.23-.5-.5-.5ZM28,87.49c-.28,0-.5.23-.5.5s.22.51.5.51.5-.23.5-.51-.23-.5-.5-.5ZM208,87.49c-.28,0-.5.23-.5.5s.22.51.5.51.5-.23.5-.51-.23-.5-.5-.5ZM124,87.49c-.28,0-.5.23-.5.5s.22.51.5.51.5-.23.5-.51-.23-.5-.5-.5ZM3.81,87.54c-.07.03-.12.07-.17.11-.09.09-.14.22-.14.36,0,.06,0,.13.03.19.03.06.07.11.11.16.05.04.1.08.17.11.06.02.12.03.19.03.13,0,.26-.05.35-.14.09-.1.15-.23.15-.35,0-.13-.06-.26-.15-.36-.14-.14-.36-.18-.54-.11ZM340.35,111.64s-.1-.08-.16-.11c-.13-.05-.26-.05-.39,0-.06.03-.11.07-.16.11-.04.05-.08.1-.11.16-.02.06-.04.13-.04.19,0,.07.02.13.04.2.03.06.07.11.11.16.09.09.22.14.36.14.06,0,.13-.01.19-.03.06-.03.11-.07.16-.11.09-.1.15-.23.15-.36,0-.06-.02-.13-.04-.19-.03-.06-.07-.11-.11-.16ZM28,111.49c-.28,0-.5.23-.5.51s.22.5.5.5.5-.23.5-.5-.23-.51-.5-.51ZM268,111.49c-.28,0-.5.23-.5.51s.22.5.5.5.5-.23.5-.5-.23-.51-.5-.51ZM256,111.49c-.28,0-.5.23-.5.51s.22.5.5.5.5-.23.5-.5-.23-.51-.5-.51ZM76,111.49c-.28,0-.5.23-.5.51s.22.5.5.5.5-.23.5-.5-.23-.51-.5-.51ZM148,111.49c-.28,0-.5.23-.5.51s.22.5.5.5.5-.23.5-.5-.23-.51-.5-.51ZM184,111.49c-.28,0-.5.23-.5.51s.22.5.5.5.5-.23.5-.5-.23-.51-.5-.51ZM88,111.49c-.28,0-.5.23-.5.51s.22.5.5.5.5-.23.5-.5-.23-.51-.5-.51ZM316,111.49c-.28,0-.5.23-.5.51s.22.5.5.5.5-.23.5-.5-.23-.51-.5-.51ZM219.99,111.49c-.27,0-.49.23-.49.51s.22.5.49.5.51-.23.51-.5-.23-.51-.51-.51ZM112,111.49c-.28,0-.5.23-.5.51s.22.5.5.5.5-.23.5-.5-.23-.51-.5-.51ZM40,111.49c-.28,0-.5.23-.5.51s.22.5.5.5.5-.23.5-.5-.23-.51-.5-.51ZM172,111.49c-.28,0-.5.23-.5.51s.22.5.5.5.5-.23.5-.5-.23-.51-.5-.51ZM100,111.49c-.28,0-.5.23-.5.51s.22.5.5.5.5-.23.5-.5-.23-.51-.5-.51ZM196,111.49c-.28,0-.5.23-.5.51s.22.5.5.5.5-.23.5-.5-.23-.51-.5-.51ZM52,111.49c-.28,0-.5.23-.5.51s.22.5.5.5.5-.23.5-.5-.23-.51-.5-.51ZM208,111.49c-.28,0-.5.23-.5.51s.22.5.5.5.5-.23.5-.5-.23-.51-.5-.51ZM328,111.49c-.28,0-.5.23-.5.51s.22.5.5.5.5-.23.5-.5-.23-.51-.5-.51ZM304,111.49c-.28,0-.5.23-.5.51s.22.5.5.5.5-.23.5-.5-.23-.51-.5-.51ZM292,111.49c-.28,0-.5.23-.5.51s.22.5.5.5.5-.23.5-.5-.23-.51-.5-.51ZM124,111.49c-.28,0-.5.23-.5.51s.22.5.5.5.5-.23.5-.5-.23-.51-.5-.51ZM160,111.49c-.28,0-.5.23-.5.51s.22.5.5.5.5-.23.5-.5-.23-.51-.5-.51ZM244,111.49c-.28,0-.5.23-.5.51s.22.5.5.5.5-.23.5-.5-.23-.51-.5-.51ZM280,111.49c-.28,0-.5.23-.5.51s.22.5.5.5.5-.23.5-.5-.23-.51-.5-.51ZM64,111.49c-.28,0-.5.23-.5.51s.22.5.5.5.5-.23.5-.5-.23-.51-.5-.51ZM136,111.49c-.28,0-.5.23-.5.51s.22.5.5.5.5-.23.5-.5-.23-.51-.5-.51ZM232,111.49c-.28,0-.5.23-.5.51s.22.5.5.5.5-.23.5-.5-.23-.51-.5-.51ZM16,111.49c-.28,0-.5.23-.5.51s.22.5.5.5.5-.23.5-.5-.23-.51-.5-.51ZM4.35,111.64c-.14-.14-.36-.18-.54-.11-.07.03-.12.07-.17.11-.04.05-.08.1-.1.16-.03.07-.04.13-.04.2,0,.13.05.26.14.35.05.04.1.08.17.11.06.02.12.03.19.03.13,0,.26-.05.35-.14.09-.09.15-.22.15-.35,0-.07-.02-.13-.04-.2-.03-.06-.06-.11-.11-.16ZM340.19,135.54c-.19-.07-.41-.03-.55.11-.04.05-.08.1-.11.16-.02.07-.04.13-.04.2,0,.06.02.13.04.19.03.06.07.11.11.16.05.04.1.08.16.11.07.02.13.04.2.04.06,0,.13-.02.19-.04.06-.03.11-.07.16-.11.04-.05.08-.1.11-.16.02-.06.04-.13.04-.19,0-.13-.06-.26-.15-.36-.05-.04-.1-.08-.16-.11ZM208,135.49c-.28,0-.5.23-.5.51s.22.5.5.5.5-.23.5-.5-.23-.51-.5-.51ZM160,135.49c-.28,0-.5.23-.5.51s.22.5.5.5.5-.23.5-.5-.23-.51-.5-.51ZM28,135.49c-.28,0-.5.23-.5.51s.22.5.5.5.5-.23.5-.5-.23-.51-.5-.51ZM52,135.49c-.28,0-.5.23-.5.51s.22.5.5.5.5-.23.5-.5-.23-.51-.5-.51ZM64,135.49c-.28,0-.5.23-.5.51s.22.5.5.5.5-.23.5-.5-.23-.51-.5-.51ZM232,135.49c-.28,0-.5.23-.5.51s.22.5.5.5.5-.23.5-.5-.23-.51-.5-.51ZM40,135.49c-.28,0-.5.23-.5.51s.22.5.5.5.5-.23.5-.5-.23-.51-.5-.51ZM244,135.49c-.28,0-.5.23-.5.51s.22.5.5.5.5-.23.5-.5-.23-.51-.5-.51ZM172,135.49c-.28,0-.5.23-.5.51s.22.5.5.5.5-.23.5-.5-.23-.51-.5-.51ZM184,135.49c-.28,0-.5.23-.5.51s.22.5.5.5.5-.23.5-.5-.23-.51-.5-.51ZM148,135.49c-.28,0-.5.23-.5.51s.22.5.5.5.5-.23.5-.5-.23-.51-.5-.51ZM219.99,135.49c-.27,0-.49.23-.49.51s.22.5.49.5.51-.23.51-.5-.23-.51-.51-.51ZM256,135.49c-.28,0-.5.23-.5.51s.22.5.5.5.5-.23.5-.5-.23-.51-.5-.51ZM268,135.49c-.28,0-.5.23-.5.51s.22.5.5.5.5-.23.5-.5-.23-.51-.5-.51ZM76,135.49c-.28,0-.5.23-.5.51s.22.5.5.5.5-.23.5-.5-.23-.51-.5-.51ZM124,135.49c-.28,0-.5.23-.5.51s.22.5.5.5.5-.23.5-.5-.23-.51-.5-.51ZM328,135.49c-.28,0-.5.23-.5.51s.22.5.5.5.5-.23.5-.5-.23-.51-.5-.51ZM196,135.49c-.28,0-.5.23-.5.51s.22.5.5.5.5-.23.5-.5-.23-.51-.5-.51ZM316,135.49c-.28,0-.5.23-.5.51s.22.5.5.5.5-.23.5-.5-.23-.51-.5-.51ZM292,135.49c-.28,0-.5.23-.5.51s.22.5.5.5.5-.23.5-.5-.23-.51-.5-.51ZM16,135.49c-.28,0-.5.23-.5.51s.22.5.5.5.5-.23.5-.5-.23-.51-.5-.51ZM136,135.49c-.28,0-.5.23-.5.51s.22.5.5.5.5-.23.5-.5-.23-.51-.5-.51ZM304,135.49c-.28,0-.5.23-.5.51s.22.5.5.5.5-.23.5-.5-.23-.51-.5-.51ZM100,135.49c-.28,0-.5.23-.5.51s.22.5.5.5.5-.23.5-.5-.23-.51-.5-.51ZM112,135.49c-.28,0-.5.23-.5.51s.22.5.5.5.5-.23.5-.5-.23-.51-.5-.51ZM88,135.49c-.28,0-.5.23-.5.51s.22.5.5.5.5-.23.5-.5-.23-.51-.5-.51ZM280,135.49c-.28,0-.5.23-.5.51s.22.5.5.5.5-.23.5-.5-.23-.51-.5-.51ZM4.19,135.54c-.12-.05-.26-.05-.38,0-.06.03-.12.07-.17.11-.09.09-.14.22-.14.35,0,.07,0,.13.03.2.03.06.07.11.11.16.05.05.11.08.17.11.06.02.12.03.19.03.13,0,.26-.05.35-.14.05-.05.08-.1.11-.16.02-.06.04-.13.04-.2,0-.13-.06-.26-.15-.35-.05-.04-.1-.08-.16-.11ZM340.19,159.54c-.13-.05-.26-.05-.39,0-.06.03-.11.07-.16.11-.09.09-.15.22-.15.35,0,.07.02.13.04.2.03.06.07.11.11.16.09.09.22.14.36.14.06,0,.13-.01.19-.03.06-.03.11-.07.16-.11.09-.1.15-.23.15-.36s-.06-.25-.15-.35c-.05-.04-.1-.08-.16-.11ZM160,159.49c-.28,0-.5.23-.5.51s.22.49.5.49.5-.22.5-.49-.23-.51-.5-.51ZM219.99,159.49c-.27,0-.49.23-.49.51s.22.49.49.49.51-.22.51-.49-.23-.51-.51-.51ZM184,159.49c-.28,0-.5.23-.5.51s.22.49.5.49.5-.22.5-.49-.23-.51-.5-.51ZM280,159.49c-.28,0-.5.23-.5.51s.22.49.5.49.5-.22.5-.49-.23-.51-.5-.51ZM136,159.49c-.28,0-.5.23-.5.51s.22.49.5.49.5-.22.5-.49-.23-.51-.5-.51ZM40,159.49c-.28,0-.5.23-.5.51s.22.49.5.49.5-.22.5-.49-.23-.51-.5-.51ZM124,159.49c-.28,0-.5.23-.5.51s.22.49.5.49.5-.22.5-.49-.23-.51-.5-.51ZM112,159.49c-.28,0-.5.23-.5.51s.22.49.5.49.5-.22.5-.49-.23-.51-.5-.51ZM232,159.49c-.28,0-.5.23-.5.51s.22.49.5.49.5-.22.5-.49-.23-.51-.5-.51ZM304,159.49c-.28,0-.5.23-.5.51s.22.49.5.49.5-.22.5-.49-.23-.51-.5-.51ZM256,159.49c-.28,0-.5.23-.5.51s.22.49.5.49.5-.22.5-.49-.23-.51-.5-.51ZM172,159.49c-.28,0-.5.23-.5.51s.22.49.5.49.5-.22.5-.49-.23-.51-.5-.51ZM292,159.49c-.28,0-.5.23-.5.51s.22.49.5.49.5-.22.5-.49-.23-.51-.5-.51ZM316,159.49c-.28,0-.5.23-.5.51s.22.49.5.49.5-.22.5-.49-.23-.51-.5-.51ZM88,159.49c-.28,0-.5.23-.5.51s.22.49.5.49.5-.22.5-.49-.23-.51-.5-.51ZM244,159.49c-.28,0-.5.23-.5.51s.22.49.5.49.5-.22.5-.49-.23-.51-.5-.51ZM16,159.49c-.28,0-.5.23-.5.51s.22.49.5.49.5-.22.5-.49-.23-.51-.5-.51ZM64,159.49c-.28,0-.5.23-.5.51s.22.49.5.49.5-.22.5-.49-.23-.51-.5-.51ZM268,159.49c-.28,0-.5.23-.5.51s.22.49.5.49.5-.22.5-.49-.23-.51-.5-.51ZM328,159.49c-.28,0-.5.23-.5.51s.22.49.5.49.5-.22.5-.49-.23-.51-.5-.51ZM148,159.49c-.28,0-.5.23-.5.51s.22.49.5.49.5-.22.5-.49-.23-.51-.5-.51ZM208,159.49c-.28,0-.5.23-.5.51s.22.49.5.49.5-.22.5-.49-.23-.51-.5-.51ZM28,159.49c-.28,0-.5.23-.5.51s.22.49.5.49.5-.22.5-.49-.23-.51-.5-.51ZM196,159.49c-.28,0-.5.23-.5.51s.22.49.5.49.5-.22.5-.49-.23-.51-.5-.51ZM52,159.49c-.28,0-.5.23-.5.51s.22.49.5.49.5-.22.5-.49-.23-.51-.5-.51ZM100,159.49c-.28,0-.5.23-.5.51s.22.49.5.49.5-.22.5-.49-.23-.51-.5-.51ZM76,159.49c-.28,0-.5.23-.5.51s.22.49.5.49.5-.22.5-.49-.23-.51-.5-.51ZM3.64,159.64c-.09.09-.14.22-.14.36,0,.13.05.26.14.35.1.09.22.15.36.15.13,0,.26-.06.35-.15.09-.09.15-.22.15-.35,0-.14-.06-.27-.15-.36-.18-.19-.52-.18-.71,0ZM340.19,183.54c-.19-.07-.41-.03-.55.11-.04.05-.08.1-.11.16-.02.07-.04.13-.04.2,0,.06.02.13.04.19.03.06.07.11.11.16.05.04.1.08.16.11.07.02.13.04.2.04.06,0,.13-.02.19-.04.06-.03.11-.07.16-.11.04-.05.08-.1.11-.16.02-.06.04-.13.04-.19,0-.13-.06-.26-.15-.36-.05-.04-.1-.08-.16-.11ZM292,183.49c-.28,0-.5.23-.5.51s.22.49.5.49.5-.22.5-.49-.23-.51-.5-.51ZM100,183.49c-.28,0-.5.23-.5.51s.22.49.5.49.5-.22.5-.49-.23-.51-.5-.51ZM16,183.49c-.28,0-.5.23-.5.51s.22.49.5.49.5-.22.5-.49-.23-.51-.5-.51ZM244,183.49c-.28,0-.5.23-.5.51s.22.49.5.49.5-.22.5-.49-.23-.51-.5-.51ZM76,183.49c-.28,0-.5.23-.5.51s.22.49.5.49.5-.22.5-.49-.23-.51-.5-.51ZM148,183.49c-.28,0-.5.23-.5.51s.22.49.5.49.5-.22.5-.49-.23-.51-.5-.51ZM172,183.49c-.28,0-.5.23-.5.51s.22.49.5.49.5-.22.5-.49-.23-.51-.5-.51ZM28,183.49c-.28,0-.5.23-.5.51s.22.49.5.49.5-.22.5-.49-.23-.51-.5-.51ZM124,183.49c-.28,0-.5.23-.5.51s.22.49.5.49.5-.22.5-.49-.23-.51-.5-.51ZM304,183.49c-.28,0-.5.23-.5.51s.22.49.5.49.5-.22.5-.49-.23-.51-.5-.51ZM196,183.49c-.28,0-.5.23-.5.51s.22.49.5.49.5-.22.5-.49-.23-.51-.5-.51ZM232,183.49c-.28,0-.5.23-.5.51s.22.49.5.49.5-.22.5-.49-.23-.51-.5-.51ZM88,183.49c-.28,0-.5.23-.5.51s.22.49.5.49.5-.22.5-.49-.23-.51-.5-.51ZM316,183.49c-.28,0-.5.23-.5.51s.22.49.5.49.5-.22.5-.49-.23-.51-.5-.51ZM40,183.49c-.28,0-.5.23-.5.51s.22.49.5.49.5-.22.5-.49-.23-.51-.5-.51ZM52,183.49c-.28,0-.5.23-.5.51s.22.49.5.49.5-.22.5-.49-.23-.51-.5-.51ZM160,183.49c-.28,0-.5.23-.5.51s.22.49.5.49.5-.22.5-.49-.23-.51-.5-.51ZM208,183.49c-.28,0-.5.23-.5.51s.22.49.5.49.5-.22.5-.49-.23-.51-.5-.51ZM136,183.49c-.28,0-.5.23-.5.51s.22.49.5.49.5-.22.5-.49-.23-.51-.5-.51ZM219.99,183.49c-.27,0-.49.23-.49.51s.22.49.49.49.51-.22.51-.49-.23-.51-.51-.51ZM280,183.49c-.28,0-.5.23-.5.51s.22.49.5.49.5-.22.5-.49-.23-.51-.5-.51ZM184,183.49c-.28,0-.5.23-.5.51s.22.49.5.49.5-.22.5-.49-.23-.51-.5-.51ZM256,183.49c-.28,0-.5.23-.5.51s.22.49.5.49.5-.22.5-.49-.23-.51-.5-.51ZM328,183.49c-.28,0-.5.23-.5.51s.22.49.5.49.5-.22.5-.49-.23-.51-.5-.51ZM64,183.49c-.28,0-.5.23-.5.51s.22.49.5.49.5-.22.5-.49-.23-.51-.5-.51ZM112,183.49c-.28,0-.5.23-.5.51s.22.49.5.49.5-.22.5-.49-.23-.51-.5-.51ZM268,183.49c-.28,0-.5.23-.5.51s.22.49.5.49.5-.22.5-.49-.23-.51-.5-.51ZM3.64,183.64c-.09.1-.14.22-.14.36,0,.06,0,.12.04.19.02.06.06.11.1.16.1.09.22.14.36.14.13,0,.26-.05.35-.14.05-.05.08-.1.11-.16.02-.07.04-.13.04-.19,0-.14-.06-.27-.15-.36-.18-.18-.52-.19-.71,0ZM340.35,207.64s-.1-.08-.16-.11c-.13-.05-.26-.05-.39,0-.06.03-.11.07-.16.11-.04.05-.08.1-.11.16-.02.06-.04.13-.04.19,0,.14.06.27.15.36.1.09.22.14.36.14.13,0,.26-.05.35-.14s.15-.22.15-.36c0-.06-.02-.13-.04-.19-.03-.06-.07-.11-.11-.16ZM328,207.49c-.28,0-.5.23-.5.51s.22.5.5.5.5-.23.5-.5-.23-.51-.5-.51ZM184,207.49c-.28,0-.5.23-.5.51s.22.5.5.5.5-.23.5-.5-.23-.51-.5-.51ZM172,207.49c-.28,0-.5.23-.5.51s.22.5.5.5.5-.23.5-.5-.23-.51-.5-.51ZM219.99,207.49c-.27,0-.49.23-.49.51s.22.5.49.5.51-.23.51-.5-.23-.51-.51-.51ZM208,207.49c-.28,0-.5.23-.5.51s.22.5.5.5.5-.23.5-.5-.23-.51-.5-.51ZM316,207.49c-.28,0-.5.23-.5.51s.22.5.5.5.5-.23.5-.5-.23-.51-.5-.51ZM196,207.49c-.28,0-.5.23-.5.51s.22.5.5.5.5-.23.5-.5-.23-.51-.5-.51ZM304,207.49c-.28,0-.5.23-.5.51s.22.5.5.5.5-.23.5-.5-.23-.51-.5-.51ZM112,207.49c-.28,0-.5.23-.5.51s.22.5.5.5.5-.23.5-.5-.23-.51-.5-.51ZM100,207.49c-.28,0-.5.23-.5.51s.22.5.5.5.5-.23.5-.5-.23-.51-.5-.51ZM52,207.49c-.28,0-.5.23-.5.51s.22.5.5.5.5-.23.5-.5-.23-.51-.5-.51ZM64,207.49c-.28,0-.5.23-.5.51s.22.5.5.5.5-.23.5-.5-.23-.51-.5-.51ZM88,207.49c-.28,0-.5.23-.5.51s.22.5.5.5.5-.23.5-.5-.23-.51-.5-.51ZM124,207.49c-.28,0-.5.23-.5.51s.22.5.5.5.5-.23.5-.5-.23-.51-.5-.51ZM232,207.49c-.28,0-.5.23-.5.51s.22.5.5.5.5-.23.5-.5-.23-.51-.5-.51ZM292,207.49c-.28,0-.5.23-.5.51s.22.5.5.5.5-.23.5-.5-.23-.51-.5-.51ZM28,207.49c-.28,0-.5.23-.5.51s.22.5.5.5.5-.23.5-.5-.23-.51-.5-.51ZM16,207.49c-.28,0-.5.23-.5.51s.22.5.5.5.5-.23.5-.5-.23-.51-.5-.51ZM40,207.49c-.28,0-.5.23-.5.51s.22.5.5.5.5-.23.5-.5-.23-.51-.5-.51ZM148,207.49c-.28,0-.5.23-.5.51s.22.5.5.5.5-.23.5-.5-.23-.51-.5-.51ZM244,207.49c-.28,0-.5.23-.5.51s.22.5.5.5.5-.23.5-.5-.23-.51-.5-.51ZM280,207.49c-.28,0-.5.23-.5.51s.22.5.5.5.5-.23.5-.5-.23-.51-.5-.51ZM76,207.49c-.28,0-.5.23-.5.51s.22.5.5.5.5-.23.5-.5-.23-.51-.5-.51ZM136,207.49c-.28,0-.5.23-.5.51s.22.5.5.5.5-.23.5-.5-.23-.51-.5-.51ZM160,207.49c-.28,0-.5.23-.5.51s.22.5.5.5.5-.23.5-.5-.23-.51-.5-.51ZM268,207.49c-.28,0-.5.23-.5.51s.22.5.5.5.5-.23.5-.5-.23-.51-.5-.51ZM256,207.49c-.28,0-.5.23-.5.51s.22.5.5.5.5-.23.5-.5-.23-.51-.5-.51ZM4.19,207.53c-.12-.05-.26-.05-.38,0-.07.03-.12.06-.17.11-.09.09-.14.22-.14.35,0,.07,0,.14.03.2.03.06.07.11.11.16.1.09.22.15.36.15.13,0,.26-.06.35-.15.05-.05.08-.1.11-.16.02-.06.04-.13.04-.2,0-.13-.06-.26-.15-.35-.04-.04-.1-.08-.16-.11ZM340.19,231.53c-.19-.07-.41-.03-.55.11-.04.05-.08.1-.11.16-.02.07-.04.13-.04.2,0,.13.06.25.15.35.1.09.22.14.36.14.06,0,.13,0,.19-.03.06-.03.11-.06.16-.11.09-.1.15-.22.15-.35s-.06-.26-.15-.36c-.05-.04-.1-.08-.16-.11ZM328,231.49c-.28,0-.5.23-.5.51s.22.49.5.49.5-.22.5-.49-.23-.51-.5-.51ZM280,231.49c-.28,0-.5.23-.5.51s.22.49.5.49.5-.22.5-.49-.23-.51-.5-.51ZM316,231.49c-.28,0-.5.23-.5.51s.22.49.5.49.5-.22.5-.49-.23-.51-.5-.51ZM292,231.49c-.28,0-.5.23-.5.51s.22.49.5.49.5-.22.5-.49-.23-.51-.5-.51ZM112,231.49c-.28,0-.5.23-.5.51s.22.49.5.49.5-.22.5-.49-.23-.51-.5-.51ZM76,231.49c-.28,0-.5.23-.5.51s.22.49.5.49.5-.22.5-.49-.23-.51-.5-.51ZM64,231.49c-.28,0-.5.23-.5.51s.22.49.5.49.5-.22.5-.49-.23-.51-.5-.51ZM52,231.49c-.28,0-.5.23-.5.51s.22.49.5.49.5-.22.5-.49-.23-.51-.5-.51ZM160,231.49c-.28,0-.5.23-.5.51s.22.49.5.49.5-.22.5-.49-.23-.51-.5-.51ZM256,231.49c-.28,0-.5.23-.5.51s.22.49.5.49.5-.22.5-.49-.23-.51-.5-.51ZM136,231.49c-.28,0-.5.23-.5.51s.22.49.5.49.5-.22.5-.49-.23-.51-.5-.51ZM219.99,231.49c-.27,0-.49.23-.49.51s.22.49.49.49.51-.22.51-.49-.23-.51-.51-.51ZM184,231.49c-.28,0-.5.23-.5.51s.22.49.5.49.5-.22.5-.49-.23-.51-.5-.51ZM208,231.49c-.28,0-.5.23-.5.51s.22.49.5.49.5-.22.5-.49-.23-.51-.5-.51ZM148,231.49c-.28,0-.5.23-.5.51s.22.49.5.49.5-.22.5-.49-.23-.51-.5-.51ZM28,231.49c-.28,0-.5.23-.5.51s.22.49.5.49.5-.22.5-.49-.23-.51-.5-.51ZM232,231.49c-.28,0-.5.23-.5.51s.22.49.5.49.5-.22.5-.49-.23-.51-.5-.51ZM16,231.49c-.28,0-.5.23-.5.51s.22.49.5.49.5-.22.5-.49-.23-.51-.5-.51ZM268,231.49c-.28,0-.5.23-.5.51s.22.49.5.49.5-.22.5-.49-.23-.51-.5-.51ZM196,231.49c-.28,0-.5.23-.5.51s.22.49.5.49.5-.22.5-.49-.23-.51-.5-.51ZM124,231.49c-.28,0-.5.23-.5.51s.22.49.5.49.5-.22.5-.49-.23-.51-.5-.51ZM100,231.49c-.28,0-.5.23-.5.51s.22.49.5.49.5-.22.5-.49-.23-.51-.5-.51ZM172,231.49c-.28,0-.5.23-.5.51s.22.49.5.49.5-.22.5-.49-.23-.51-.5-.51ZM88,231.49c-.28,0-.5.23-.5.51s.22.49.5.49.5-.22.5-.49-.23-.51-.5-.51ZM244,231.49c-.28,0-.5.23-.5.51s.22.49.5.49.5-.22.5-.49-.23-.51-.5-.51ZM40,231.49c-.28,0-.5.23-.5.51s.22.49.5.49.5-.22.5-.49-.23-.51-.5-.51ZM304,231.49c-.28,0-.5.23-.5.51s.22.49.5.49.5-.22.5-.49-.23-.51-.5-.51ZM4.19,231.53c-.19-.08-.41-.03-.55.11-.09.09-.14.22-.14.36,0,.06,0,.13.03.19.03.06.07.11.11.16.1.09.23.15.36.15.06,0,.13-.02.19-.04.06-.03.11-.06.16-.11.05-.05.08-.1.11-.16.02-.07.04-.13.04-.19,0-.14-.06-.27-.15-.36-.04-.04-.1-.08-.16-.11ZM340.35,255.64s-.1-.08-.16-.11c-.13-.05-.26-.05-.39,0-.06.03-.11.07-.16.11-.04.05-.08.1-.11.16-.02.06-.04.13-.04.19,0,.14.06.27.15.36s.22.14.36.14c.13,0,.26-.05.35-.14s.15-.22.15-.36c0-.06-.02-.12-.04-.19-.03-.06-.07-.11-.11-.16ZM52,255.49c-.28,0-.5.23-.5.51s.22.49.5.49.5-.22.5-.49-.23-.51-.5-.51ZM100,255.49c-.28,0-.5.23-.5.51s.22.49.5.49.5-.22.5-.49-.23-.51-.5-.51ZM28,255.49c-.28,0-.5.23-.5.51s.22.49.5.49.5-.22.5-.49-.23-.51-.5-.51ZM268,255.49c-.28,0-.5.23-.5.51s.22.49.5.49.5-.22.5-.49-.23-.51-.5-.51ZM76,255.49c-.28,0-.5.23-.5.51s.22.49.5.49.5-.22.5-.49-.23-.51-.5-.51ZM16,255.49c-.28,0-.5.23-.5.51s.22.49.5.49.5-.22.5-.49-.23-.51-.5-.51ZM196,255.49c-.28,0-.5.23-.5.51s.22.49.5.49.5-.22.5-.49-.23-.51-.5-.51ZM160,255.49c-.28,0-.5.23-.5.51s.22.49.5.49.5-.22.5-.49-.23-.51-.5-.51ZM208,255.49c-.28,0-.5.23-.5.51s.22.49.5.49.5-.22.5-.49-.23-.51-.5-.51ZM328,255.49c-.28,0-.5.23-.5.51s.22.49.5.49.5-.22.5-.49-.23-.51-.5-.51ZM148,255.49c-.28,0-.5.23-.5.51s.22.49.5.49.5-.22.5-.49-.23-.51-.5-.51ZM112,255.49c-.28,0-.5.23-.5.51s.22.49.5.49.5-.22.5-.49-.23-.51-.5-.51ZM280,255.49c-.28,0-.5.23-.5.51s.22.49.5.49.5-.22.5-.49-.23-.51-.5-.51ZM40,255.49c-.28,0-.5.23-.5.51s.22.49.5.49.5-.22.5-.49-.23-.51-.5-.51ZM124,255.49c-.28,0-.5.23-.5.51s.22.49.5.49.5-.22.5-.49-.23-.51-.5-.51ZM316,255.49c-.28,0-.5.23-.5.51s.22.49.5.49.5-.22.5-.49-.23-.51-.5-.51ZM232,255.49c-.28,0-.5.23-.5.51s.22.49.5.49.5-.22.5-.49-.23-.51-.5-.51ZM244,255.49c-.28,0-.5.23-.5.51s.22.49.5.49.5-.22.5-.49-.23-.51-.5-.51ZM304,255.49c-.28,0-.5.23-.5.51s.22.49.5.49.5-.22.5-.49-.23-.51-.5-.51ZM172,255.49c-.28,0-.5.23-.5.51s.22.49.5.49.5-.22.5-.49-.23-.51-.5-.51ZM136,255.49c-.28,0-.5.23-.5.51s.22.49.5.49.5-.22.5-.49-.23-.51-.5-.51ZM88,255.49c-.28,0-.5.23-.5.51s.22.49.5.49.5-.22.5-.49-.23-.51-.5-.51ZM292,255.49c-.28,0-.5.23-.5.51s.22.49.5.49.5-.22.5-.49-.23-.51-.5-.51ZM256,255.49c-.28,0-.5.23-.5.51s.22.49.5.49.5-.22.5-.49-.23-.51-.5-.51ZM219.99,255.49c-.27,0-.49.23-.49.51s.22.49.49.49.51-.22.51-.49-.23-.51-.51-.51ZM64,255.49c-.28,0-.5.23-.5.51s.22.49.5.49.5-.22.5-.49-.23-.51-.5-.51ZM184,255.49c-.28,0-.5.23-.5.51s.22.49.5.49.5-.22.5-.49-.23-.51-.5-.51ZM4.35,255.64c-.14-.14-.36-.18-.54-.11-.07.03-.12.07-.17.11-.04.05-.08.1-.11.16-.02.06-.03.13-.03.19,0,.14.05.26.14.36.1.09.22.14.36.14.06,0,.13,0,.19-.03.06-.03.11-.06.16-.11.1-.1.15-.22.15-.36,0-.06-.02-.13-.04-.19-.03-.06-.06-.11-.11-.16ZM340.19,279.53c-.19-.07-.41-.03-.55.11-.04.05-.08.1-.11.16-.02.07-.04.13-.04.2,0,.13.06.25.15.35.1.09.22.14.36.14.06,0,.13,0,.19-.03.06-.03.11-.06.16-.11.09-.1.15-.22.15-.35s-.06-.26-.15-.36c-.05-.04-.1-.08-.16-.11ZM148,279.51c-.28,0-.5.22-.5.5s.22.49.5.49.5-.22.5-.49-.23-.5-.5-.5ZM232,279.51c-.28,0-.5.22-.5.5s.22.49.5.49.5-.22.5-.49-.23-.5-.5-.5ZM124,279.51c-.28,0-.5.22-.5.5s.22.49.5.49.5-.22.5-.49-.23-.5-.5-.5ZM196,279.51c-.28,0-.5.22-.5.5s.22.49.5.49.5-.22.5-.49-.23-.5-.5-.5ZM16,279.51c-.28,0-.5.22-.5.5s.22.49.5.49.5-.22.5-.49-.23-.5-.5-.5ZM208,279.51c-.28,0-.5.22-.5.5s.22.49.5.49.5-.22.5-.49-.23-.5-.5-.5ZM244,279.51c-.28,0-.5.22-.5.5s.22.49.5.49.5-.22.5-.49-.23-.5-.5-.5ZM304,279.51c-.28,0-.5.22-.5.5s.22.49.5.49.5-.22.5-.49-.23-.5-.5-.5ZM172,279.51c-.28,0-.5.22-.5.5s.22.49.5.49.5-.22.5-.49-.23-.5-.5-.5ZM268,279.51c-.28,0-.5.22-.5.5s.22.49.5.49.5-.22.5-.49-.23-.5-.5-.5ZM88,279.51c-.28,0-.5.22-.5.5s.22.49.5.49.5-.22.5-.49-.23-.5-.5-.5ZM64,279.51c-.28,0-.5.22-.5.5s.22.49.5.49.5-.22.5-.49-.23-.5-.5-.5ZM100,279.51c-.28,0-.5.22-.5.5s.22.49.5.49.5-.22.5-.49-.23-.5-.5-.5ZM52,279.51c-.28,0-.5.22-.5.5s.22.49.5.49.5-.22.5-.49-.23-.5-.5-.5ZM40,279.51c-.28,0-.5.22-.5.5s.22.49.5.49.5-.22.5-.49-.23-.5-.5-.5ZM219.99,279.51c-.27,0-.49.22-.49.5s.22.49.49.49.51-.22.51-.49-.23-.5-.51-.5ZM76,279.51c-.28,0-.5.22-.5.5s.22.49.5.49.5-.22.5-.49-.23-.5-.5-.5ZM280,279.51c-.28,0-.5.22-.5.5s.22.49.5.49.5-.22.5-.49-.23-.5-.5-.5ZM136,279.51c-.28,0-.5.22-.5.5s.22.49.5.49.5-.22.5-.49-.23-.5-.5-.5ZM328,279.51c-.28,0-.5.22-.5.5s.22.49.5.49.5-.22.5-.49-.23-.5-.5-.5ZM112,279.51c-.28,0-.5.22-.5.5s.22.49.5.49.5-.22.5-.49-.23-.5-.5-.5ZM292,279.51c-.28,0-.5.22-.5.5s.22.49.5.49.5-.22.5-.49-.23-.5-.5-.5ZM256,279.51c-.28,0-.5.22-.5.5s.22.49.5.49.5-.22.5-.49-.23-.5-.5-.5ZM160,279.51c-.28,0-.5.22-.5.5s.22.49.5.49.5-.22.5-.49-.23-.5-.5-.5ZM184,279.51c-.28,0-.5.22-.5.5s.22.49.5.49.5-.22.5-.49-.23-.5-.5-.5ZM28,279.51c-.28,0-.5.22-.5.5s.22.49.5.49.5-.22.5-.49-.23-.5-.5-.5ZM316,279.51c-.28,0-.5.22-.5.5s.22.49.5.49.5-.22.5-.49-.23-.5-.5-.5ZM3.64,279.64c-.09.09-.14.22-.14.35,0,.07,0,.14.03.2.03.06.07.11.11.16.05.05.1.08.16.11.07.02.13.04.2.04.06,0,.13-.02.19-.04.06-.03.11-.06.16-.11.05-.05.08-.1.11-.16.02-.06.04-.13.04-.2,0-.13-.06-.26-.15-.35-.19-.19-.52-.18-.71,0ZM340.35,303.64s-.1-.08-.16-.11c-.13-.05-.26-.05-.39,0-.06.03-.11.07-.16.11-.04.05-.08.1-.11.16-.02.07-.04.13-.04.19,0,.14.06.27.15.36s.22.14.36.14c.13,0,.26-.05.35-.14s.15-.22.15-.36c0-.06-.02-.12-.04-.19-.03-.06-.07-.11-.11-.16ZM64,303.51c-.28,0-.5.22-.5.49s.22.5.5.5.5-.22.5-.5-.23-.49-.5-.49ZM88,303.51c-.28,0-.5.22-.5.49s.22.5.5.5.5-.22.5-.5-.23-.49-.5-.49ZM184,303.51c-.28,0-.5.22-.5.49s.22.5.5.5.5-.22.5-.5-.23-.49-.5-.49ZM76,303.51c-.28,0-.5.22-.5.49s.22.5.5.5.5-.22.5-.5-.23-.49-.5-.49ZM124,303.51c-.28,0-.5.22-.5.49s.22.5.5.5.5-.22.5-.5-.23-.49-.5-.49ZM112,303.51c-.28,0-.5.22-.5.49s.22.5.5.5.5-.22.5-.5-.23-.49-.5-.49ZM148,303.51c-.28,0-.5.22-.5.49s.22.5.5.5.5-.22.5-.5-.23-.49-.5-.49ZM136,303.51c-.28,0-.5.22-.5.49s.22.5.5.5.5-.22.5-.5-.23-.49-.5-.49ZM196,303.51c-.28,0-.5.22-.5.49s.22.5.5.5.5-.22.5-.5-.23-.49-.5-.49ZM160,303.51c-.28,0-.5.22-.5.49s.22.5.5.5.5-.22.5-.5-.23-.49-.5-.49ZM172,303.51c-.28,0-.5.22-.5.49s.22.5.5.5.5-.22.5-.5-.23-.49-.5-.49ZM280,303.51c-.28,0-.5.22-.5.49s.22.5.5.5.5-.22.5-.5-.23-.49-.5-.49ZM100,303.51c-.28,0-.5.22-.5.49s.22.5.5.5.5-.22.5-.5-.23-.49-.5-.49ZM268,303.51c-.28,0-.5.22-.5.49s.22.5.5.5.5-.22.5-.5-.23-.49-.5-.49ZM219.99,303.51c-.27,0-.49.22-.49.49s.22.5.49.5.51-.22.51-.5-.23-.49-.51-.49ZM28,303.51c-.28,0-.5.22-.5.49s.22.5.5.5.5-.22.5-.5-.23-.49-.5-.49ZM52,303.51c-.28,0-.5.22-.5.49s.22.5.5.5.5-.22.5-.5-.23-.49-.5-.49ZM16,303.51c-.28,0-.5.22-.5.49s.22.5.5.5.5-.22.5-.5-.23-.49-.5-.49ZM232,303.51c-.28,0-.5.22-.5.49s.22.5.5.5.5-.22.5-.5-.23-.49-.5-.49ZM208,303.51c-.28,0-.5.22-.5.49s.22.5.5.5.5-.22.5-.5-.23-.49-.5-.49ZM256,303.51c-.28,0-.5.22-.5.49s.22.5.5.5.5-.22.5-.5-.23-.49-.5-.49ZM244,303.51c-.28,0-.5.22-.5.49s.22.5.5.5.5-.22.5-.5-.23-.49-.5-.49ZM40,303.51c-.28,0-.5.22-.5.49s.22.5.5.5.5-.22.5-.5-.23-.49-.5-.49ZM328,303.51c-.28,0-.5.22-.5.49s.22.5.5.5.5-.22.5-.5-.23-.49-.5-.49ZM316,303.51c-.28,0-.5.22-.5.49s.22.5.5.5.5-.22.5-.5-.23-.49-.5-.49ZM304,303.51c-.28,0-.5.22-.5.49s.22.5.5.5.5-.22.5-.5-.23-.49-.5-.49ZM292,303.51c-.28,0-.5.22-.5.49s.22.5.5.5.5-.22.5-.5-.23-.49-.5-.49ZM3.64,303.64c-.09.09-.14.22-.14.36,0,.13.05.25.14.35.05.05.1.08.17.11.06.02.12.03.19.03.06,0,.13,0,.19-.03.06-.03.11-.06.16-.11.09-.1.15-.22.15-.35,0-.14-.06-.27-.15-.36-.19-.18-.52-.18-.71,0ZM340.19,327.53c-.13-.05-.26-.05-.39,0-.06.03-.11.07-.16.11-.04.05-.08.1-.11.16-.02.07-.04.13-.04.2,0,.13.06.25.15.35.1.09.22.15.36.15.06,0,.13-.02.19-.04.06-.03.11-.06.16-.11.09-.1.15-.22.15-.35s-.06-.26-.15-.36c-.05-.04-.1-.08-.16-.11ZM268,327.51c-.28,0-.5.22-.5.49s.22.5.5.5.5-.22.5-.5-.23-.49-.5-.49ZM88,327.51c-.28,0-.5.22-.5.49s.22.5.5.5.5-.22.5-.5-.23-.49-.5-.49ZM316,327.51c-.28,0-.5.22-.5.49s.22.5.5.5.5-.22.5-.5-.23-.49-.5-.49ZM219.99,327.51c-.27,0-.49.22-.49.49s.22.5.49.5.51-.22.51-.5-.23-.49-.51-.49ZM256,327.51c-.28,0-.5.22-.5.49s.22.5.5.5.5-.22.5-.5-.23-.49-.5-.49ZM184,327.51c-.28,0-.5.22-.5.49s.22.5.5.5.5-.22.5-.5-.23-.49-.5-.49ZM232,327.51c-.28,0-.5.22-.5.49s.22.5.5.5.5-.22.5-.5-.23-.49-.5-.49ZM76,327.51c-.28,0-.5.22-.5.49s.22.5.5.5.5-.22.5-.5-.23-.49-.5-.49ZM40,327.51c-.28,0-.5.22-.5.49s.22.5.5.5.5-.22.5-.5-.23-.49-.5-.49ZM160,327.51c-.28,0-.5.22-.5.49s.22.5.5.5.5-.22.5-.5-.23-.49-.5-.49ZM52,327.51c-.28,0-.5.22-.5.49s.22.5.5.5.5-.22.5-.5-.23-.49-.5-.49ZM136,327.51c-.28,0-.5.22-.5.49s.22.5.5.5.5-.22.5-.5-.23-.49-.5-.49ZM304,327.51c-.28,0-.5.22-.5.49s.22.5.5.5.5-.22.5-.5-.23-.49-.5-.49ZM328,327.51c-.28,0-.5.22-.5.49s.22.5.5.5.5-.22.5-.5-.23-.49-.5-.49ZM148,327.51c-.28,0-.5.22-.5.49s.22.5.5.5.5-.22.5-.5-.23-.49-.5-.49ZM64,327.51c-.28,0-.5.22-.5.49s.22.5.5.5.5-.22.5-.5-.23-.49-.5-.49ZM244,327.51c-.28,0-.5.22-.5.49s.22.5.5.5.5-.22.5-.5-.23-.49-.5-.49ZM196,327.51c-.28,0-.5.22-.5.49s.22.5.5.5.5-.22.5-.5-.23-.49-.5-.49ZM112,327.51c-.28,0-.5.22-.5.49s.22.5.5.5.5-.22.5-.5-.23-.49-.5-.49ZM28,327.51c-.28,0-.5.22-.5.49s.22.5.5.5.5-.22.5-.5-.23-.49-.5-.49ZM292,327.51c-.28,0-.5.22-.5.49s.22.5.5.5.5-.22.5-.5-.23-.49-.5-.49ZM208,327.51c-.28,0-.5.22-.5.49s.22.5.5.5.5-.22.5-.5-.23-.49-.5-.49ZM280,327.51c-.28,0-.5.22-.5.49s.22.5.5.5.5-.22.5-.5-.23-.49-.5-.49ZM100,327.51c-.28,0-.5.22-.5.49s.22.5.5.5.5-.22.5-.5-.23-.49-.5-.49ZM172,327.51c-.28,0-.5.22-.5.49s.22.5.5.5.5-.22.5-.5-.23-.49-.5-.49ZM124,327.51c-.28,0-.5.22-.5.49s.22.5.5.5.5-.22.5-.5-.23-.49-.5-.49ZM16,327.51c-.28,0-.5.22-.5.49s.22.5.5.5.5-.22.5-.5-.23-.49-.5-.49ZM4.35,327.64c-.05-.04-.1-.08-.16-.11-.12-.05-.26-.05-.39,0-.06.03-.11.07-.16.11-.04.05-.08.1-.1.16-.03.07-.04.13-.04.2,0,.13.05.26.14.35.1.09.22.15.36.15.13,0,.26-.06.35-.15.09-.09.15-.22.15-.35,0-.07-.02-.13-.04-.2-.03-.06-.06-.11-.11-.16ZM340.19,351.53c-.19-.07-.41-.03-.55.11-.09.1-.15.22-.15.35,0,.14.06.27.15.36.1.09.22.14.36.14.06,0,.13,0,.19-.03.06-.03.11-.07.16-.11.09-.09.15-.22.15-.36,0-.12-.06-.25-.15-.35-.05-.04-.1-.08-.16-.11ZM304,351.51c-.28,0-.5.22-.5.49s.22.51.5.51.5-.23.5-.51-.23-.49-.5-.49ZM172,351.51c-.28,0-.5.22-.5.49s.22.51.5.51.5-.23.5-.51-.23-.49-.5-.49ZM88,351.51c-.28,0-.5.22-.5.49s.22.51.5.51.5-.23.5-.51-.23-.49-.5-.49ZM244,351.51c-.28,0-.5.22-.5.49s.22.51.5.51.5-.23.5-.51-.23-.49-.5-.49ZM328,351.51c-.28,0-.5.22-.5.49s.22.51.5.51.5-.23.5-.51-.23-.49-.5-.49ZM28,351.51c-.28,0-.5.22-.5.49s.22.51.5.51.5-.23.5-.51-.23-.49-.5-.49ZM40,351.51c-.28,0-.5.22-.5.49s.22.51.5.51.5-.23.5-.51-.23-.49-.5-.49ZM316,351.51c-.28,0-.5.22-.5.49s.22.51.5.51.5-.23.5-.51-.23-.49-.5-.49ZM280,351.51c-.28,0-.5.22-.5.49s.22.51.5.51.5-.23.5-.51-.23-.49-.5-.49ZM16,351.51c-.28,0-.5.22-.5.49s.22.51.5.51.5-.23.5-.51-.23-.49-.5-.49ZM148,351.51c-.28,0-.5.22-.5.49s.22.51.5.51.5-.23.5-.51-.23-.49-.5-.49ZM292,351.51c-.28,0-.5.22-.5.49s.22.51.5.51.5-.23.5-.51-.23-.49-.5-.49ZM124,351.51c-.28,0-.5.22-.5.49s.22.51.5.51.5-.23.5-.51-.23-.49-.5-.49ZM76,351.51c-.28,0-.5.22-.5.49s.22.51.5.51.5-.23.5-.51-.23-.49-.5-.49ZM136,351.51c-.28,0-.5.22-.5.49s.22.51.5.51.5-.23.5-.51-.23-.49-.5-.49ZM256,351.51c-.28,0-.5.22-.5.49s.22.51.5.51.5-.23.5-.51-.23-.49-.5-.49ZM268,351.51c-.28,0-.5.22-.5.49s.22.51.5.51.5-.23.5-.51-.23-.49-.5-.49ZM160,351.51c-.28,0-.5.22-.5.49s.22.51.5.51.5-.23.5-.51-.23-.49-.5-.49ZM112,351.51c-.28,0-.5.22-.5.49s.22.51.5.51.5-.23.5-.51-.23-.49-.5-.49ZM184,351.51c-.28,0-.5.22-.5.49s.22.51.5.51.5-.23.5-.51-.23-.49-.5-.49ZM52,351.51c-.28,0-.5.22-.5.49s.22.51.5.51.5-.23.5-.51-.23-.49-.5-.49ZM100,351.51c-.28,0-.5.22-.5.49s.22.51.5.51.5-.23.5-.51-.23-.49-.5-.49ZM64,351.51c-.28,0-.5.22-.5.49s.22.51.5.51.5-.23.5-.51-.23-.49-.5-.49ZM208,351.51c-.28,0-.5.22-.5.49s.22.51.5.51.5-.23.5-.51-.23-.49-.5-.49ZM219.99,351.51c-.27,0-.49.22-.49.49s.22.51.49.51.51-.23.51-.51-.23-.49-.51-.49ZM232,351.51c-.28,0-.5.22-.5.49s.22.51.5.51.5-.23.5-.51-.23-.49-.5-.49ZM196,351.51c-.28,0-.5.22-.5.49s.22.51.5.51.5-.23.5-.51-.23-.49-.5-.49ZM3.64,351.64s-.08.1-.1.16c-.03.07-.04.13-.04.19,0,.14.05.27.14.36.05.05.11.08.17.11.06.02.12.03.19.03.13,0,.26-.05.35-.14.1-.1.15-.22.15-.36,0-.12-.06-.25-.15-.35-.19-.19-.52-.19-.71,0ZM340.35,375.64c-.14-.14-.36-.18-.55-.11-.06.03-.11.07-.16.11-.04.05-.08.1-.11.16-.02.07-.03.13-.03.2,0,.13.05.25.14.35.05.05.1.08.16.11.06.02.13.03.2.03.13,0,.26-.05.35-.14.05-.05.08-.1.11-.16.02-.06.04-.13.04-.19,0-.07-.02-.13-.04-.2-.03-.06-.06-.11-.11-.16ZM40,375.49c-.28,0-.5.23-.5.5s.22.51.5.51.5-.23.5-.51-.23-.5-.5-.5ZM196,375.49c-.28,0-.5.23-.5.5s.22.51.5.51.5-.23.5-.51-.23-.5-.5-.5ZM148,375.49c-.28,0-.5.23-.5.5s.22.51.5.51.5-.23.5-.51-.23-.5-.5-.5ZM76,375.49c-.28,0-.5.23-.5.5s.22.51.5.51.5-.23.5-.51-.23-.5-.5-.5ZM328,375.49c-.28,0-.5.23-.5.5s.22.51.5.51.5-.23.5-.51-.23-.5-.5-.5ZM100,375.49c-.28,0-.5.23-.5.5s.22.51.5.51.5-.23.5-.51-.23-.5-.5-.5ZM184,376.51c.27,0,.49-.23.49-.51s-.22-.5-.49-.5-.5.23-.5.5.22.51.5.51ZM292,376.51c.27,0,.49-.23.49-.51s-.22-.5-.49-.5-.5.23-.5.5.22.51.5.51ZM88,375.49c-.28,0-.5.23-.5.5s.22.51.5.51.5-.23.5-.51-.23-.5-.5-.5ZM256,375.49c-.28,0-.5.23-.5.5s.22.51.5.51.5-.23.5-.51-.23-.5-.5-.5ZM220,375.49c-.28,0-.5.23-.5.5s.22.51.5.51.5-.23.5-.51-.23-.5-.5-.5ZM16,375.49c-.28,0-.5.23-.5.5s.22.51.5.51.5-.23.5-.51-.23-.5-.5-.5ZM124,375.49c-.28,0-.5.23-.5.5s.22.51.5.51.5-.23.5-.51-.23-.5-.5-.5ZM268,375.49c-.28,0-.5.23-.5.5s.22.51.5.51.5-.23.5-.51-.23-.5-.5-.5ZM112,375.49c-.28,0-.5.23-.5.5s.22.51.5.51.5-.23.5-.51-.23-.5-.5-.5ZM52,375.49c-.28,0-.5.23-.5.5s.22.51.5.51.5-.23.5-.51-.23-.5-.5-.5ZM208,375.49c-.28,0-.5.23-.5.5s.22.51.5.51.5-.23.5-.51-.23-.5-.5-.5ZM160,375.49c-.28,0-.5.23-.5.5s.22.51.5.51.5-.23.5-.51-.23-.5-.5-.5ZM280,375.49c-.28,0-.5.23-.5.5s.22.51.5.51.5-.23.5-.51-.23-.5-.5-.5ZM316,375.49c-.28,0-.5.23-.5.5s.22.51.5.51.5-.23.5-.51-.23-.5-.5-.5ZM304,375.49c-.28,0-.5.23-.5.5s.22.51.5.51.5-.23.5-.51-.23-.5-.5-.5ZM172,375.49c-.28,0-.5.23-.5.5s.22.51.5.51.5-.23.5-.51-.23-.5-.5-.5ZM244,375.49c-.28,0-.5.23-.5.5s.22.51.5.51.5-.23.5-.51-.23-.5-.5-.5ZM136,375.49c-.28,0-.5.23-.5.5s.22.51.5.51.5-.23.5-.51-.23-.5-.5-.5ZM64,375.49c-.28,0-.5.23-.5.5s.22.51.5.51.5-.23.5-.51-.23-.5-.5-.5ZM232,375.49c-.28,0-.5.23-.5.5s.22.51.5.51.5-.23.5-.51-.23-.5-.5-.5ZM28,375.49c-.28,0-.5.23-.5.5s.22.51.5.51.5-.23.5-.51-.23-.5-.5-.5ZM4.19,375.53c-.12-.05-.26-.05-.38,0-.07.03-.12.07-.17.11-.04.05-.08.1-.1.16-.03.07-.04.13-.04.2,0,.13.05.25.14.35.1.09.22.14.36.14.13,0,.26-.05.35-.14.1-.1.15-.22.15-.35s-.06-.26-.15-.36c-.04-.04-.1-.08-.16-.11ZM340.19,51.54c-.19-.07-.41-.03-.55.11-.04.05-.08.1-.11.16-.02.07-.04.13-.04.2,0,.06.02.13.04.19.03.06.07.11.11.16.05.04.1.08.16.11.07.02.13.04.2.04.06,0,.13-.02.19-.04.06-.03.11-.07.16-.11.04-.05.08-.1.11-.16.02-.06.04-.13.04-.19,0-.13-.06-.26-.15-.36-.05-.04-.1-.08-.16-.11ZM148,51.5c-.28,0-.5.22-.5.49s.22.51.5.51.5-.23.5-.51-.23-.49-.5-.49ZM16,51.5c-.28,0-.5.22-.5.49s.22.51.5.51.5-.23.5-.51-.23-.49-.5-.49ZM256,51.5c-.28,0-.5.22-.5.49s.22.51.5.51.5-.23.5-.51-.23-.49-.5-.49ZM184,51.5c-.28,0-.5.22-.5.49s.22.51.5.51.5-.23.5-.51-.23-.49-.5-.49ZM304,51.5c-.28,0-.5.22-.5.49s.22.51.5.51.5-.23.5-.51-.23-.49-.5-.49ZM232,51.5c-.28,0-.5.22-.5.49s.22.51.5.51.5-.23.5-.51-.23-.49-.5-.49ZM136,51.5c-.28,0-.5.22-.5.49s.22.51.5.51.5-.23.5-.51-.23-.49-.5-.49ZM112,51.5c-.28,0-.5.22-.5.49s.22.51.5.51.5-.23.5-.51-.23-.49-.5-.49ZM268,51.5c-.28,0-.5.22-.5.49s.22.51.5.51.5-.23.5-.51-.23-.49-.5-.49ZM76,51.5c-.28,0-.5.22-.5.49s.22.51.5.51.5-.23.5-.51-.23-.49-.5-.49ZM124,51.5c-.28,0-.5.22-.5.49s.22.51.5.51.5-.23.5-.51-.23-.49-.5-.49ZM292,51.5c-.28,0-.5.22-.5.49s.22.51.5.51.5-.23.5-.51-.23-.49-.5-.49ZM28,51.5c-.28,0-.5.22-.5.49s.22.51.5.51.5-.23.5-.51-.23-.49-.5-.49ZM328,51.5c-.28,0-.5.22-.5.49s.22.51.5.51.5-.23.5-.51-.23-.49-.5-.49ZM280,51.5c-.28,0-.5.22-.5.49s.22.51.5.51.5-.23.5-.51-.23-.49-.5-.49ZM40,51.5c-.28,0-.5.22-.5.49s.22.51.5.51.5-.23.5-.51-.23-.49-.5-.49ZM172,51.5c-.28,0-.5.22-.5.49s.22.51.5.51.5-.23.5-.51-.23-.49-.5-.49ZM160,51.5c-.28,0-.5.22-.5.49s.22.51.5.51.5-.23.5-.51-.23-.49-.5-.49ZM219.99,51.5c-.27,0-.49.22-.49.49s.22.51.49.51.51-.23.51-.51-.23-.49-.51-.49ZM196,51.5c-.28,0-.5.22-.5.49s.22.51.5.51.5-.23.5-.51-.23-.49-.5-.49ZM316,51.5c-.28,0-.5.22-.5.49s.22.51.5.51.5-.23.5-.51-.23-.49-.5-.49ZM208,51.5c-.28,0-.5.22-.5.49s.22.51.5.51.5-.23.5-.51-.23-.49-.5-.49ZM88,51.5c-.28,0-.5.22-.5.49s.22.51.5.51.5-.23.5-.51-.23-.49-.5-.49ZM52,51.5c-.28,0-.5.22-.5.49s.22.51.5.51.5-.23.5-.51-.23-.49-.5-.49ZM64,51.5c-.28,0-.5.22-.5.49s.22.51.5.51.5-.23.5-.51-.23-.49-.5-.49ZM100,51.5c-.28,0-.5.22-.5.49s.22.51.5.51.5-.23.5-.51-.23-.49-.5-.49ZM244,51.5c-.28,0-.5.22-.5.49s.22.51.5.51.5-.23.5-.51-.23-.49-.5-.49ZM4.35,51.64c-.19-.19-.52-.19-.71,0-.04.05-.08.1-.1.16-.03.06-.04.13-.04.2,0,.13.05.26.14.35.09.09.22.14.36.14.13,0,.26-.05.35-.14.09-.09.15-.22.15-.35,0-.07-.02-.14-.04-.2-.03-.06-.06-.11-.11-.16ZM339.64,75.64c-.09.09-.15.22-.15.35,0,.14.06.26.15.36.09.09.22.14.36.14.06,0,.13-.01.19-.03.06-.03.11-.07.16-.11.09-.1.15-.23.15-.36s-.06-.25-.15-.35c-.18-.19-.53-.18-.71,0ZM76,75.49c-.28,0-.5.23-.5.5s.22.51.5.51.5-.23.5-.51-.23-.5-.5-.5ZM136,75.49c-.28,0-.5.23-.5.5s.22.51.5.51.5-.23.5-.51-.23-.5-.5-.5ZM268,75.49c-.28,0-.5.23-.5.5s.22.51.5.51.5-.23.5-.51-.23-.5-.5-.5ZM208,75.49c-.28,0-.5.23-.5.5s.22.51.5.51.5-.23.5-.51-.23-.5-.5-.5ZM280,75.49c-.28,0-.5.23-.5.5s.22.51.5.51.5-.23.5-.51-.23-.5-.5-.5ZM184,75.49c-.28,0-.5.23-.5.5s.22.51.5.51.5-.23.5-.51-.23-.5-.5-.5ZM304,75.49c-.28,0-.5.23-.5.5s.22.51.5.51.5-.23.5-.51-.23-.5-.5-.5ZM292,75.49c-.28,0-.5.23-.5.5s.22.51.5.51.5-.23.5-.51-.23-.5-.5-.5ZM196,75.49c-.28,0-.5.23-.5.5s.22.51.5.51.5-.23.5-.51-.23-.5-.5-.5ZM160,75.49c-.28,0-.5.23-.5.5s.22.51.5.51.5-.23.5-.51-.23-.5-.5-.5ZM100,75.49c-.28,0-.5.23-.5.5s.22.51.5.51.5-.23.5-.51-.23-.5-.5-.5ZM124,75.49c-.28,0-.5.23-.5.5s.22.51.5.51.5-.23.5-.51-.23-.5-.5-.5ZM219.99,75.49c-.27,0-.49.23-.49.5s.22.51.49.51.51-.23.51-.51-.23-.5-.51-.5ZM244,75.49c-.28,0-.5.23-.5.5s.22.51.5.51.5-.23.5-.51-.23-.5-.5-.5ZM232,75.49c-.28,0-.5.23-.5.5s.22.51.5.51.5-.23.5-.51-.23-.5-.5-.5ZM88,75.49c-.28,0-.5.23-.5.5s.22.51.5.51.5-.23.5-.51-.23-.5-.5-.5ZM64,75.49c-.28,0-.5.23-.5.5s.22.51.5.51.5-.23.5-.51-.23-.5-.5-.5ZM172,75.49c-.28,0-.5.23-.5.5s.22.51.5.51.5-.23.5-.51-.23-.5-.5-.5ZM40,75.49c-.28,0-.5.23-.5.5s.22.51.5.51.5-.23.5-.51-.23-.5-.5-.5ZM16,75.49c-.28,0-.5.23-.5.5s.22.51.5.51.5-.23.5-.51-.23-.5-.5-.5ZM112,75.49c-.28,0-.5.23-.5.5s.22.51.5.51.5-.23.5-.51-.23-.5-.5-.5ZM256,75.49c-.28,0-.5.23-.5.5s.22.51.5.51.5-.23.5-.51-.23-.5-.5-.5ZM28,75.49c-.28,0-.5.23-.5.5s.22.51.5.51.5-.23.5-.51-.23-.5-.5-.5ZM328,75.49c-.28,0-.5.23-.5.5s.22.51.5.51.5-.23.5-.51-.23-.5-.5-.5ZM148,75.49c-.28,0-.5.23-.5.5s.22.51.5.51.5-.23.5-.51-.23-.5-.5-.5ZM52,75.49c-.28,0-.5.23-.5.5s.22.51.5.51.5-.23.5-.51-.23-.5-.5-.5ZM316,75.49c-.28,0-.5.23-.5.5s.22.51.5.51.5-.23.5-.51-.23-.5-.5-.5ZM4.35,75.64c-.14-.14-.36-.18-.54-.11-.07.03-.12.07-.17.11-.04.05-.08.1-.1.16-.03.06-.04.13-.04.2,0,.13.05.26.14.35.05.05.1.08.17.11.06.02.12.03.19.03.13,0,.26-.05.35-.14.09-.09.15-.22.15-.35,0-.07-.02-.14-.04-.2-.03-.06-.06-.11-.11-.16ZM340.19,99.54c-.19-.07-.41-.03-.55.11-.04.05-.08.1-.11.16-.02.07-.04.13-.04.2,0,.12.06.25.15.35.05.04.1.08.16.11.07.02.13.04.2.04.06,0,.13-.02.19-.04.06-.03.11-.07.16-.11.09-.1.15-.23.15-.35,0-.13-.06-.26-.15-.36-.05-.04-.1-.08-.16-.11ZM52,99.49c-.28,0-.5.23-.5.5s.22.51.5.51.5-.23.5-.51-.23-.5-.5-.5ZM124,99.49c-.28,0-.5.23-.5.5s.22.51.5.51.5-.23.5-.51-.23-.5-.5-.5ZM196,99.49c-.28,0-.5.23-.5.5s.22.51.5.51.5-.23.5-.51-.23-.5-.5-.5ZM292,99.49c-.28,0-.5.23-.5.5s.22.51.5.51.5-.23.5-.51-.23-.5-.5-.5ZM304,99.49c-.28,0-.5.23-.5.5s.22.51.5.51.5-.23.5-.51-.23-.5-.5-.5ZM16,99.49c-.28,0-.5.23-.5.5s.22.51.5.51.5-.23.5-.51-.23-.5-.5-.5ZM28,99.49c-.28,0-.5.23-.5.5s.22.51.5.51.5-.23.5-.51-.23-.5-.5-.5ZM244,99.49c-.28,0-.5.23-.5.5s.22.51.5.51.5-.23.5-.51-.23-.5-.5-.5ZM160,99.49c-.28,0-.5.23-.5.5s.22.51.5.51.5-.23.5-.51-.23-.5-.5-.5ZM256,99.49c-.28,0-.5.23-.5.5s.22.51.5.51.5-.23.5-.51-.23-.5-.5-.5ZM88,99.49c-.28,0-.5.23-.5.5s.22.51.5.51.5-.23.5-.51-.23-.5-.5-.5ZM100,99.49c-.28,0-.5.23-.5.5s.22.51.5.51.5-.23.5-.51-.23-.5-.5-.5ZM219.99,99.49c-.27,0-.49.23-.49.5s.22.51.49.51.51-.23.51-.51-.23-.5-.51-.5ZM172,99.49c-.28,0-.5.23-.5.5s.22.51.5.51.5-.23.5-.51-.23-.5-.5-.5ZM40,99.49c-.28,0-.5.23-.5.5s.22.51.5.51.5-.23.5-.51-.23-.5-.5-.5ZM328,99.49c-.28,0-.5.23-.5.5s.22.51.5.51.5-.23.5-.51-.23-.5-.5-.5ZM64,99.49c-.28,0-.5.23-.5.5s.22.51.5.51.5-.23.5-.51-.23-.5-.5-.5ZM232,99.49c-.28,0-.5.23-.5.5s.22.51.5.51.5-.23.5-.51-.23-.5-.5-.5ZM208,99.49c-.28,0-.5.23-.5.5s.22.51.5.51.5-.23.5-.51-.23-.5-.5-.5ZM268,99.49c-.28,0-.5.23-.5.5s.22.51.5.51.5-.23.5-.51-.23-.5-.5-.5ZM136,99.49c-.28,0-.5.23-.5.5s.22.51.5.51.5-.23.5-.51-.23-.5-.5-.5ZM76,99.49c-.28,0-.5.23-.5.5s.22.51.5.51.5-.23.5-.51-.23-.5-.5-.5ZM148,99.49c-.28,0-.5.23-.5.5s.22.51.5.51.5-.23.5-.51-.23-.5-.5-.5ZM280,99.49c-.28,0-.5.23-.5.5s.22.51.5.51.5-.23.5-.51-.23-.5-.5-.5ZM316,99.49c-.28,0-.5.23-.5.5s.22.51.5.51.5-.23.5-.51-.23-.5-.5-.5ZM112,99.49c-.28,0-.5.23-.5.5s.22.51.5.51.5-.23.5-.51-.23-.5-.5-.5ZM184,99.49c-.28,0-.5.23-.5.5s.22.51.5.51.5-.23.5-.51-.23-.5-.5-.5ZM4.35,99.64c-.19-.19-.52-.19-.71,0-.04.05-.08.1-.1.16-.03.06-.04.13-.04.19,0,.07,0,.13.04.2.02.06.06.11.1.16.05.04.1.08.17.11.06.02.12.03.19.03.06,0,.13-.01.19-.03.06-.03.11-.07.16-.11.09-.1.15-.22.15-.36,0-.06-.02-.13-.04-.19-.03-.06-.06-.11-.11-.16ZM340.19,123.54c-.19-.07-.41-.03-.55.11-.09.09-.15.22-.15.35,0,.14.06.27.15.36s.22.14.36.14c.06,0,.13-.01.19-.03.06-.03.11-.07.16-.11.09-.1.15-.22.15-.36,0-.13-.06-.25-.15-.35-.05-.04-.1-.08-.16-.11ZM328,123.49c-.28,0-.5.23-.5.51s.22.5.5.5.5-.23.5-.5-.23-.51-.5-.51ZM112,123.49c-.28,0-.5.23-.5.51s.22.5.5.5.5-.23.5-.5-.23-.51-.5-.51ZM316,123.49c-.28,0-.5.23-.5.51s.22.5.5.5.5-.23.5-.5-.23-.51-.5-.51ZM124,123.49c-.28,0-.5.23-.5.51s.22.5.5.5.5-.23.5-.5-.23-.51-.5-.51ZM88,123.49c-.28,0-.5.23-.5.51s.22.5.5.5.5-.23.5-.5-.23-.51-.5-.51ZM304,123.49c-.28,0-.5.23-.5.51s.22.5.5.5.5-.23.5-.5-.23-.51-.5-.51ZM100,123.49c-.28,0-.5.23-.5.51s.22.5.5.5.5-.23.5-.5-.23-.51-.5-.51ZM136,123.49c-.28,0-.5.23-.5.51s.22.5.5.5.5-.23.5-.5-.23-.51-.5-.51ZM148,123.49c-.28,0-.5.23-.5.51s.22.5.5.5.5-.23.5-.5-.23-.51-.5-.51ZM256,123.49c-.28,0-.5.23-.5.51s.22.5.5.5.5-.23.5-.5-.23-.51-.5-.51ZM184,123.49c-.28,0-.5.23-.5.51s.22.5.5.5.5-.23.5-.5-.23-.51-.5-.51ZM28,123.49c-.28,0-.5.23-.5.51s.22.5.5.5.5-.23.5-.5-.23-.51-.5-.51ZM208,123.49c-.28,0-.5.23-.5.51s.22.5.5.5.5-.23.5-.5-.23-.51-.5-.51ZM76,123.49c-.28,0-.5.23-.5.51s.22.5.5.5.5-.23.5-.5-.23-.51-.5-.51ZM268,123.49c-.28,0-.5.23-.5.51s.22.5.5.5.5-.23.5-.5-.23-.51-.5-.51ZM160,123.49c-.28,0-.5.23-.5.51s.22.5.5.5.5-.23.5-.5-.23-.51-.5-.51ZM64,123.49c-.28,0-.5.23-.5.51s.22.5.5.5.5-.23.5-.5-.23-.51-.5-.51ZM232,123.49c-.28,0-.5.23-.5.51s.22.5.5.5.5-.23.5-.5-.23-.51-.5-.51ZM172,123.49c-.28,0-.5.23-.5.51s.22.5.5.5.5-.23.5-.5-.23-.51-.5-.51ZM280,123.49c-.28,0-.5.23-.5.51s.22.5.5.5.5-.23.5-.5-.23-.51-.5-.51ZM219.99,123.49c-.27,0-.49.23-.49.51s.22.5.49.5.51-.23.51-.5-.23-.51-.51-.51ZM40,123.49c-.28,0-.5.23-.5.51s.22.5.5.5.5-.23.5-.5-.23-.51-.5-.51ZM244,123.49c-.28,0-.5.23-.5.51s.22.5.5.5.5-.23.5-.5-.23-.51-.5-.51ZM292,123.49c-.28,0-.5.23-.5.51s.22.5.5.5.5-.23.5-.5-.23-.51-.5-.51ZM196,123.49c-.28,0-.5.23-.5.51s.22.5.5.5.5-.23.5-.5-.23-.51-.5-.51ZM52,123.49c-.28,0-.5.23-.5.51s.22.5.5.5.5-.23.5-.5-.23-.51-.5-.51ZM16,123.49c-.28,0-.5.23-.5.51s.22.5.5.5.5-.23.5-.5-.23-.51-.5-.51ZM4.19,123.54c-.12-.05-.26-.05-.38,0-.07.03-.12.07-.17.11-.09.09-.14.22-.14.35,0,.07,0,.14.04.2.02.06.06.11.1.16.1.09.23.15.36.15.06,0,.13-.02.19-.04.06-.03.11-.07.16-.11.05-.05.08-.1.11-.16.02-.06.04-.13.04-.2,0-.13-.06-.26-.15-.35-.05-.04-.1-.08-.16-.11ZM340.19,147.54c-.13-.05-.26-.05-.39,0-.06.03-.11.07-.16.11-.09.1-.15.23-.15.36s.06.25.15.35c.05.04.1.08.16.11.07.02.13.04.2.04.06,0,.13-.02.19-.04.06-.03.11-.07.16-.11.09-.1.15-.23.15-.35,0-.13-.06-.26-.15-.36-.05-.04-.1-.08-.16-.11ZM172,147.49c-.28,0-.5.23-.5.51s.22.5.5.5.5-.23.5-.5-.23-.51-.5-.51ZM160,147.49c-.28,0-.5.23-.5.51s.22.5.5.5.5-.23.5-.5-.23-.51-.5-.51ZM124,147.49c-.28,0-.5.23-.5.51s.22.5.5.5.5-.23.5-.5-.23-.51-.5-.51ZM256,147.49c-.28,0-.5.23-.5.51s.22.5.5.5.5-.23.5-.5-.23-.51-.5-.51ZM328,147.49c-.28,0-.5.23-.5.51s.22.5.5.5.5-.23.5-.5-.23-.51-.5-.51ZM219.99,147.49c-.27,0-.49.23-.49.51s.22.5.49.5.51-.23.51-.5-.23-.51-.51-.51ZM112,147.49c-.28,0-.5.23-.5.51s.22.5.5.5.5-.23.5-.5-.23-.51-.5-.51ZM292,147.49c-.28,0-.5.23-.5.51s.22.5.5.5.5-.23.5-.5-.23-.51-.5-.51ZM232,147.49c-.28,0-.5.23-.5.51s.22.5.5.5.5-.23.5-.5-.23-.51-.5-.51ZM40,147.49c-.28,0-.5.23-.5.51s.22.5.5.5.5-.23.5-.5-.23-.51-.5-.51ZM16,147.49c-.28,0-.5.23-.5.51s.22.5.5.5.5-.23.5-.5-.23-.51-.5-.51ZM64,147.49c-.28,0-.5.23-.5.51s.22.5.5.5.5-.23.5-.5-.23-.51-.5-.51ZM244,147.49c-.28,0-.5.23-.5.51s.22.5.5.5.5-.23.5-.5-.23-.51-.5-.51ZM28,147.49c-.28,0-.5.23-.5.51s.22.5.5.5.5-.23.5-.5-.23-.51-.5-.51ZM148,147.49c-.28,0-.5.23-.5.51s.22.5.5.5.5-.23.5-.5-.23-.51-.5-.51ZM88,147.49c-.28,0-.5.23-.5.51s.22.5.5.5.5-.23.5-.5-.23-.51-.5-.51ZM100,147.49c-.28,0-.5.23-.5.51s.22.5.5.5.5-.23.5-.5-.23-.51-.5-.51ZM76,147.49c-.28,0-.5.23-.5.51s.22.5.5.5.5-.23.5-.5-.23-.51-.5-.51ZM208,147.49c-.28,0-.5.23-.5.51s.22.5.5.5.5-.23.5-.5-.23-.51-.5-.51ZM136,147.49c-.28,0-.5.23-.5.51s.22.5.5.5.5-.23.5-.5-.23-.51-.5-.51ZM268,147.49c-.28,0-.5.23-.5.51s.22.5.5.5.5-.23.5-.5-.23-.51-.5-.51ZM316,147.49c-.28,0-.5.23-.5.51s.22.5.5.5.5-.23.5-.5-.23-.51-.5-.51ZM280,147.49c-.28,0-.5.23-.5.51s.22.5.5.5.5-.23.5-.5-.23-.51-.5-.51ZM304,147.49c-.28,0-.5.23-.5.51s.22.5.5.5.5-.23.5-.5-.23-.51-.5-.51ZM52,147.49c-.28,0-.5.23-.5.51s.22.5.5.5.5-.23.5-.5-.23-.51-.5-.51ZM184,147.49c-.28,0-.5.23-.5.51s.22.5.5.5.5-.23.5-.5-.23-.51-.5-.51ZM196,147.49c-.28,0-.5.23-.5.51s.22.5.5.5.5-.23.5-.5-.23-.51-.5-.51ZM3.64,147.64c-.09.09-.14.22-.14.36,0,.13.05.26.14.35.1.09.22.14.36.14.13,0,.26-.05.35-.14.09-.09.15-.22.15-.35,0-.14-.06-.27-.15-.36-.18-.18-.52-.19-.71,0ZM340.19,171.54c-.19-.07-.41-.03-.55.11-.09.09-.15.22-.15.35,0,.14.06.27.15.36s.22.14.36.14c.06,0,.13-.01.19-.03.06-.03.11-.07.16-.11.09-.1.15-.22.15-.36,0-.13-.06-.25-.15-.35-.05-.04-.1-.08-.16-.11ZM232,171.49c-.28,0-.5.23-.5.51s.22.49.5.49.5-.22.5-.49-.23-.51-.5-.51ZM208,171.49c-.28,0-.5.23-.5.51s.22.49.5.49.5-.22.5-.49-.23-.51-.5-.51ZM196,171.49c-.28,0-.5.23-.5.51s.22.49.5.49.5-.22.5-.49-.23-.51-.5-.51ZM100,171.49c-.28,0-.5.23-.5.51s.22.49.5.49.5-.22.5-.49-.23-.51-.5-.51ZM219.99,171.49c-.27,0-.49.23-.49.51s.22.49.49.49.51-.22.51-.49-.23-.51-.51-.51ZM184,171.49c-.28,0-.5.23-.5.51s.22.49.5.49.5-.22.5-.49-.23-.51-.5-.51ZM64,171.49c-.28,0-.5.23-.5.51s.22.49.5.49.5-.22.5-.49-.23-.51-.5-.51ZM52,171.49c-.28,0-.5.23-.5.51s.22.49.5.49.5-.22.5-.49-.23-.51-.5-.51ZM268,171.49c-.28,0-.5.23-.5.51s.22.49.5.49.5-.22.5-.49-.23-.51-.5-.51ZM76,171.49c-.28,0-.5.23-.5.51s.22.49.5.49.5-.22.5-.49-.23-.51-.5-.51ZM148,171.49c-.28,0-.5.23-.5.51s.22.49.5.49.5-.22.5-.49-.23-.51-.5-.51ZM88,171.49c-.28,0-.5.23-.5.51s.22.49.5.49.5-.22.5-.49-.23-.51-.5-.51ZM316,171.49c-.28,0-.5.23-.5.51s.22.49.5.49.5-.22.5-.49-.23-.51-.5-.51ZM16,171.49c-.28,0-.5.23-.5.51s.22.49.5.49.5-.22.5-.49-.23-.51-.5-.51ZM304,171.49c-.28,0-.5.23-.5.51s.22.49.5.49.5-.22.5-.49-.23-.51-.5-.51ZM280,171.49c-.28,0-.5.23-.5.51s.22.49.5.49.5-.22.5-.49-.23-.51-.5-.51ZM124,171.49c-.28,0-.5.23-.5.51s.22.49.5.49.5-.22.5-.49-.23-.51-.5-.51ZM292,171.49c-.28,0-.5.23-.5.51s.22.49.5.49.5-.22.5-.49-.23-.51-.5-.51ZM28,171.49c-.28,0-.5.23-.5.51s.22.49.5.49.5-.22.5-.49-.23-.51-.5-.51ZM136,171.49c-.28,0-.5.23-.5.51s.22.49.5.49.5-.22.5-.49-.23-.51-.5-.51ZM40,171.49c-.28,0-.5.23-.5.51s.22.49.5.49.5-.22.5-.49-.23-.51-.5-.51ZM112,171.49c-.28,0-.5.23-.5.51s.22.49.5.49.5-.22.5-.49-.23-.51-.5-.51ZM160,171.49c-.28,0-.5.23-.5.51s.22.49.5.49.5-.22.5-.49-.23-.51-.5-.51ZM172,171.49c-.28,0-.5.23-.5.51s.22.49.5.49.5-.22.5-.49-.23-.51-.5-.51ZM244,171.49c-.28,0-.5.23-.5.51s.22.49.5.49.5-.22.5-.49-.23-.51-.5-.51ZM328,171.49c-.28,0-.5.23-.5.51s.22.49.5.49.5-.22.5-.49-.23-.51-.5-.51ZM256,171.49c-.28,0-.5.23-.5.51s.22.49.5.49.5-.22.5-.49-.23-.51-.5-.51ZM4.35,171.64c-.14-.14-.36-.18-.54-.11-.07.03-.12.07-.17.11-.09.09-.14.22-.14.35,0,.07,0,.13.04.2.02.06.06.11.1.16.05.04.1.08.17.11.06.02.12.03.19.03.13,0,.26-.05.35-.14.05-.05.08-.1.11-.16.02-.07.04-.13.04-.2,0-.06-.02-.12-.04-.19-.03-.06-.06-.11-.11-.16ZM340.35,195.64s-.1-.08-.16-.11c-.13-.05-.26-.05-.39,0-.06.03-.11.07-.16.11-.04.05-.08.1-.11.16-.02.06-.04.13-.04.2,0,.13.06.25.15.35.05.04.1.08.16.11.07.02.13.04.2.04.06,0,.13-.02.19-.04.06-.03.11-.07.16-.11.09-.1.15-.23.15-.35,0-.07-.02-.13-.04-.2-.03-.06-.07-.11-.11-.16ZM16,195.5c-.28,0-.5.22-.5.5s.22.49.5.49.5-.22.5-.49-.23-.5-.5-.5ZM40,195.5c-.28,0-.5.22-.5.5s.22.49.5.49.5-.22.5-.49-.23-.5-.5-.5ZM88,195.5c-.28,0-.5.22-.5.5s.22.49.5.49.5-.22.5-.49-.23-.5-.5-.5ZM76,195.5c-.28,0-.5.22-.5.5s.22.49.5.49.5-.22.5-.49-.23-.5-.5-.5ZM52,195.5c-.28,0-.5.22-.5.5s.22.49.5.49.5-.22.5-.49-.23-.5-.5-.5ZM64,195.5c-.28,0-.5.22-.5.5s.22.49.5.49.5-.22.5-.49-.23-.5-.5-.5ZM28,195.5c-.28,0-.5.22-.5.5s.22.49.5.49.5-.22.5-.49-.23-.5-.5-.5ZM148,195.5c-.28,0-.5.22-.5.5s.22.49.5.49.5-.22.5-.49-.23-.5-.5-.5ZM256,195.5c-.28,0-.5.22-.5.5s.22.49.5.49.5-.22.5-.49-.23-.5-.5-.5ZM124,195.5c-.28,0-.5.22-.5.5s.22.49.5.49.5-.22.5-.49-.23-.5-.5-.5ZM244,195.5c-.28,0-.5.22-.5.5s.22.49.5.49.5-.22.5-.49-.23-.5-.5-.5ZM268,195.5c-.28,0-.5.22-.5.5s.22.49.5.49.5-.22.5-.49-.23-.5-.5-.5ZM292,195.5c-.28,0-.5.22-.5.5s.22.49.5.49.5-.22.5-.49-.23-.5-.5-.5ZM280,195.5c-.28,0-.5.22-.5.5s.22.49.5.49.5-.22.5-.49-.23-.5-.5-.5ZM232,195.5c-.28,0-.5.22-.5.5s.22.49.5.49.5-.22.5-.49-.23-.5-.5-.5ZM160,195.5c-.28,0-.5.22-.5.5s.22.49.5.49.5-.22.5-.49-.23-.5-.5-.5ZM184,195.5c-.28,0-.5.22-.5.5s.22.49.5.49.5-.22.5-.49-.23-.5-.5-.5ZM172,195.5c-.28,0-.5.22-.5.5s.22.49.5.49.5-.22.5-.49-.23-.5-.5-.5ZM112,195.5c-.28,0-.5.22-.5.5s.22.49.5.49.5-.22.5-.49-.23-.5-.5-.5ZM208,195.5c-.28,0-.5.22-.5.5s.22.49.5.49.5-.22.5-.49-.23-.5-.5-.5ZM136,195.5c-.28,0-.5.22-.5.5s.22.49.5.49.5-.22.5-.49-.23-.5-.5-.5ZM219.99,195.5c-.27,0-.49.22-.49.5s.22.49.49.49.51-.22.51-.49-.23-.5-.51-.5ZM196,195.5c-.28,0-.5.22-.5.5s.22.49.5.49.5-.22.5-.49-.23-.5-.5-.5ZM304,195.5c-.28,0-.5.22-.5.5s.22.49.5.49.5-.22.5-.49-.23-.5-.5-.5ZM328,195.5c-.28,0-.5.22-.5.5s.22.49.5.49.5-.22.5-.49-.23-.5-.5-.5ZM316,195.5c-.28,0-.5.22-.5.5s.22.49.5.49.5-.22.5-.49-.23-.5-.5-.5ZM100,195.5c-.28,0-.5.22-.5.5s.22.49.5.49.5-.22.5-.49-.23-.5-.5-.5ZM4.19,195.54c-.19-.07-.41-.03-.55.11-.09.09-.14.22-.14.35,0,.14.05.27.14.36.1.09.23.14.36.14.06,0,.13-.01.19-.03.06-.03.11-.07.16-.11.09-.09.15-.22.15-.36,0-.13-.06-.26-.15-.35-.05-.04-.1-.08-.16-.11ZM339.64,219.64c-.09.1-.15.22-.15.35,0,.14.06.27.15.36.1.09.22.14.36.14.13,0,.26-.05.35-.14s.15-.22.15-.36c0-.12-.06-.25-.15-.35-.18-.19-.53-.19-.71,0ZM40,219.49c-.28,0-.5.23-.5.51s.22.49.5.49.5-.22.5-.49-.23-.51-.5-.51ZM232,219.49c-.28,0-.5.23-.5.51s.22.49.5.49.5-.22.5-.49-.23-.51-.5-.51ZM328,219.49c-.28,0-.5.23-.5.51s.22.49.5.49.5-.22.5-.49-.23-.51-.5-.51ZM160,219.49c-.28,0-.5.23-.5.51s.22.49.5.49.5-.22.5-.49-.23-.51-.5-.51ZM100,219.49c-.28,0-.5.23-.5.51s.22.49.5.49.5-.22.5-.49-.23-.51-.5-.51ZM244,219.49c-.28,0-.5.23-.5.51s.22.49.5.49.5-.22.5-.49-.23-.51-.5-.51ZM219.99,219.49c-.27,0-.49.23-.49.51s.22.49.49.49.51-.22.51-.49-.23-.51-.51-.51ZM76,219.49c-.28,0-.5.23-.5.51s.22.49.5.49.5-.22.5-.49-.23-.51-.5-.51ZM136,219.49c-.28,0-.5.23-.5.51s.22.49.5.49.5-.22.5-.49-.23-.51-.5-.51ZM148,219.49c-.28,0-.5.23-.5.51s.22.49.5.49.5-.22.5-.49-.23-.51-.5-.51ZM184,219.49c-.28,0-.5.23-.5.51s.22.49.5.49.5-.22.5-.49-.23-.51-.5-.51ZM196,219.49c-.28,0-.5.23-.5.51s.22.49.5.49.5-.22.5-.49-.23-.51-.5-.51ZM172,219.49c-.28,0-.5.23-.5.51s.22.49.5.49.5-.22.5-.49-.23-.51-.5-.51ZM64,219.49c-.28,0-.5.23-.5.51s.22.49.5.49.5-.22.5-.49-.23-.51-.5-.51ZM208,219.49c-.28,0-.5.23-.5.51s.22.49.5.49.5-.22.5-.49-.23-.51-.5-.51ZM52,219.49c-.28,0-.5.23-.5.51s.22.49.5.49.5-.22.5-.49-.23-.51-.5-.51ZM268,219.49c-.28,0-.5.23-.5.51s.22.49.5.49.5-.22.5-.49-.23-.51-.5-.51ZM304,219.49c-.28,0-.5.23-.5.51s.22.49.5.49.5-.22.5-.49-.23-.51-.5-.51ZM316,219.49c-.28,0-.5.23-.5.51s.22.49.5.49.5-.22.5-.49-.23-.51-.5-.51ZM292,219.49c-.28,0-.5.23-.5.51s.22.49.5.49.5-.22.5-.49-.23-.51-.5-.51ZM280,219.49c-.28,0-.5.23-.5.51s.22.49.5.49.5-.22.5-.49-.23-.51-.5-.51ZM88,219.49c-.28,0-.5.23-.5.51s.22.49.5.49.5-.22.5-.49-.23-.51-.5-.51ZM28,219.49c-.28,0-.5.23-.5.51s.22.49.5.49.5-.22.5-.49-.23-.51-.5-.51ZM256,219.49c-.28,0-.5.23-.5.51s.22.49.5.49.5-.22.5-.49-.23-.51-.5-.51ZM112,219.49c-.28,0-.5.23-.5.51s.22.49.5.49.5-.22.5-.49-.23-.51-.5-.51ZM124,219.49c-.28,0-.5.23-.5.51s.22.49.5.49.5-.22.5-.49-.23-.51-.5-.51ZM16,219.49c-.28,0-.5.23-.5.51s.22.49.5.49.5-.22.5-.49-.23-.51-.5-.51ZM4.35,219.64c-.19-.19-.52-.18-.71,0-.04.05-.08.1-.1.16-.03.07-.04.13-.04.19,0,.14.05.26.14.36.1.09.22.15.36.15.06,0,.13-.02.19-.04.06-.03.11-.06.16-.11.09-.09.15-.22.15-.36,0-.06-.02-.13-.04-.19-.03-.06-.06-.11-.11-.16ZM340.35,243.64s-.1-.08-.16-.11c-.13-.05-.26-.05-.39,0-.06.03-.11.07-.16.11-.09.09-.15.22-.15.36,0,.13.06.25.15.35.1.09.22.15.36.15.13,0,.26-.06.35-.15.09-.1.15-.22.15-.35,0-.07-.02-.13-.04-.2-.03-.06-.07-.11-.11-.16ZM196,243.49c-.28,0-.5.23-.5.51s.22.49.5.49.5-.22.5-.49-.23-.51-.5-.51ZM316,243.49c-.28,0-.5.23-.5.51s.22.49.5.49.5-.22.5-.49-.23-.51-.5-.51ZM172,243.49c-.28,0-.5.23-.5.51s.22.49.5.49.5-.22.5-.49-.23-.51-.5-.51ZM64,243.49c-.28,0-.5.23-.5.51s.22.49.5.49.5-.22.5-.49-.23-.51-.5-.51ZM184,243.49c-.28,0-.5.23-.5.51s.22.49.5.49.5-.22.5-.49-.23-.51-.5-.51ZM292,243.49c-.28,0-.5.23-.5.51s.22.49.5.49.5-.22.5-.49-.23-.51-.5-.51ZM304,243.49c-.28,0-.5.23-.5.51s.22.49.5.49.5-.22.5-.49-.23-.51-.5-.51ZM40,243.49c-.28,0-.5.23-.5.51s.22.49.5.49.5-.22.5-.49-.23-.51-.5-.51ZM328,243.49c-.28,0-.5.23-.5.51s.22.49.5.49.5-.22.5-.49-.23-.51-.5-.51ZM268,243.49c-.28,0-.5.23-.5.51s.22.49.5.49.5-.22.5-.49-.23-.51-.5-.51ZM28,243.49c-.28,0-.5.23-.5.51s.22.49.5.49.5-.22.5-.49-.23-.51-.5-.51ZM232,243.49c-.28,0-.5.23-.5.51s.22.49.5.49.5-.22.5-.49-.23-.51-.5-.51ZM256,243.49c-.28,0-.5.23-.5.51s.22.49.5.49.5-.22.5-.49-.23-.51-.5-.51ZM244,243.49c-.28,0-.5.23-.5.51s.22.49.5.49.5-.22.5-.49-.23-.51-.5-.51ZM208,243.49c-.28,0-.5.23-.5.51s.22.49.5.49.5-.22.5-.49-.23-.51-.5-.51ZM280,243.49c-.28,0-.5.23-.5.51s.22.49.5.49.5-.22.5-.49-.23-.51-.5-.51ZM160,243.49c-.28,0-.5.23-.5.51s.22.49.5.49.5-.22.5-.49-.23-.51-.5-.51ZM52,243.49c-.28,0-.5.23-.5.51s.22.49.5.49.5-.22.5-.49-.23-.51-.5-.51ZM16,243.49c-.28,0-.5.23-.5.51s.22.49.5.49.5-.22.5-.49-.23-.51-.5-.51ZM219.99,243.49c-.27,0-.49.23-.49.51s.22.49.49.49.51-.22.51-.49-.23-.51-.51-.51ZM88,243.49c-.28,0-.5.23-.5.51s.22.49.5.49.5-.22.5-.49-.23-.51-.5-.51ZM124,243.49c-.28,0-.5.23-.5.51s.22.49.5.49.5-.22.5-.49-.23-.51-.5-.51ZM148,243.49c-.28,0-.5.23-.5.51s.22.49.5.49.5-.22.5-.49-.23-.51-.5-.51ZM112,243.49c-.28,0-.5.23-.5.51s.22.49.5.49.5-.22.5-.49-.23-.51-.5-.51ZM100,243.49c-.28,0-.5.23-.5.51s.22.49.5.49.5-.22.5-.49-.23-.51-.5-.51ZM76,243.49c-.28,0-.5.23-.5.51s.22.49.5.49.5-.22.5-.49-.23-.51-.5-.51ZM136,243.49c-.28,0-.5.23-.5.51s.22.49.5.49.5-.22.5-.49-.23-.51-.5-.51ZM4.19,243.53c-.19-.07-.41-.03-.55.11-.09.09-.14.22-.14.35,0,.07,0,.14.03.2.03.06.07.11.11.16.05.05.11.08.17.11.06.02.12.04.19.04.13,0,.26-.06.35-.15.05-.05.08-.1.11-.16.02-.06.04-.13.04-.2,0-.13-.06-.26-.15-.35-.04-.04-.1-.08-.16-.11ZM340.19,267.53c-.19-.07-.41-.03-.55.11-.09.1-.15.22-.15.35,0,.07.02.14.04.2.03.06.07.11.11.16.1.09.22.14.36.14.13,0,.26-.05.35-.14.05-.05.08-.1.11-.16.02-.06.04-.13.04-.2,0-.12-.06-.25-.15-.35-.05-.04-.1-.08-.16-.11ZM64,267.51c-.28,0-.5.22-.5.5s.22.49.5.49.5-.22.5-.49-.23-.5-.5-.5ZM136,267.51c-.28,0-.5.22-.5.5s.22.49.5.49.5-.22.5-.49-.23-.5-.5-.5ZM292,267.51c-.28,0-.5.22-.5.5s.22.49.5.49.5-.22.5-.49-.23-.5-.5-.5ZM184,267.51c-.28,0-.5.22-.5.5s.22.49.5.49.5-.22.5-.49-.23-.5-.5-.5ZM219.99,267.51c-.27,0-.49.22-.49.5s.22.49.49.49.51-.22.51-.49-.23-.5-.51-.5ZM76,267.51c-.28,0-.5.22-.5.5s.22.49.5.49.5-.22.5-.49-.23-.5-.5-.5ZM328,267.51c-.28,0-.5.22-.5.5s.22.49.5.49.5-.22.5-.49-.23-.5-.5-.5ZM196,267.51c-.28,0-.5.22-.5.5s.22.49.5.49.5-.22.5-.49-.23-.5-.5-.5ZM316,267.51c-.28,0-.5.22-.5.5s.22.49.5.49.5-.22.5-.49-.23-.5-.5-.5ZM52,267.51c-.28,0-.5.22-.5.5s.22.49.5.49.5-.22.5-.49-.23-.5-.5-.5ZM280,267.51c-.28,0-.5.22-.5.5s.22.49.5.49.5-.22.5-.49-.23-.5-.5-.5ZM232,267.51c-.28,0-.5.22-.5.5s.22.49.5.49.5-.22.5-.49-.23-.5-.5-.5ZM148,267.51c-.28,0-.5.22-.5.5s.22.49.5.49.5-.22.5-.49-.23-.5-.5-.5ZM304,267.51c-.28,0-.5.22-.5.5s.22.49.5.49.5-.22.5-.49-.23-.5-.5-.5ZM268,267.51c-.28,0-.5.22-.5.5s.22.49.5.49.5-.22.5-.49-.23-.5-.5-.5ZM88,267.51c-.28,0-.5.22-.5.5s.22.49.5.49.5-.22.5-.49-.23-.5-.5-.5ZM40,267.51c-.28,0-.5.22-.5.5s.22.49.5.49.5-.22.5-.49-.23-.5-.5-.5ZM112,267.51c-.28,0-.5.22-.5.5s.22.49.5.49.5-.22.5-.49-.23-.5-.5-.5ZM208,267.51c-.28,0-.5.22-.5.5s.22.49.5.49.5-.22.5-.49-.23-.5-.5-.5ZM256,267.51c-.28,0-.5.22-.5.5s.22.49.5.49.5-.22.5-.49-.23-.5-.5-.5ZM160,267.51c-.28,0-.5.22-.5.5s.22.49.5.49.5-.22.5-.49-.23-.5-.5-.5ZM100,267.51c-.28,0-.5.22-.5.5s.22.49.5.49.5-.22.5-.49-.23-.5-.5-.5ZM172,267.51c-.28,0-.5.22-.5.5s.22.49.5.49.5-.22.5-.49-.23-.5-.5-.5ZM16,267.51c-.28,0-.5.22-.5.5s.22.49.5.49.5-.22.5-.49-.23-.5-.5-.5ZM244,267.51c-.28,0-.5.22-.5.5s.22.49.5.49.5-.22.5-.49-.23-.5-.5-.5ZM124,267.51c-.28,0-.5.22-.5.5s.22.49.5.49.5-.22.5-.49-.23-.5-.5-.5ZM28,267.51c-.28,0-.5.22-.5.5s.22.49.5.49.5-.22.5-.49-.23-.5-.5-.5ZM4.35,267.64c-.05-.05-.1-.08-.16-.11-.12-.04-.26-.05-.38,0-.07.03-.12.07-.17.11-.04.05-.08.1-.11.16-.02.07-.03.13-.03.2,0,.13.05.25.14.35.05.05.1.08.17.11.06.02.12.03.19.03.06,0,.13,0,.19-.03.06-.03.11-.06.16-.11.05-.05.08-.1.11-.16.02-.06.04-.13.04-.19,0-.07-.02-.13-.04-.2-.03-.06-.06-.11-.11-.16ZM340.35,291.64s-.1-.08-.16-.11c-.13-.05-.26-.05-.39,0-.06.03-.11.07-.16.11-.09.09-.15.22-.15.36,0,.13.06.26.15.35s.22.14.36.14c.13,0,.26-.05.35-.14s.15-.22.15-.35c0-.07-.02-.13-.04-.2-.03-.06-.07-.11-.11-.16ZM304,291.51c-.28,0-.5.22-.5.5s.22.49.5.49.5-.22.5-.49-.23-.5-.5-.5ZM52,291.51c-.28,0-.5.22-.5.5s.22.49.5.49.5-.22.5-.49-.23-.5-.5-.5ZM124,291.51c-.28,0-.5.22-.5.5s.22.49.5.49.5-.22.5-.49-.23-.5-.5-.5ZM28,291.51c-.28,0-.5.22-.5.5s.22.49.5.49.5-.22.5-.49-.23-.5-.5-.5ZM40,291.51c-.28,0-.5.22-.5.5s.22.49.5.49.5-.22.5-.49-.23-.5-.5-.5ZM244,291.51c-.28,0-.5.22-.5.5s.22.49.5.49.5-.22.5-.49-.23-.5-.5-.5ZM88,291.51c-.28,0-.5.22-.5.5s.22.49.5.49.5-.22.5-.49-.23-.5-.5-.5ZM256,291.51c-.28,0-.5.22-.5.5s.22.49.5.49.5-.22.5-.49-.23-.5-.5-.5ZM268,291.51c-.28,0-.5.22-.5.5s.22.49.5.49.5-.22.5-.49-.23-.5-.5-.5ZM232,291.51c-.28,0-.5.22-.5.5s.22.49.5.49.5-.22.5-.49-.23-.5-.5-.5ZM148,291.51c-.28,0-.5.22-.5.5s.22.49.5.49.5-.22.5-.49-.23-.5-.5-.5ZM292,291.51c-.28,0-.5.22-.5.5s.22.49.5.49.5-.22.5-.49-.23-.5-.5-.5ZM136,291.51c-.28,0-.5.22-.5.5s.22.49.5.49.5-.22.5-.49-.23-.5-.5-.5ZM219.99,291.51c-.27,0-.49.22-.49.5s.22.49.49.49.51-.22.51-.49-.23-.5-.51-.5ZM280,291.51c-.28,0-.5.22-.5.5s.22.49.5.49.5-.22.5-.49-.23-.5-.5-.5ZM64,291.51c-.28,0-.5.22-.5.5s.22.49.5.49.5-.22.5-.49-.23-.5-.5-.5ZM328,291.51c-.28,0-.5.22-.5.5s.22.49.5.49.5-.22.5-.49-.23-.5-.5-.5ZM184,291.51c-.28,0-.5.22-.5.5s.22.49.5.49.5-.22.5-.49-.23-.5-.5-.5ZM76,291.51c-.28,0-.5.22-.5.5s.22.49.5.49.5-.22.5-.49-.23-.5-.5-.5ZM316,291.51c-.28,0-.5.22-.5.5s.22.49.5.49.5-.22.5-.49-.23-.5-.5-.5ZM100,291.51c-.28,0-.5.22-.5.5s.22.49.5.49.5-.22.5-.49-.23-.5-.5-.5ZM160,291.51c-.28,0-.5.22-.5.5s.22.49.5.49.5-.22.5-.49-.23-.5-.5-.5ZM196,291.51c-.28,0-.5.22-.5.5s.22.49.5.49.5-.22.5-.49-.23-.5-.5-.5ZM172,291.51c-.28,0-.5.22-.5.5s.22.49.5.49.5-.22.5-.49-.23-.5-.5-.5ZM208,291.51c-.28,0-.5.22-.5.5s.22.49.5.49.5-.22.5-.49-.23-.5-.5-.5ZM16,291.51c-.28,0-.5.22-.5.5s.22.49.5.49.5-.22.5-.49-.23-.5-.5-.5ZM112,291.51c-.28,0-.5.22-.5.5s.22.49.5.49.5-.22.5-.49-.23-.5-.5-.5ZM3.64,291.64s-.08.1-.11.16c-.02.07-.03.13-.03.2,0,.06,0,.12.03.19.03.06.07.11.11.16.1.09.22.15.36.15.06,0,.13-.02.19-.04.06-.03.11-.06.16-.11.05-.05.08-.1.11-.16.02-.07.04-.13.04-.19,0-.14-.06-.27-.15-.36-.19-.18-.52-.19-.71,0ZM340.19,315.53c-.19-.07-.41-.03-.55.11-.09.1-.15.22-.15.35,0,.14.06.26.15.36.1.09.22.14.36.14.06,0,.13,0,.19-.03.06-.03.11-.06.16-.11.09-.1.15-.22.15-.36,0-.12-.06-.25-.15-.35-.05-.04-.1-.08-.16-.11ZM328,315.51c-.28,0-.5.22-.5.49s.22.5.5.5.5-.22.5-.5-.23-.49-.5-.49ZM280,315.51c-.28,0-.5.22-.5.49s.22.5.5.5.5-.22.5-.5-.23-.49-.5-.49ZM304,315.51c-.28,0-.5.22-.5.49s.22.5.5.5.5-.22.5-.5-.23-.49-.5-.49ZM136,315.51c-.28,0-.5.22-.5.49s.22.5.5.5.5-.22.5-.5-.23-.49-.5-.49ZM40,315.51c-.28,0-.5.22-.5.49s.22.5.5.5.5-.22.5-.5-.23-.49-.5-.49ZM256,315.51c-.28,0-.5.22-.5.49s.22.5.5.5.5-.22.5-.5-.23-.49-.5-.49ZM76,315.51c-.28,0-.5.22-.5.49s.22.5.5.5.5-.22.5-.5-.23-.49-.5-.49ZM244,315.51c-.28,0-.5.22-.5.49s.22.5.5.5.5-.22.5-.5-.23-.49-.5-.49ZM100,315.51c-.28,0-.5.22-.5.49s.22.5.5.5.5-.22.5-.5-.23-.49-.5-.49ZM172,315.51c-.28,0-.5.22-.5.49s.22.5.5.5.5-.22.5-.5-.23-.49-.5-.49ZM208,315.51c-.28,0-.5.22-.5.49s.22.5.5.5.5-.22.5-.5-.23-.49-.5-.49ZM160,315.51c-.28,0-.5.22-.5.49s.22.5.5.5.5-.22.5-.5-.23-.49-.5-.49ZM112,315.51c-.28,0-.5.22-.5.49s.22.5.5.5.5-.22.5-.5-.23-.49-.5-.49ZM184,315.51c-.28,0-.5.22-.5.49s.22.5.5.5.5-.22.5-.5-.23-.49-.5-.49ZM316,315.51c-.28,0-.5.22-.5.49s.22.5.5.5.5-.22.5-.5-.23-.49-.5-.49ZM124,315.51c-.28,0-.5.22-.5.49s.22.5.5.5.5-.22.5-.5-.23-.49-.5-.49ZM52,315.51c-.28,0-.5.22-.5.49s.22.5.5.5.5-.22.5-.5-.23-.49-.5-.49ZM196,315.51c-.28,0-.5.22-.5.49s.22.5.5.5.5-.22.5-.5-.23-.49-.5-.49ZM16,315.51c-.28,0-.5.22-.5.49s.22.5.5.5.5-.22.5-.5-.23-.49-.5-.49ZM148,315.51c-.28,0-.5.22-.5.49s.22.5.5.5.5-.22.5-.5-.23-.49-.5-.49ZM292,315.51c-.28,0-.5.22-.5.49s.22.5.5.5.5-.22.5-.5-.23-.49-.5-.49ZM219.99,315.51c-.27,0-.49.22-.49.49s.22.5.49.5.51-.22.51-.5-.23-.49-.51-.49ZM268,315.51c-.28,0-.5.22-.5.49s.22.5.5.5.5-.22.5-.5-.23-.49-.5-.49ZM28,315.51c-.28,0-.5.22-.5.49s.22.5.5.5.5-.22.5-.5-.23-.49-.5-.49ZM232,315.51c-.28,0-.5.22-.5.49s.22.5.5.5.5-.22.5-.5-.23-.49-.5-.49ZM88,315.51c-.28,0-.5.22-.5.49s.22.5.5.5.5-.22.5-.5-.23-.49-.5-.49ZM64,315.51c-.28,0-.5.22-.5.49s.22.5.5.5.5-.22.5-.5-.23-.49-.5-.49ZM4.35,315.64c-.05-.04-.1-.08-.16-.11-.19-.07-.41-.03-.55.11-.04.05-.08.1-.11.16-.02.07-.03.13-.03.19,0,.14.05.26.14.36.05.05.1.08.17.11.06.02.12.04.19.04.13,0,.26-.06.35-.15.09-.1.15-.22.15-.36,0-.06-.02-.13-.04-.19-.03-.06-.06-.11-.11-.16ZM340.35,339.64s-.1-.08-.16-.11c-.13-.05-.26-.05-.39,0-.06.03-.11.07-.16.11-.09.09-.15.22-.15.36,0,.13.06.26.15.35.1.09.22.14.36.14.13,0,.26-.05.35-.14s.15-.22.15-.35c0-.07-.02-.13-.04-.2-.03-.06-.07-.11-.11-.16ZM268,339.51c-.28,0-.5.22-.5.49s.22.5.5.5.5-.22.5-.5-.23-.49-.5-.49ZM88,339.51c-.28,0-.5.22-.5.49s.22.5.5.5.5-.22.5-.5-.23-.49-.5-.49ZM100,339.51c-.28,0-.5.22-.5.49s.22.5.5.5.5-.22.5-.5-.23-.49-.5-.49ZM292,339.51c-.28,0-.5.22-.5.49s.22.5.5.5.5-.22.5-.5-.23-.49-.5-.49ZM280,339.51c-.28,0-.5.22-.5.49s.22.5.5.5.5-.22.5-.5-.23-.49-.5-.49ZM124,339.51c-.28,0-.5.22-.5.49s.22.5.5.5.5-.22.5-.5-.23-.49-.5-.49ZM16,339.51c-.28,0-.5.22-.5.49s.22.5.5.5.5-.22.5-.5-.23-.49-.5-.49ZM112,339.51c-.28,0-.5.22-.5.49s.22.5.5.5.5-.22.5-.5-.23-.49-.5-.49ZM316,339.51c-.28,0-.5.22-.5.49s.22.5.5.5.5-.22.5-.5-.23-.49-.5-.49ZM28,339.51c-.28,0-.5.22-.5.49s.22.5.5.5.5-.22.5-.5-.23-.49-.5-.49ZM304,339.51c-.28,0-.5.22-.5.49s.22.5.5.5.5-.22.5-.5-.23-.49-.5-.49ZM328,339.51c-.28,0-.5.22-.5.49s.22.5.5.5.5-.22.5-.5-.23-.49-.5-.49ZM148,339.51c-.28,0-.5.22-.5.49s.22.5.5.5.5-.22.5-.5-.23-.49-.5-.49ZM208,339.51c-.28,0-.5.22-.5.49s.22.5.5.5.5-.22.5-.5-.23-.49-.5-.49ZM244,339.51c-.28,0-.5.22-.5.49s.22.5.5.5.5-.22.5-.5-.23-.49-.5-.49ZM196,339.51c-.28,0-.5.22-.5.49s.22.5.5.5.5-.22.5-.5-.23-.49-.5-.49ZM136,339.51c-.28,0-.5.22-.5.49s.22.5.5.5.5-.22.5-.5-.23-.49-.5-.49ZM232,339.51c-.28,0-.5.22-.5.49s.22.5.5.5.5-.22.5-.5-.23-.49-.5-.49ZM160,339.51c-.28,0-.5.22-.5.49s.22.5.5.5.5-.22.5-.5-.23-.49-.5-.49ZM52,339.51c-.28,0-.5.22-.5.49s.22.5.5.5.5-.22.5-.5-.23-.49-.5-.49ZM219.99,339.51c-.27,0-.49.22-.49.49s.22.5.49.5.51-.22.51-.5-.23-.49-.51-.49ZM76,339.51c-.28,0-.5.22-.5.49s.22.5.5.5.5-.22.5-.5-.23-.49-.5-.49ZM64,339.51c-.28,0-.5.22-.5.49s.22.5.5.5.5-.22.5-.5-.23-.49-.5-.49ZM184,339.51c-.28,0-.5.22-.5.49s.22.5.5.5.5-.22.5-.5-.23-.49-.5-.49ZM256,339.51c-.28,0-.5.22-.5.49s.22.5.5.5.5-.22.5-.5-.23-.49-.5-.49ZM172,339.51c-.28,0-.5.22-.5.49s.22.5.5.5.5-.22.5-.5-.23-.49-.5-.49ZM40,339.51c-.28,0-.5.22-.5.49s.22.5.5.5.5-.22.5-.5-.23-.49-.5-.49ZM4.19,339.53c-.12-.05-.26-.05-.38,0-.07.03-.12.07-.17.11-.04.05-.08.1-.11.16-.02.07-.03.13-.03.19,0,.14.05.26.14.36.05.05.11.08.17.11.06.02.12.03.19.03.13,0,.25-.05.35-.14.09-.1.15-.22.15-.36,0-.13-.06-.26-.15-.35-.05-.04-.1-.08-.16-.11ZM340.19,363.53c-.19-.08-.41-.03-.55.11-.09.1-.15.22-.15.35,0,.14.06.26.15.36.1.09.22.14.36.14.06,0,.13,0,.19-.03.06-.03.11-.06.16-.11.09-.1.15-.22.15-.36,0-.13-.06-.25-.15-.35-.05-.04-.1-.08-.16-.11ZM148,363.51c-.28,0-.5.22-.5.49s.22.51.5.51.5-.23.5-.51-.23-.49-.5-.49ZM172,363.51c-.28,0-.5.22-.5.49s.22.51.5.51.5-.23.5-.51-.23-.49-.5-.49ZM76,363.51c-.28,0-.5.22-.5.49s.22.51.5.51.5-.23.5-.51-.23-.49-.5-.49ZM220,363.51c-.28,0-.5.22-.5.49s.22.51.5.51.5-.23.5-.51-.23-.49-.5-.49ZM124,363.51c-.28,0-.5.22-.5.49s.22.51.5.51.5-.23.5-.51-.23-.49-.5-.49ZM52,363.51c-.28,0-.5.22-.5.49s.22.51.5.51.5-.23.5-.51-.23-.49-.5-.49ZM304,363.51c-.28,0-.5.22-.5.49s.22.51.5.51.5-.23.5-.51-.23-.49-.5-.49ZM292,363.51c-.28,0-.5.22-.5.49s.22.51.5.51.5-.23.5-.51-.23-.49-.5-.49ZM112,363.51c-.28,0-.5.22-.5.49s.22.51.5.51.5-.23.5-.51-.23-.49-.5-.49ZM208,363.51c-.28,0-.5.22-.5.49s.22.51.5.51.5-.23.5-.51-.23-.49-.5-.49ZM100,363.51c-.28,0-.5.22-.5.49s.22.51.5.51.5-.23.5-.51-.23-.49-.5-.49ZM328,363.51c-.28,0-.5.22-.5.49s.22.51.5.51.5-.23.5-.51-.23-.49-.5-.49ZM160,363.51c-.28,0-.5.22-.5.49s.22.51.5.51.5-.23.5-.51-.23-.49-.5-.49ZM196,363.51c-.28,0-.5.22-.5.49s.22.51.5.51.5-.23.5-.51-.23-.49-.5-.49ZM316,363.51c-.28,0-.5.22-.5.49s.22.51.5.51.5-.23.5-.51-.23-.49-.5-.49ZM184,363.51c-.28,0-.51.22-.51.49s.23.51.51.51.5-.23.5-.51-.23-.49-.5-.49ZM64,363.51c-.28,0-.5.22-.5.49s.22.51.5.51.5-.23.5-.51-.23-.49-.5-.49ZM16,363.51c-.28,0-.5.22-.5.49s.22.51.5.51.5-.23.5-.51-.23-.49-.5-.49ZM28,363.51c-.28,0-.5.22-.5.49s.22.51.5.51.5-.23.5-.51-.23-.49-.5-.49ZM280,363.51c-.28,0-.5.22-.5.49s.22.51.5.51.5-.23.5-.51-.23-.49-.5-.49ZM256,363.51c-.28,0-.5.22-.5.49s.22.51.5.51.5-.23.5-.51-.23-.49-.5-.49ZM136,363.51c-.28,0-.5.22-.5.49s.22.51.5.51.5-.23.5-.51-.23-.49-.5-.49ZM40,363.51c-.28,0-.5.22-.5.49s.22.51.5.51.5-.23.5-.51-.23-.49-.5-.49ZM244,363.51c-.28,0-.5.22-.5.49s.22.51.5.51.5-.23.5-.51-.23-.49-.5-.49ZM268,363.51c-.28,0-.5.22-.5.49s.22.51.5.51.5-.23.5-.51-.23-.49-.5-.49ZM232,363.51c-.28,0-.5.22-.5.49s.22.51.5.51.5-.23.5-.51-.23-.49-.5-.49ZM88,363.51c-.28,0-.5.22-.5.49s.22.51.5.51.5-.23.5-.51-.23-.49-.5-.49ZM3.64,363.64c-.09.09-.14.22-.14.36,0,.06,0,.13.04.19.02.06.06.11.1.16.05.05.11.08.17.11.06.02.12.04.19.04.06,0,.13-.02.19-.04.06-.03.11-.06.16-.11.09-.1.15-.22.15-.35,0-.14-.06-.27-.15-.36-.19-.19-.52-.19-.71,0ZM340.19,387.53c-.19-.07-.41-.03-.55.11-.09.09-.14.22-.14.35,0,.14.05.26.14.36.05.05.1.08.16.11.06.02.13.03.2.03.13,0,.26-.05.35-.14.09-.1.15-.22.15-.36,0-.13-.06-.26-.15-.35-.05-.04-.1-.08-.16-.11ZM316,387.51c-.28,0-.5.22-.5.5s.22.49.5.49.5-.22.5-.49-.23-.5-.5-.5ZM196,387.51c-.28,0-.5.22-.5.5s.22.49.5.49.5-.22.5-.49-.23-.5-.5-.5ZM136,387.51c-.28,0-.5.22-.5.5s.22.49.5.49.5-.22.5-.49-.23-.5-.5-.5ZM268,387.51c-.28,0-.51.22-.51.5s.23.49.51.49.5-.22.5-.49-.23-.5-.5-.5ZM64,387.51c-.28,0-.5.22-.5.5s.22.49.5.49.5-.22.5-.49-.23-.5-.5-.5ZM160,387.51c-.28,0-.5.22-.5.5s.22.49.5.49.5-.22.5-.49-.23-.5-.5-.5ZM112,387.51c-.28,0-.5.22-.5.5s.22.49.5.49.5-.22.5-.49-.23-.5-.5-.5ZM292,387.51c-.28,0-.5.22-.5.5s.22.49.5.49.5-.22.5-.49-.23-.5-.5-.5ZM256,387.51c-.28,0-.5.22-.5.5s.22.49.5.49.5-.22.5-.49-.23-.5-.5-.5ZM16,387.51c-.28,0-.5.22-.5.5s.22.49.5.49.5-.22.5-.49-.23-.5-.5-.5ZM280,388.49c.27,0,.49-.22.49-.49s-.22-.5-.49-.5-.5.22-.5.5.22.49.5.49ZM328,387.51c-.28,0-.5.22-.5.5s.22.49.5.49.5-.22.5-.49-.23-.5-.5-.5ZM88,387.51c-.28,0-.5.22-.5.5s.22.49.5.49.5-.22.5-.49-.23-.5-.5-.5ZM28,387.51c-.28,0-.5.22-.5.5s.22.49.5.49.5-.22.5-.49-.23-.5-.5-.5ZM124,387.51c-.28,0-.5.22-.5.5s.22.49.5.49.5-.22.5-.49-.23-.5-.5-.5ZM304,387.51c-.28,0-.5.22-.5.5s.22.49.5.49.5-.22.5-.49-.23-.5-.5-.5ZM100,387.51c-.28,0-.5.22-.5.5s.22.49.5.49.5-.22.5-.49-.23-.5-.5-.5ZM76,387.51c-.28,0-.5.22-.5.5s.22.49.5.49.5-.22.5-.49-.23-.5-.5-.5ZM184,387.51c-.28,0-.5.22-.5.5s.22.49.5.49.5-.22.5-.49-.23-.5-.5-.5ZM52,387.51c-.28,0-.5.22-.5.5s.22.49.5.49.5-.22.5-.49-.23-.5-.5-.5ZM148,387.51c-.28,0-.5.22-.5.5s.22.49.5.49.5-.22.5-.49-.23-.5-.5-.5ZM40,387.51c-.28,0-.5.22-.5.5s.22.49.5.49.5-.22.5-.49-.23-.5-.5-.5ZM220,387.51c-.28,0-.5.22-.5.5s.22.49.5.49.5-.22.5-.49-.23-.5-.5-.5ZM232,387.51c-.28,0-.5.22-.5.5s.22.49.5.49.5-.22.5-.49-.23-.5-.5-.5ZM244,387.51c-.28,0-.5.22-.5.5s.22.49.5.49.5-.22.5-.49-.23-.5-.5-.5ZM172,387.51c-.28,0-.5.22-.5.5s.22.49.5.49.5-.22.5-.49-.23-.5-.5-.5ZM208,387.51c-.28,0-.5.22-.5.5s.22.49.5.49.5-.22.5-.49-.23-.5-.5-.5ZM4.19,387.53c-.19-.07-.41-.03-.55.11-.09.09-.14.22-.14.35,0,.14.05.26.14.36.05.05.1.08.17.11.06.02.12.03.19.03.13,0,.26-.05.35-.14.09-.09.15-.22.15-.36,0-.13-.06-.26-.15-.35-.04-.04-.1-.08-.16-.11ZM340.35,399.64c-.19-.19-.52-.19-.71,0-.04.05-.08.1-.11.16-.02.07-.04.13-.04.2,0,.06.02.13.04.19.03.06.07.11.11.16.05.05.1.08.16.11.06.02.13.04.2.04.13,0,.25-.06.35-.15.05-.05.08-.1.11-.16.02-.06.04-.13.04-.19,0-.07-.02-.13-.04-.2-.03-.06-.06-.11-.11-.16ZM256,399.51c-.28,0-.5.22-.5.49s.22.51.5.51.5-.23.5-.51-.23-.49-.5-.49ZM268,399.51c-.28,0-.5.22-.5.49s.22.51.5.51.5-.23.5-.51-.23-.49-.5-.49ZM184,399.51c-.28,0-.5.22-.5.49s.22.51.5.51.5-.23.5-.51-.23-.49-.5-.49ZM172,399.51c-.28,0-.5.22-.5.49s.22.51.5.51.5-.23.5-.51-.23-.49-.5-.49ZM136,399.51c-.28,0-.5.22-.5.49s.22.51.5.51.5-.23.5-.51-.23-.49-.5-.49ZM76,399.51c-.28,0-.5.22-.5.49s.22.51.5.51.5-.23.5-.51-.23-.49-.5-.49ZM328,399.51c-.28,0-.5.22-.5.49s.22.51.5.51.5-.23.5-.51-.23-.49-.5-.49ZM124,399.51c-.28,0-.5.22-.5.49s.22.51.5.51.5-.23.5-.51-.23-.49-.5-.49ZM304,399.51c-.28,0-.5.22-.5.49s.22.51.5.51.5-.23.5-.51-.23-.49-.5-.49ZM40,399.51c-.28,0-.5.22-.5.49s.22.51.5.51.5-.23.5-.51-.23-.49-.5-.49ZM232,399.51c-.28,0-.5.22-.5.49s.22.51.5.51.5-.23.5-.51-.23-.49-.5-.49ZM244,399.51c-.28,0-.5.22-.5.49s.22.51.5.51.5-.23.5-.51-.23-.49-.5-.49ZM220,399.51c-.28,0-.5.22-.5.49s.22.51.5.51.5-.23.5-.51-.23-.49-.5-.49ZM52,399.51c-.28,0-.5.22-.5.49s.22.51.5.51.5-.23.5-.51-.23-.49-.5-.49ZM148,399.51c-.28,0-.5.22-.5.49s.22.51.5.51.5-.23.5-.51-.23-.49-.5-.49ZM100,399.51c-.28,0-.5.22-.5.49s.22.51.5.51.5-.23.5-.51-.23-.49-.5-.49ZM28,399.51c-.28,0-.5.22-.5.49s.22.51.5.51.5-.23.5-.51-.23-.49-.5-.49ZM291.99,399.51c-.27,0-.49.22-.49.49s.22.51.49.51.51-.23.51-.51-.23-.49-.51-.49ZM208,399.51c-.28,0-.5.22-.5.49s.22.51.5.51.49-.23.49-.51-.22-.49-.49-.49ZM112,399.51c-.28,0-.5.22-.5.49s.22.51.5.51.5-.23.5-.51-.23-.49-.5-.49ZM280,399.51c-.28,0-.5.22-.5.49s.22.51.5.51.5-.23.5-.51-.23-.49-.5-.49ZM196,399.51c-.28,0-.5.22-.5.49s.22.51.5.51.5-.23.5-.51-.23-.49-.5-.49ZM16,399.51c-.28,0-.5.22-.5.49s.22.51.5.51.5-.23.5-.51-.23-.49-.5-.49ZM160,399.51c-.28,0-.5.22-.5.49s.22.51.5.51.5-.23.5-.51-.23-.49-.5-.49ZM88,399.51c-.28,0-.5.22-.5.49s.22.51.5.51.5-.23.5-.51-.23-.49-.5-.49ZM316,399.51c-.28,0-.5.22-.5.49s.22.51.5.51.5-.23.5-.51-.23-.49-.5-.49ZM64,399.51c-.28,0-.5.22-.5.49s.22.51.5.51.5-.23.5-.51-.23-.49-.5-.49ZM4.35,399.64c-.14-.14-.36-.19-.54-.11-.07.03-.12.07-.17.11-.04.05-.08.1-.11.16-.02.07-.03.13-.03.2,0,.06,0,.13.03.19.03.06.07.11.11.16.05.05.1.08.17.11.06.02.12.04.19.04.06,0,.13-.02.19-.04.06-.03.11-.06.16-.11.09-.09.15-.22.15-.35,0-.07-.02-.13-.04-.2-.03-.06-.06-.11-.11-.16Z" style="fill: #ccc;"/>
    </g>
  </g>
</svg>