<?xml version="1.0" encoding="UTF-8"?>
<svg id="Layer_2" data-name="Layer 2" xmlns="http://www.w3.org/2000/svg" viewBox="0 0 344 404">
  <g id="Layer_1-2" data-name="Layer 1">
    <g id="grid_-_solid_-_compound" data-name="grid - solid - compound">
      <rect y="0" width="344" height="404" style="fill: #fff; opacity: 0;"/>
      <path d="M344,4.25v-.5h-3.75V0h-.5v3.75h-11.5V0h-.5v3.75h-11.5V0h-.5v3.75h-11.5V0h-.5v3.75h-11.5V0h-.5v3.75h-11.5V0h-.5v3.75h-11.5V0h-.5v3.75h-11.5V0h-.5v3.75h-11.5V0h-.5v3.75h-11.5V0h-.5v3.75h-11.5V0h-.5v3.75h-11.5V0h-.5v3.75h-11.5V0h-.5v3.75h-11.5V0h-.5v3.75h-11.5V0h-.5v3.75h-11.5V0h-.5v3.75h-11.5V0h-.5v3.75h-11.5V0h-.5v3.75h-11.5V0h-.5v3.75h-11.5V0h-.5v3.75h-11.5V0h-.5v3.75h-11.5V0h-.5v3.75h-11.5V0h-.5v3.75h-11.5V0h-.5v3.75h-11.5V0h-.5v3.75h-11.5V0h-.5v3.75h-11.5V0h-.5v3.75h-11.5V0h-.5v3.75H4.25V0h-.5v3.75H0v.5h3.75v11.5H0v.5h3.75v11.5H0v.5h3.75v11.5H0v.5h3.75v11.5H0v.5h3.75v11.5H0v.5h3.75v11.5H0v.5h3.75v11.5H0v.5h3.75v11.5H0v.5h3.75v11.5H0v.5h3.75v11.5H0v.5h3.75v11.5H0v.5h3.75v11.5H0v.5h3.75v11.5H0v.5h3.75v11.5H0v.5h3.75v11.5H0v.5h3.75v11.5H0v.5h3.75v11.5H0v.5h3.75v11.5H0v.5h3.75v11.5H0v.5h3.75v11.5H0v.5h3.75v11.5H0v.5h3.75v11.5H0v.5h3.75v11.5H0v.5h3.75v11.5H0v.5h3.75v11.5H0v.5h3.75v11.5H0v.5h3.75v11.5H0v.5h3.75v11.5H0v.5h3.75v11.5H0v.5h3.75v11.5H0v.5h3.75v11.5H0v.5h3.75v11.5H0v.5h3.75v11.5H0v.5h3.75v3.75h.5v-3.75h11.5v3.75h.5v-3.75h11.5v3.75h.5v-3.75h11.5v3.75h.5v-3.75h11.5v3.75h.5v-3.75h11.5v3.75h.5v-3.75h11.5v3.75h.5v-3.75h11.5v3.75h.5v-3.75h11.5v3.75h.5v-3.75h11.5v3.75h.5v-3.75h11.5v3.75h.5v-3.75h11.5v3.75h.5v-3.75h11.5v3.75h.5v-3.75h11.5v3.75h.5v-3.75h11.5v3.75h.5v-3.75h11.5v3.75h.5v-3.75h11.5v3.75h.5v-3.75h11.5v3.75h.5v-3.75h11.5v3.75h.5v-3.75h11.5v3.75h.5v-3.75h11.5v3.75h.5v-3.75h11.5v3.75h.5v-3.75h11.5v3.75h.5v-3.75h11.5v3.75h.5v-3.75h11.5v3.75h.5v-3.75h11.5v3.75h.5v-3.75h11.5v3.75h.5v-3.75h11.5v3.75h.5v-3.75h11.5v3.75h.5v-3.75h3.75v-.5h-3.75v-11.5h3.75v-.5h-3.75v-11.5h3.75v-.5h-3.75v-11.5h3.75v-.5h-3.75v-11.5h3.75v-.5h-3.75v-11.5h3.75v-.5h-3.75v-11.5h3.75v-.5h-3.75v-11.5h3.75v-.5h-3.75v-11.5h3.75v-.5h-3.75v-11.5h3.75v-.5h-3.75v-11.5h3.75v-.5h-3.75v-11.5h3.75v-.5h-3.75v-11.5h3.75v-.5h-3.75v-11.5h3.75v-.5h-3.75v-11.5h3.75v-.5h-3.75v-11.5h3.75v-.5h-3.75v-11.5h3.75v-.5h-3.75v-11.5h3.75v-.5h-3.75v-11.5h3.75v-.5h-3.75v-11.5h3.75v-.5h-3.75v-11.5h3.75v-.5h-3.75v-11.5h3.75v-.5h-3.75v-11.5h3.75v-.5h-3.75v-11.5h3.75v-.5h-3.75v-11.5h3.75v-.5h-3.75v-11.5h3.75v-.5h-3.75v-11.5h3.75v-.5h-3.75v-11.5h3.75v-.5h-3.75v-11.5h3.75v-.5h-3.75v-11.5h3.75v-.5h-3.75v-11.5h3.75v-.5h-3.75v-11.5h3.75v-.5h-3.75v-11.5h3.75v-.5h-3.75V4.25h3.75ZM327.75,4.25v11.5h-11.5V4.25h11.5ZM171.75,172.25v11.5h-11.5v-11.5h11.5ZM160.25,171.75v-11.5h11.5v11.5h-11.5ZM171.75,184.25v11.5h-11.5v-11.5h11.5ZM171.75,196.25v11.5h-11.5v-11.5h11.5ZM171.75,208.25v11.5h-11.5v-11.5h11.5ZM171.75,220.25v11.5h-11.5v-11.5h11.5ZM171.75,232.25v11.5h-11.5v-11.5h11.5ZM172.25,232.25h11.5v11.5h-11.5v-11.5ZM172.25,231.75v-11.5h11.5v11.5h-11.5ZM172.25,219.75v-11.5h11.5v11.5h-11.5ZM172.25,207.75v-11.5h11.5v11.5h-11.5ZM172.25,195.75v-11.5h11.5v11.5h-11.5ZM172.25,183.75v-11.5h11.5v11.5h-11.5ZM172.25,171.75v-11.5h11.5v11.5h-11.5ZM172.25,159.75v-11.5h11.5v11.5h-11.5ZM171.75,159.75h-11.5v-11.5h11.5v11.5ZM159.75,159.75h-11.5v-11.5h11.5v11.5ZM159.75,160.25v11.5h-11.5v-11.5h11.5ZM159.75,172.25v11.5h-11.5v-11.5h11.5ZM159.75,184.25v11.5h-11.5v-11.5h11.5ZM159.75,196.25v11.5h-11.5v-11.5h11.5ZM159.75,208.25v11.5h-11.5v-11.5h11.5ZM159.75,220.25v11.5h-11.5v-11.5h11.5ZM159.75,232.25v11.5h-11.5v-11.5h11.5ZM159.75,244.25v11.5h-11.5v-11.5h11.5ZM160.25,244.25h11.5v11.5h-11.5v-11.5ZM172.25,244.25h11.5v11.5h-11.5v-11.5ZM184.25,244.25h11.5v11.5h-11.5v-11.5ZM184.25,243.75v-11.5h11.5v11.5h-11.5ZM184.25,231.75v-11.5h11.5v11.5h-11.5ZM184.25,219.75v-11.5h11.5v11.5h-11.5ZM184.25,207.75v-11.5h11.5v11.5h-11.5ZM184.25,195.75v-11.5h11.5v11.5h-11.5ZM184.25,183.75v-11.5h11.5v11.5h-11.5ZM184.25,171.75v-11.5h11.5v11.5h-11.5ZM184.25,159.75v-11.5h11.5v11.5h-11.5ZM184.25,147.75v-11.5h11.5v11.5h-11.5ZM183.75,147.75h-11.5v-11.5h11.5v11.5ZM171.75,147.75h-11.5v-11.5h11.5v11.5ZM159.75,147.75h-11.5v-11.5h11.5v11.5ZM147.75,147.75h-11.5v-11.5h11.5v11.5ZM147.75,148.25v11.5h-11.5v-11.5h11.5ZM147.75,160.25v11.5h-11.5v-11.5h11.5ZM147.75,172.25v11.5h-11.5v-11.5h11.5ZM147.75,184.25v11.5h-11.5v-11.5h11.5ZM147.75,196.25v11.5h-11.5v-11.5h11.5ZM147.75,208.25v11.5h-11.5v-11.5h11.5ZM147.75,220.25v11.5h-11.5v-11.5h11.5ZM147.75,232.25v11.5h-11.5v-11.5h11.5ZM147.75,244.25v11.5h-11.5v-11.5h11.5ZM147.75,256.25v11.5h-11.5v-11.5h11.5ZM148.25,256.25h11.5v11.5h-11.5v-11.5ZM160.25,256.25h11.5v11.5h-11.5v-11.5ZM172.25,256.25h11.5v11.5h-11.5v-11.5ZM184.25,256.25h11.5v11.5h-11.5v-11.5ZM196.25,256.25h11.5v11.5h-11.5v-11.5ZM196.25,255.75v-11.5h11.5v11.5h-11.5ZM196.25,243.75v-11.5h11.5v11.5h-11.5ZM196.25,231.75v-11.5h11.5v11.5h-11.5ZM196.25,219.75v-11.5h11.5v11.5h-11.5ZM196.25,207.75v-11.5h11.5v11.5h-11.5ZM196.25,195.75v-11.5h11.5v11.5h-11.5ZM196.25,183.75v-11.5h11.5v11.5h-11.5ZM196.25,171.75v-11.5h11.5v11.5h-11.5ZM196.25,159.75v-11.5h11.5v11.5h-11.5ZM196.25,147.75v-11.5h11.5v11.5h-11.5ZM196.25,135.75v-11.5h11.5v11.5h-11.5ZM195.75,135.75h-11.5v-11.5h11.5v11.5ZM183.75,135.75h-11.5v-11.5h11.5v11.5ZM171.75,135.75h-11.5v-11.5h11.5v11.5ZM159.75,135.75h-11.5v-11.5h11.5v11.5ZM147.75,135.75h-11.5v-11.5h11.5v11.5ZM135.75,135.75h-11.5v-11.5h11.5v11.5ZM135.75,136.25v11.5h-11.5v-11.5h11.5ZM135.75,148.25v11.5h-11.5v-11.5h11.5ZM135.75,160.25v11.5h-11.5v-11.5h11.5ZM135.75,172.25v11.5h-11.5v-11.5h11.5ZM135.75,184.25v11.5h-11.5v-11.5h11.5ZM135.75,196.25v11.5h-11.5v-11.5h11.5ZM135.75,208.25v11.5h-11.5v-11.5h11.5ZM135.75,220.25v11.5h-11.5v-11.5h11.5ZM135.75,232.25v11.5h-11.5v-11.5h11.5ZM135.75,244.25v11.5h-11.5v-11.5h11.5ZM135.75,256.25v11.5h-11.5v-11.5h11.5ZM135.75,268.25v11.5h-11.5v-11.5h11.5ZM136.25,268.25h11.5v11.5h-11.5v-11.5ZM148.25,268.25h11.5v11.5h-11.5v-11.5ZM160.25,268.25h11.5v11.5h-11.5v-11.5ZM172.25,268.25h11.5v11.5h-11.5v-11.5ZM184.25,268.25h11.5v11.5h-11.5v-11.5ZM196.25,268.25h11.5v11.5h-11.5v-11.5ZM208.25,268.25h11.5v11.5h-11.5v-11.5ZM208.25,267.75v-11.5h11.5v11.5h-11.5ZM208.25,255.75v-11.5h11.5v11.5h-11.5ZM208.25,243.75v-11.5h11.5v11.5h-11.5ZM208.25,231.75v-11.5h11.5v11.5h-11.5ZM208.25,219.75v-11.5h11.5v11.5h-11.5ZM208.25,207.75v-11.5h11.5v11.5h-11.5ZM208.25,195.75v-11.5h11.5v11.5h-11.5ZM208.25,183.75v-11.5h11.5v11.5h-11.5ZM208.25,171.75v-11.5h11.5v11.5h-11.5ZM208.25,159.75v-11.5h11.5v11.5h-11.5ZM208.25,147.75v-11.5h11.5v11.5h-11.5ZM208.25,135.75v-11.5h11.5v11.5h-11.5ZM208.25,123.75v-11.5h11.5v11.5h-11.5ZM207.75,123.75h-11.5v-11.5h11.5v11.5ZM195.75,123.75h-11.5v-11.5h11.5v11.5ZM183.75,123.75h-11.5v-11.5h11.5v11.5ZM171.75,123.75h-11.5v-11.5h11.5v11.5ZM159.75,123.75h-11.5v-11.5h11.5v11.5ZM147.75,123.75h-11.5v-11.5h11.5v11.5ZM135.75,123.75h-11.5v-11.5h11.5v11.5ZM123.75,123.75h-11.5v-11.5h11.5v11.5ZM123.75,124.25v11.5h-11.5v-11.5h11.5ZM123.75,136.25v11.5h-11.5v-11.5h11.5ZM123.75,148.25v11.5h-11.5v-11.5h11.5ZM123.75,160.25v11.5h-11.5v-11.5h11.5ZM123.75,172.25v11.5h-11.5v-11.5h11.5ZM123.75,184.25v11.5h-11.5v-11.5h11.5ZM123.75,196.25v11.5h-11.5v-11.5h11.5ZM123.75,208.25v11.5h-11.5v-11.5h11.5ZM123.75,220.25v11.5h-11.5v-11.5h11.5ZM123.75,232.25v11.5h-11.5v-11.5h11.5ZM123.75,244.25v11.5h-11.5v-11.5h11.5ZM123.75,256.25v11.5h-11.5v-11.5h11.5ZM123.75,268.25v11.5h-11.5v-11.5h11.5ZM123.75,280.25v11.5h-11.5v-11.5h11.5ZM124.25,280.25h11.5v11.5h-11.5v-11.5ZM136.25,280.25h11.5v11.5h-11.5v-11.5ZM148.25,280.25h11.5v11.5h-11.5v-11.5ZM160.25,280.25h11.5v11.5h-11.5v-11.5ZM172.25,280.25h11.5v11.5h-11.5v-11.5ZM184.25,280.25h11.5v11.5h-11.5v-11.5ZM196.25,280.25h11.5v11.5h-11.5v-11.5ZM208.25,280.25h11.5v11.5h-11.5v-11.5ZM220.25,280.25h11.5v11.5h-11.5v-11.5ZM220.25,279.75v-11.5h11.5v11.5h-11.5ZM220.25,267.75v-11.5h11.5v11.5h-11.5ZM220.25,255.75v-11.5h11.5v11.5h-11.5ZM220.25,243.75v-11.5h11.5v11.5h-11.5ZM220.25,231.75v-11.5h11.5v11.5h-11.5ZM220.25,219.75v-11.5h11.5v11.5h-11.5ZM220.25,207.75v-11.5h11.5v11.5h-11.5ZM220.25,195.75v-11.5h11.5v11.5h-11.5ZM220.25,183.75v-11.5h11.5v11.5h-11.5ZM220.25,171.75v-11.5h11.5v11.5h-11.5ZM220.25,159.75v-11.5h11.5v11.5h-11.5ZM220.25,147.75v-11.5h11.5v11.5h-11.5ZM220.25,135.75v-11.5h11.5v11.5h-11.5ZM220.25,123.75v-11.5h11.5v11.5h-11.5ZM220.25,111.75v-11.5h11.5v11.5h-11.5ZM219.75,111.75h-11.5v-11.5h11.5v11.5ZM207.75,111.75h-11.5v-11.5h11.5v11.5ZM195.75,111.75h-11.5v-11.5h11.5v11.5ZM183.75,111.75h-11.5v-11.5h11.5v11.5ZM171.75,111.75h-11.5v-11.5h11.5v11.5ZM159.75,111.75h-11.5v-11.5h11.5v11.5ZM147.75,111.75h-11.5v-11.5h11.5v11.5ZM135.75,111.75h-11.5v-11.5h11.5v11.5ZM123.75,111.75h-11.5v-11.5h11.5v11.5ZM111.75,111.75h-11.5v-11.5h11.5v11.5ZM111.75,112.25v11.5h-11.5v-11.5h11.5ZM111.75,124.25v11.5h-11.5v-11.5h11.5ZM111.75,136.25v11.5h-11.5v-11.5h11.5ZM111.75,148.25v11.5h-11.5v-11.5h11.5ZM111.75,160.25v11.5h-11.5v-11.5h11.5ZM111.75,172.25v11.5h-11.5v-11.5h11.5ZM111.75,184.25v11.5h-11.5v-11.5h11.5ZM111.75,196.25v11.5h-11.5v-11.5h11.5ZM111.75,208.25v11.5h-11.5v-11.5h11.5ZM111.75,220.25v11.5h-11.5v-11.5h11.5ZM111.75,232.25v11.5h-11.5v-11.5h11.5ZM111.75,244.25v11.5h-11.5v-11.5h11.5ZM111.75,256.25v11.5h-11.5v-11.5h11.5ZM111.75,268.25v11.5h-11.5v-11.5h11.5ZM111.75,280.25v11.5h-11.5v-11.5h11.5ZM111.75,292.25v11.5h-11.5v-11.5h11.5ZM112.25,292.25h11.5v11.5h-11.5v-11.5ZM124.25,292.25h11.5v11.5h-11.5v-11.5ZM136.25,292.25h11.5v11.5h-11.5v-11.5ZM148.25,292.25h11.5v11.5h-11.5v-11.5ZM160.25,292.25h11.5v11.5h-11.5v-11.5ZM172.25,292.25h11.5v11.5h-11.5v-11.5ZM184.25,292.25h11.5v11.5h-11.5v-11.5ZM196.25,292.25h11.5v11.5h-11.5v-11.5ZM208.25,292.25h11.5v11.5h-11.5v-11.5ZM220.25,292.25h11.5v11.5h-11.5v-11.5ZM232.25,292.25h11.5v11.5h-11.5v-11.5ZM232.25,291.75v-11.5h11.5v11.5h-11.5ZM232.25,279.75v-11.5h11.5v11.5h-11.5ZM232.25,267.75v-11.5h11.5v11.5h-11.5ZM232.25,255.75v-11.5h11.5v11.5h-11.5ZM232.25,243.75v-11.5h11.5v11.5h-11.5ZM232.25,231.75v-11.5h11.5v11.5h-11.5ZM232.25,219.75v-11.5h11.5v11.5h-11.5ZM232.25,207.75v-11.5h11.5v11.5h-11.5ZM232.25,195.75v-11.5h11.5v11.5h-11.5ZM232.25,183.75v-11.5h11.5v11.5h-11.5ZM232.25,171.75v-11.5h11.5v11.5h-11.5ZM232.25,159.75v-11.5h11.5v11.5h-11.5ZM232.25,147.75v-11.5h11.5v11.5h-11.5ZM232.25,135.75v-11.5h11.5v11.5h-11.5ZM232.25,123.75v-11.5h11.5v11.5h-11.5ZM232.25,111.75v-11.5h11.5v11.5h-11.5ZM232.25,99.75v-11.5h11.5v11.5h-11.5ZM231.75,99.75h-11.5v-11.5h11.5v11.5ZM219.75,99.75h-11.5v-11.5h11.5v11.5ZM207.75,99.75h-11.5v-11.5h11.5v11.5ZM195.75,99.75h-11.5v-11.5h11.5v11.5ZM183.75,99.75h-11.5v-11.5h11.5v11.5ZM171.75,99.75h-11.5v-11.5h11.5v11.5ZM159.75,99.75h-11.5v-11.5h11.5v11.5ZM147.75,99.75h-11.5v-11.5h11.5v11.5ZM135.75,99.75h-11.5v-11.5h11.5v11.5ZM123.75,99.75h-11.5v-11.5h11.5v11.5ZM111.75,99.75h-11.5v-11.5h11.5v11.5ZM99.75,99.75h-11.5v-11.5h11.5v11.5ZM99.75,100.25v11.5h-11.5v-11.5h11.5ZM99.75,112.25v11.5h-11.5v-11.5h11.5ZM99.75,124.25v11.5h-11.5v-11.5h11.5ZM99.75,136.25v11.5h-11.5v-11.5h11.5ZM99.75,148.25v11.5h-11.5v-11.5h11.5ZM99.75,160.25v11.5h-11.5v-11.5h11.5ZM99.75,172.25v11.5h-11.5v-11.5h11.5ZM99.75,184.25v11.5h-11.5v-11.5h11.5ZM99.75,196.25v11.5h-11.5v-11.5h11.5ZM99.75,208.25v11.5h-11.5v-11.5h11.5ZM99.75,220.25v11.5h-11.5v-11.5h11.5ZM99.75,232.25v11.5h-11.5v-11.5h11.5ZM99.75,244.25v11.5h-11.5v-11.5h11.5ZM99.75,256.25v11.5h-11.5v-11.5h11.5ZM99.75,268.25v11.5h-11.5v-11.5h11.5ZM99.75,280.25v11.5h-11.5v-11.5h11.5ZM99.75,292.25v11.5h-11.5v-11.5h11.5ZM99.75,304.25v11.5h-11.5v-11.5h11.5ZM100.25,304.25h11.5v11.5h-11.5v-11.5ZM112.25,304.25h11.5v11.5h-11.5v-11.5ZM124.25,304.25h11.5v11.5h-11.5v-11.5ZM136.25,304.25h11.5v11.5h-11.5v-11.5ZM148.25,304.25h11.5v11.5h-11.5v-11.5ZM160.25,304.25h11.5v11.5h-11.5v-11.5ZM172.25,304.25h11.5v11.5h-11.5v-11.5ZM184.25,304.25h11.5v11.5h-11.5v-11.5ZM196.25,304.25h11.5v11.5h-11.5v-11.5ZM208.25,304.25h11.5v11.5h-11.5v-11.5ZM220.25,304.25h11.5v11.5h-11.5v-11.5ZM232.25,304.25h11.5v11.5h-11.5v-11.5ZM244.25,304.25h11.5v11.5h-11.5v-11.5ZM244.25,303.75v-11.5h11.5v11.5h-11.5ZM244.25,291.75v-11.5h11.5v11.5h-11.5ZM244.25,279.75v-11.5h11.5v11.5h-11.5ZM244.25,267.75v-11.5h11.5v11.5h-11.5ZM244.25,255.75v-11.5h11.5v11.5h-11.5ZM244.25,243.75v-11.5h11.5v11.5h-11.5ZM244.25,231.75v-11.5h11.5v11.5h-11.5ZM244.25,219.75v-11.5h11.5v11.5h-11.5ZM244.25,207.75v-11.5h11.5v11.5h-11.5ZM244.25,195.75v-11.5h11.5v11.5h-11.5ZM244.25,183.75v-11.5h11.5v11.5h-11.5ZM244.25,171.75v-11.5h11.5v11.5h-11.5ZM244.25,159.75v-11.5h11.5v11.5h-11.5ZM244.25,147.75v-11.5h11.5v11.5h-11.5ZM244.25,135.75v-11.5h11.5v11.5h-11.5ZM244.25,123.75v-11.5h11.5v11.5h-11.5ZM244.25,111.75v-11.5h11.5v11.5h-11.5ZM244.25,99.75v-11.5h11.5v11.5h-11.5ZM244.25,87.75v-11.5h11.5v11.5h-11.5ZM243.75,87.75h-11.5v-11.5h11.5v11.5ZM231.75,87.75h-11.5v-11.5h11.5v11.5ZM219.75,87.75h-11.5v-11.5h11.5v11.5ZM207.75,87.75h-11.5v-11.5h11.5v11.5ZM195.75,87.75h-11.5v-11.5h11.5v11.5ZM183.75,87.75h-11.5v-11.5h11.5v11.5ZM171.75,87.75h-11.5v-11.5h11.5v11.5ZM159.75,87.75h-11.5v-11.5h11.5v11.5ZM147.75,87.75h-11.5v-11.5h11.5v11.5ZM135.75,87.75h-11.5v-11.5h11.5v11.5ZM123.75,87.75h-11.5v-11.5h11.5v11.5ZM111.75,87.75h-11.5v-11.5h11.5v11.5ZM99.75,87.75h-11.5v-11.5h11.5v11.5ZM87.75,87.75h-11.5v-11.5h11.5v11.5ZM87.75,88.25v11.5h-11.5v-11.5h11.5ZM87.75,100.25v11.5h-11.5v-11.5h11.5ZM87.75,112.25v11.5h-11.5v-11.5h11.5ZM87.75,124.25v11.5h-11.5v-11.5h11.5ZM87.75,136.25v11.5h-11.5v-11.5h11.5ZM87.75,148.25v11.5h-11.5v-11.5h11.5ZM87.75,160.25v11.5h-11.5v-11.5h11.5ZM87.75,172.25v11.5h-11.5v-11.5h11.5ZM87.75,184.25v11.5h-11.5v-11.5h11.5ZM87.75,196.25v11.5h-11.5v-11.5h11.5ZM87.75,208.25v11.5h-11.5v-11.5h11.5ZM87.75,220.25v11.5h-11.5v-11.5h11.5ZM87.75,232.25v11.5h-11.5v-11.5h11.5ZM87.75,244.25v11.5h-11.5v-11.5h11.5ZM87.75,256.25v11.5h-11.5v-11.5h11.5ZM87.75,268.25v11.5h-11.5v-11.5h11.5ZM87.75,280.25v11.5h-11.5v-11.5h11.5ZM87.75,292.25v11.5h-11.5v-11.5h11.5ZM87.75,304.25v11.5h-11.5v-11.5h11.5ZM87.75,316.25v11.5h-11.5v-11.5h11.5ZM88.25,316.25h11.5v11.5h-11.5v-11.5ZM100.25,316.25h11.5v11.5h-11.5v-11.5ZM112.25,316.25h11.5v11.5h-11.5v-11.5ZM124.25,316.25h11.5v11.5h-11.5v-11.5ZM136.25,316.25h11.5v11.5h-11.5v-11.5ZM148.25,316.25h11.5v11.5h-11.5v-11.5ZM160.25,316.25h11.5v11.5h-11.5v-11.5ZM172.25,316.25h11.5v11.5h-11.5v-11.5ZM184.25,316.25h11.5v11.5h-11.5v-11.5ZM196.25,316.25h11.5v11.5h-11.5v-11.5ZM208.25,316.25h11.5v11.5h-11.5v-11.5ZM220.25,316.25h11.5v11.5h-11.5v-11.5ZM232.25,316.25h11.5v11.5h-11.5v-11.5ZM244.25,316.25h11.5v11.5h-11.5v-11.5ZM256.25,316.25h11.5v11.5h-11.5v-11.5ZM256.25,315.75v-11.5h11.5v11.5h-11.5ZM256.25,303.75v-11.5h11.5v11.5h-11.5ZM256.25,291.75v-11.5h11.5v11.5h-11.5ZM256.25,279.75v-11.5h11.5v11.5h-11.5ZM256.25,267.75v-11.5h11.5v11.5h-11.5ZM256.25,255.75v-11.5h11.5v11.5h-11.5ZM256.25,243.75v-11.5h11.5v11.5h-11.5ZM256.25,231.75v-11.5h11.5v11.5h-11.5ZM256.25,219.75v-11.5h11.5v11.5h-11.5ZM256.25,207.75v-11.5h11.5v11.5h-11.5ZM256.25,195.75v-11.5h11.5v11.5h-11.5ZM256.25,183.75v-11.5h11.5v11.5h-11.5ZM256.25,171.75v-11.5h11.5v11.5h-11.5ZM256.25,159.75v-11.5h11.5v11.5h-11.5ZM256.25,147.75v-11.5h11.5v11.5h-11.5ZM256.25,135.75v-11.5h11.5v11.5h-11.5ZM256.25,123.75v-11.5h11.5v11.5h-11.5ZM256.25,111.75v-11.5h11.5v11.5h-11.5ZM256.25,99.75v-11.5h11.5v11.5h-11.5ZM256.25,87.75v-11.5h11.5v11.5h-11.5ZM256.25,75.75v-11.5h11.5v11.5h-11.5ZM255.75,75.75h-11.5v-11.5h11.5v11.5ZM243.75,75.75h-11.5v-11.5h11.5v11.5ZM231.75,75.75h-11.5v-11.5h11.5v11.5ZM219.75,75.75h-11.5v-11.5h11.5v11.5ZM207.75,75.75h-11.5v-11.5h11.5v11.5ZM195.75,75.75h-11.5v-11.5h11.5v11.5ZM183.75,75.75h-11.5v-11.5h11.5v11.5ZM171.75,75.75h-11.5v-11.5h11.5v11.5ZM159.75,75.75h-11.5v-11.5h11.5v11.5ZM147.75,75.75h-11.5v-11.5h11.5v11.5ZM135.75,75.75h-11.5v-11.5h11.5v11.5ZM123.75,75.75h-11.5v-11.5h11.5v11.5ZM111.75,75.75h-11.5v-11.5h11.5v11.5ZM99.75,75.75h-11.5v-11.5h11.5v11.5ZM87.75,75.75h-11.5v-11.5h11.5v11.5ZM75.75,75.75h-11.5v-11.5h11.5v11.5ZM75.75,76.25v11.5h-11.5v-11.5h11.5ZM75.75,88.25v11.5h-11.5v-11.5h11.5ZM75.75,100.25v11.5h-11.5v-11.5h11.5ZM75.75,112.25v11.5h-11.5v-11.5h11.5ZM75.75,124.25v11.5h-11.5v-11.5h11.5ZM75.75,136.25v11.5h-11.5v-11.5h11.5ZM75.75,148.25v11.5h-11.5v-11.5h11.5ZM75.75,160.25v11.5h-11.5v-11.5h11.5ZM75.75,172.25v11.5h-11.5v-11.5h11.5ZM75.75,184.25v11.5h-11.5v-11.5h11.5ZM75.75,196.25v11.5h-11.5v-11.5h11.5ZM75.75,208.25v11.5h-11.5v-11.5h11.5ZM75.75,220.25v11.5h-11.5v-11.5h11.5ZM75.75,232.25v11.5h-11.5v-11.5h11.5ZM75.75,244.25v11.5h-11.5v-11.5h11.5ZM75.75,256.25v11.5h-11.5v-11.5h11.5ZM75.75,268.25v11.5h-11.5v-11.5h11.5ZM75.75,280.25v11.5h-11.5v-11.5h11.5ZM75.75,292.25v11.5h-11.5v-11.5h11.5ZM75.75,304.25v11.5h-11.5v-11.5h11.5ZM75.75,316.25v11.5h-11.5v-11.5h11.5ZM75.75,328.25v11.5h-11.5v-11.5h11.5ZM76.25,328.25h11.5v11.5h-11.5v-11.5ZM88.25,328.25h11.5v11.5h-11.5v-11.5ZM100.25,328.25h11.5v11.5h-11.5v-11.5ZM112.25,328.25h11.5v11.5h-11.5v-11.5ZM124.25,328.25h11.5v11.5h-11.5v-11.5ZM136.25,328.25h11.5v11.5h-11.5v-11.5ZM148.25,328.25h11.5v11.5h-11.5v-11.5ZM160.25,328.25h11.5v11.5h-11.5v-11.5ZM172.25,328.25h11.5v11.5h-11.5v-11.5ZM184.25,328.25h11.5v11.5h-11.5v-11.5ZM196.25,328.25h11.5v11.5h-11.5v-11.5ZM208.25,328.25h11.5v11.5h-11.5v-11.5ZM220.25,328.25h11.5v11.5h-11.5v-11.5ZM232.25,328.25h11.5v11.5h-11.5v-11.5ZM244.25,328.25h11.5v11.5h-11.5v-11.5ZM256.25,328.25h11.5v11.5h-11.5v-11.5ZM268.25,328.25h11.5v11.5h-11.5v-11.5ZM268.25,327.75v-11.5h11.5v11.5h-11.5ZM268.25,315.75v-11.5h11.5v11.5h-11.5ZM268.25,303.75v-11.5h11.5v11.5h-11.5ZM268.25,291.75v-11.5h11.5v11.5h-11.5ZM268.25,279.75v-11.5h11.5v11.5h-11.5ZM268.25,267.75v-11.5h11.5v11.5h-11.5ZM268.25,255.75v-11.5h11.5v11.5h-11.5ZM268.25,243.75v-11.5h11.5v11.5h-11.5ZM268.25,231.75v-11.5h11.5v11.5h-11.5ZM268.25,219.75v-11.5h11.5v11.5h-11.5ZM268.25,207.75v-11.5h11.5v11.5h-11.5ZM268.25,195.75v-11.5h11.5v11.5h-11.5ZM268.25,183.75v-11.5h11.5v11.5h-11.5ZM268.25,171.75v-11.5h11.5v11.5h-11.5ZM268.25,159.75v-11.5h11.5v11.5h-11.5ZM268.25,147.75v-11.5h11.5v11.5h-11.5ZM268.25,135.75v-11.5h11.5v11.5h-11.5ZM268.25,123.75v-11.5h11.5v11.5h-11.5ZM268.25,111.75v-11.5h11.5v11.5h-11.5ZM268.25,99.75v-11.5h11.5v11.5h-11.5ZM268.25,87.75v-11.5h11.5v11.5h-11.5ZM268.25,75.75v-11.5h11.5v11.5h-11.5ZM268.25,63.75v-11.5h11.5v11.5h-11.5ZM267.75,63.75h-11.5v-11.5h11.5v11.5ZM255.75,63.75h-11.5v-11.5h11.5v11.5ZM243.75,63.75h-11.5v-11.5h11.5v11.5ZM231.75,63.75h-11.5v-11.5h11.5v11.5ZM219.75,63.75h-11.5v-11.5h11.5v11.5ZM207.75,63.75h-11.5v-11.5h11.5v11.5ZM195.75,63.75h-11.5v-11.5h11.5v11.5ZM183.75,63.75h-11.5v-11.5h11.5v11.5ZM171.75,63.75h-11.5v-11.5h11.5v11.5ZM159.75,63.75h-11.5v-11.5h11.5v11.5ZM147.75,63.75h-11.5v-11.5h11.5v11.5ZM135.75,63.75h-11.5v-11.5h11.5v11.5ZM123.75,63.75h-11.5v-11.5h11.5v11.5ZM111.75,63.75h-11.5v-11.5h11.5v11.5ZM99.75,63.75h-11.5v-11.5h11.5v11.5ZM87.75,63.75h-11.5v-11.5h11.5v11.5ZM75.75,63.75h-11.5v-11.5h11.5v11.5ZM63.75,63.75h-11.5v-11.5h11.5v11.5ZM63.75,64.25v11.5h-11.5v-11.5h11.5ZM63.75,76.25v11.5h-11.5v-11.5h11.5ZM63.75,88.25v11.5h-11.5v-11.5h11.5ZM63.75,100.25v11.5h-11.5v-11.5h11.5ZM63.75,112.25v11.5h-11.5v-11.5h11.5ZM63.75,124.25v11.5h-11.5v-11.5h11.5ZM63.75,136.25v11.5h-11.5v-11.5h11.5ZM63.75,148.25v11.5h-11.5v-11.5h11.5ZM63.75,160.25v11.5h-11.5v-11.5h11.5ZM63.75,172.25v11.5h-11.5v-11.5h11.5ZM63.75,184.25v11.5h-11.5v-11.5h11.5ZM63.75,196.25v11.5h-11.5v-11.5h11.5ZM63.75,208.25v11.5h-11.5v-11.5h11.5ZM63.75,220.25v11.5h-11.5v-11.5h11.5ZM63.75,232.25v11.5h-11.5v-11.5h11.5ZM63.75,244.25v11.5h-11.5v-11.5h11.5ZM63.75,256.25v11.5h-11.5v-11.5h11.5ZM63.75,268.25v11.5h-11.5v-11.5h11.5ZM63.75,280.25v11.5h-11.5v-11.5h11.5ZM63.75,292.25v11.5h-11.5v-11.5h11.5ZM63.75,304.25v11.5h-11.5v-11.5h11.5ZM63.75,316.25v11.5h-11.5v-11.5h11.5ZM63.75,328.25v11.5h-11.5v-11.5h11.5ZM63.75,340.25v11.5h-11.5v-11.5h11.5ZM64.25,340.25h11.5v11.5h-11.5v-11.5ZM76.25,340.25h11.5v11.5h-11.5v-11.5ZM88.25,340.25h11.5v11.5h-11.5v-11.5ZM100.25,340.25h11.5v11.5h-11.5v-11.5ZM112.25,340.25h11.5v11.5h-11.5v-11.5ZM124.25,340.25h11.5v11.5h-11.5v-11.5ZM136.25,340.25h11.5v11.5h-11.5v-11.5ZM148.25,340.25h11.5v11.5h-11.5v-11.5ZM160.25,340.25h11.5v11.5h-11.5v-11.5ZM172.25,340.25h11.5v11.5h-11.5v-11.5ZM184.25,340.25h11.5v11.5h-11.5v-11.5ZM196.25,340.25h11.5v11.5h-11.5v-11.5ZM208.25,340.25h11.5v11.5h-11.5v-11.5ZM220.25,340.25h11.5v11.5h-11.5v-11.5ZM232.25,340.25h11.5v11.5h-11.5v-11.5ZM244.25,340.25h11.5v11.5h-11.5v-11.5ZM256.25,340.25h11.5v11.5h-11.5v-11.5ZM268.25,340.25h11.5v11.5h-11.5v-11.5ZM280.25,340.25h11.5v11.5h-11.5v-11.5ZM280.25,339.75v-11.5h11.5v11.5h-11.5ZM280.25,327.75v-11.5h11.5v11.5h-11.5ZM280.25,315.75v-11.5h11.5v11.5h-11.5ZM280.25,303.75v-11.5h11.5v11.5h-11.5ZM280.25,291.75v-11.5h11.5v11.5h-11.5ZM280.25,279.75v-11.5h11.5v11.5h-11.5ZM280.25,267.75v-11.5h11.5v11.5h-11.5ZM280.25,255.75v-11.5h11.5v11.5h-11.5ZM280.25,243.75v-11.5h11.5v11.5h-11.5ZM280.25,231.75v-11.5h11.5v11.5h-11.5ZM280.25,219.75v-11.5h11.5v11.5h-11.5ZM280.25,207.75v-11.5h11.5v11.5h-11.5ZM280.25,195.75v-11.5h11.5v11.5h-11.5ZM280.25,183.75v-11.5h11.5v11.5h-11.5ZM280.25,171.75v-11.5h11.5v11.5h-11.5ZM280.25,159.75v-11.5h11.5v11.5h-11.5ZM280.25,147.75v-11.5h11.5v11.5h-11.5ZM280.25,135.75v-11.5h11.5v11.5h-11.5ZM280.25,123.75v-11.5h11.5v11.5h-11.5ZM280.25,111.75v-11.5h11.5v11.5h-11.5ZM280.25,99.75v-11.5h11.5v11.5h-11.5ZM280.25,87.75v-11.5h11.5v11.5h-11.5ZM280.25,75.75v-11.5h11.5v11.5h-11.5ZM280.25,63.75v-11.5h11.5v11.5h-11.5ZM280.25,51.75v-11.5h11.5v11.5h-11.5ZM279.75,51.75h-11.5v-11.5h11.5v11.5ZM267.75,51.75h-11.5v-11.5h11.5v11.5ZM255.75,51.75h-11.5v-11.5h11.5v11.5ZM243.75,51.75h-11.5v-11.5h11.5v11.5ZM231.75,51.75h-11.5v-11.5h11.5v11.5ZM219.75,51.75h-11.5v-11.5h11.5v11.5ZM207.75,51.75h-11.5v-11.5h11.5v11.5ZM195.75,51.75h-11.5v-11.5h11.5v11.5ZM183.75,51.75h-11.5v-11.5h11.5v11.5ZM171.75,51.75h-11.5v-11.5h11.5v11.5ZM159.75,51.75h-11.5v-11.5h11.5v11.5ZM147.75,51.75h-11.5v-11.5h11.5v11.5ZM135.75,51.75h-11.5v-11.5h11.5v11.5ZM123.75,51.75h-11.5v-11.5h11.5v11.5ZM111.75,51.75h-11.5v-11.5h11.5v11.5ZM99.75,51.75h-11.5v-11.5h11.5v11.5ZM87.75,51.75h-11.5v-11.5h11.5v11.5ZM75.75,51.75h-11.5v-11.5h11.5v11.5ZM63.75,51.75h-11.5v-11.5h11.5v11.5ZM51.75,51.75h-11.5v-11.5h11.5v11.5ZM51.75,52.25v11.5h-11.5v-11.5h11.5ZM51.75,64.25v11.5h-11.5v-11.5h11.5ZM51.75,76.25v11.5h-11.5v-11.5h11.5ZM51.75,88.25v11.5h-11.5v-11.5h11.5ZM51.75,100.25v11.5h-11.5v-11.5h11.5ZM51.75,112.25v11.5h-11.5v-11.5h11.5ZM51.75,124.25v11.5h-11.5v-11.5h11.5ZM51.75,136.25v11.5h-11.5v-11.5h11.5ZM51.75,148.25v11.5h-11.5v-11.5h11.5ZM51.75,160.25v11.5h-11.5v-11.5h11.5ZM51.75,172.25v11.5h-11.5v-11.5h11.5ZM51.75,184.25v11.5h-11.5v-11.5h11.5ZM51.75,196.25v11.5h-11.5v-11.5h11.5ZM51.75,208.25v11.5h-11.5v-11.5h11.5ZM51.75,220.25v11.5h-11.5v-11.5h11.5ZM51.75,232.25v11.5h-11.5v-11.5h11.5ZM51.75,244.25v11.5h-11.5v-11.5h11.5ZM51.75,256.25v11.5h-11.5v-11.5h11.5ZM51.75,268.25v11.5h-11.5v-11.5h11.5ZM51.75,280.25v11.5h-11.5v-11.5h11.5ZM51.75,292.25v11.5h-11.5v-11.5h11.5ZM51.75,304.25v11.5h-11.5v-11.5h11.5ZM51.75,316.25v11.5h-11.5v-11.5h11.5ZM51.75,328.25v11.5h-11.5v-11.5h11.5ZM51.75,340.25v11.5h-11.5v-11.5h11.5ZM51.75,352.25v11.5h-11.5v-11.5h11.5ZM52.25,352.25h11.5v11.5h-11.5v-11.5ZM64.25,352.25h11.5v11.5h-11.5v-11.5ZM76.25,352.25h11.5v11.5h-11.5v-11.5ZM88.25,352.25h11.5v11.5h-11.5v-11.5ZM100.25,352.25h11.5v11.5h-11.5v-11.5ZM112.25,352.25h11.5v11.5h-11.5v-11.5ZM124.25,352.25h11.5v11.5h-11.5v-11.5ZM136.25,352.25h11.5v11.5h-11.5v-11.5ZM148.25,352.25h11.5v11.5h-11.5v-11.5ZM160.25,352.25h11.5v11.5h-11.5v-11.5ZM172.25,352.25h11.5v11.5h-11.5v-11.5ZM184.25,352.25h11.5v11.5h-11.5v-11.5ZM196.25,352.25h11.5v11.5h-11.5v-11.5ZM208.25,352.25h11.5v11.5h-11.5v-11.5ZM220.25,352.25h11.5v11.5h-11.5v-11.5ZM232.25,352.25h11.5v11.5h-11.5v-11.5ZM244.25,352.25h11.5v11.5h-11.5v-11.5ZM256.25,352.25h11.5v11.5h-11.5v-11.5ZM268.25,352.25h11.5v11.5h-11.5v-11.5ZM280.25,352.25h11.5v11.5h-11.5v-11.5ZM292.25,352.25h11.5v11.5h-11.5v-11.5ZM292.25,351.75v-11.5h11.5v11.5h-11.5ZM292.25,339.75v-11.5h11.5v11.5h-11.5ZM292.25,327.75v-11.5h11.5v11.5h-11.5ZM292.25,315.75v-11.5h11.5v11.5h-11.5ZM292.25,303.75v-11.5h11.5v11.5h-11.5ZM292.25,291.75v-11.5h11.5v11.5h-11.5ZM292.25,279.75v-11.5h11.5v11.5h-11.5ZM292.25,267.75v-11.5h11.5v11.5h-11.5ZM292.25,255.75v-11.5h11.5v11.5h-11.5ZM292.25,243.75v-11.5h11.5v11.5h-11.5ZM292.25,231.75v-11.5h11.5v11.5h-11.5ZM292.25,219.75v-11.5h11.5v11.5h-11.5ZM292.25,207.75v-11.5h11.5v11.5h-11.5ZM292.25,195.75v-11.5h11.5v11.5h-11.5ZM292.25,183.75v-11.5h11.5v11.5h-11.5ZM292.25,171.75v-11.5h11.5v11.5h-11.5ZM292.25,159.75v-11.5h11.5v11.5h-11.5ZM292.25,147.75v-11.5h11.5v11.5h-11.5ZM292.25,135.75v-11.5h11.5v11.5h-11.5ZM292.25,123.75v-11.5h11.5v11.5h-11.5ZM292.25,111.75v-11.5h11.5v11.5h-11.5ZM292.25,99.75v-11.5h11.5v11.5h-11.5ZM292.25,87.75v-11.5h11.5v11.5h-11.5ZM292.25,75.75v-11.5h11.5v11.5h-11.5ZM292.25,63.75v-11.5h11.5v11.5h-11.5ZM292.25,51.75v-11.5h11.5v11.5h-11.5ZM292.25,39.75v-11.5h11.5v11.5h-11.5ZM291.75,39.75h-11.5v-11.5h11.5v11.5ZM279.75,39.75h-11.5v-11.5h11.5v11.5ZM267.75,39.75h-11.5v-11.5h11.5v11.5ZM255.75,39.75h-11.5v-11.5h11.5v11.5ZM243.75,39.75h-11.5v-11.5h11.5v11.5ZM231.75,39.75h-11.5v-11.5h11.5v11.5ZM219.75,39.75h-11.5v-11.5h11.5v11.5ZM207.75,39.75h-11.5v-11.5h11.5v11.5ZM195.75,39.75h-11.5v-11.5h11.5v11.5ZM183.75,39.75h-11.5v-11.5h11.5v11.5ZM171.75,39.75h-11.5v-11.5h11.5v11.5ZM159.75,39.75h-11.5v-11.5h11.5v11.5ZM147.75,39.75h-11.5v-11.5h11.5v11.5ZM135.75,39.75h-11.5v-11.5h11.5v11.5ZM123.75,39.75h-11.5v-11.5h11.5v11.5ZM111.75,39.75h-11.5v-11.5h11.5v11.5ZM99.75,39.75h-11.5v-11.5h11.5v11.5ZM87.75,39.75h-11.5v-11.5h11.5v11.5ZM75.75,39.75h-11.5v-11.5h11.5v11.5ZM63.75,39.75h-11.5v-11.5h11.5v11.5ZM51.75,39.75h-11.5v-11.5h11.5v11.5ZM39.75,39.75h-11.5v-11.5h11.5v11.5ZM39.75,40.25v11.5h-11.5v-11.5h11.5ZM39.75,52.25v11.5h-11.5v-11.5h11.5ZM39.75,64.25v11.5h-11.5v-11.5h11.5ZM39.75,76.25v11.5h-11.5v-11.5h11.5ZM39.75,88.25v11.5h-11.5v-11.5h11.5ZM39.75,100.25v11.5h-11.5v-11.5h11.5ZM39.75,112.25v11.5h-11.5v-11.5h11.5ZM39.75,124.25v11.5h-11.5v-11.5h11.5ZM39.75,136.25v11.5h-11.5v-11.5h11.5ZM39.75,148.25v11.5h-11.5v-11.5h11.5ZM39.75,160.25v11.5h-11.5v-11.5h11.5ZM39.75,172.25v11.5h-11.5v-11.5h11.5ZM39.75,184.25v11.5h-11.5v-11.5h11.5ZM39.75,196.25v11.5h-11.5v-11.5h11.5ZM39.75,208.25v11.5h-11.5v-11.5h11.5ZM39.75,220.25v11.5h-11.5v-11.5h11.5ZM39.75,232.25v11.5h-11.5v-11.5h11.5ZM39.75,244.25v11.5h-11.5v-11.5h11.5ZM39.75,256.25v11.5h-11.5v-11.5h11.5ZM39.75,268.25v11.5h-11.5v-11.5h11.5ZM39.75,280.25v11.5h-11.5v-11.5h11.5ZM39.75,292.25v11.5h-11.5v-11.5h11.5ZM39.75,304.25v11.5h-11.5v-11.5h11.5ZM39.75,316.25v11.5h-11.5v-11.5h11.5ZM39.75,328.25v11.5h-11.5v-11.5h11.5ZM39.75,340.25v11.5h-11.5v-11.5h11.5ZM39.75,352.25v11.5h-11.5v-11.5h11.5ZM39.75,364.25v11.5h-11.5v-11.5h11.5ZM40.25,364.25h11.5v11.5h-11.5v-11.5ZM52.25,364.25h11.5v11.5h-11.5v-11.5ZM64.25,364.25h11.5v11.5h-11.5v-11.5ZM76.25,364.25h11.5v11.5h-11.5v-11.5ZM88.25,364.25h11.5v11.5h-11.5v-11.5ZM100.25,364.25h11.5v11.5h-11.5v-11.5ZM112.25,364.25h11.5v11.5h-11.5v-11.5ZM124.25,364.25h11.5v11.5h-11.5v-11.5ZM136.25,364.25h11.5v11.5h-11.5v-11.5ZM148.25,364.25h11.5v11.5h-11.5v-11.5ZM160.25,364.25h11.5v11.5h-11.5v-11.5ZM172.25,364.25h11.5v11.5h-11.5v-11.5ZM184.25,364.25h11.5v11.5h-11.5v-11.5ZM196.25,364.25h11.5v11.5h-11.5v-11.5ZM208.25,364.25h11.5v11.5h-11.5v-11.5ZM220.25,364.25h11.5v11.5h-11.5v-11.5ZM232.25,364.25h11.5v11.5h-11.5v-11.5ZM244.25,364.25h11.5v11.5h-11.5v-11.5ZM256.25,364.25h11.5v11.5h-11.5v-11.5ZM268.25,364.25h11.5v11.5h-11.5v-11.5ZM280.25,364.25h11.5v11.5h-11.5v-11.5ZM292.25,364.25h11.5v11.5h-11.5v-11.5ZM304.25,364.25h11.5v11.5h-11.5v-11.5ZM304.25,363.75v-11.5h11.5v11.5h-11.5ZM304.25,351.75v-11.5h11.5v11.5h-11.5ZM304.25,339.75v-11.5h11.5v11.5h-11.5ZM304.25,327.75v-11.5h11.5v11.5h-11.5ZM304.25,315.75v-11.5h11.5v11.5h-11.5ZM304.25,303.75v-11.5h11.5v11.5h-11.5ZM304.25,291.75v-11.5h11.5v11.5h-11.5ZM304.25,279.75v-11.5h11.5v11.5h-11.5ZM304.25,267.75v-11.5h11.5v11.5h-11.5ZM304.25,255.75v-11.5h11.5v11.5h-11.5ZM304.25,243.75v-11.5h11.5v11.5h-11.5ZM304.25,231.75v-11.5h11.5v11.5h-11.5ZM304.25,219.75v-11.5h11.5v11.5h-11.5ZM304.25,207.75v-11.5h11.5v11.5h-11.5ZM304.25,195.75v-11.5h11.5v11.5h-11.5ZM304.25,183.75v-11.5h11.5v11.5h-11.5ZM304.25,171.75v-11.5h11.5v11.5h-11.5ZM304.25,159.75v-11.5h11.5v11.5h-11.5ZM304.25,147.75v-11.5h11.5v11.5h-11.5ZM304.25,135.75v-11.5h11.5v11.5h-11.5ZM304.25,123.75v-11.5h11.5v11.5h-11.5ZM304.25,111.75v-11.5h11.5v11.5h-11.5ZM304.25,99.75v-11.5h11.5v11.5h-11.5ZM304.25,87.75v-11.5h11.5v11.5h-11.5ZM304.25,75.75v-11.5h11.5v11.5h-11.5ZM304.25,63.75v-11.5h11.5v11.5h-11.5ZM304.25,51.75v-11.5h11.5v11.5h-11.5ZM304.25,39.75v-11.5h11.5v11.5h-11.5ZM304.25,27.75v-11.5h11.5v11.5h-11.5ZM303.75,27.75h-11.5v-11.5h11.5v11.5ZM291.75,27.75h-11.5v-11.5h11.5v11.5ZM279.75,27.75h-11.5v-11.5h11.5v11.5ZM267.75,27.75h-11.5v-11.5h11.5v11.5ZM255.75,27.75h-11.5v-11.5h11.5v11.5ZM243.75,27.75h-11.5v-11.5h11.5v11.5ZM231.75,27.75h-11.5v-11.5h11.5v11.5ZM219.75,27.75h-11.5v-11.5h11.5v11.5ZM207.75,27.75h-11.5v-11.5h11.5v11.5ZM195.75,27.75h-11.5v-11.5h11.5v11.5ZM183.75,27.75h-11.5v-11.5h11.5v11.5ZM171.75,27.75h-11.5v-11.5h11.5v11.5ZM159.75,27.75h-11.5v-11.5h11.5v11.5ZM147.75,27.75h-11.5v-11.5h11.5v11.5ZM135.75,27.75h-11.5v-11.5h11.5v11.5ZM123.75,27.75h-11.5v-11.5h11.5v11.5ZM111.75,27.75h-11.5v-11.5h11.5v11.5ZM99.75,27.75h-11.5v-11.5h11.5v11.5ZM87.75,27.75h-11.5v-11.5h11.5v11.5ZM75.75,27.75h-11.5v-11.5h11.5v11.5ZM63.75,27.75h-11.5v-11.5h11.5v11.5ZM51.75,27.75h-11.5v-11.5h11.5v11.5ZM39.75,27.75h-11.5v-11.5h11.5v11.5ZM27.75,27.75h-11.5v-11.5h11.5v11.5ZM27.75,28.25v11.5h-11.5v-11.5h11.5ZM27.75,40.25v11.5h-11.5v-11.5h11.5ZM27.75,52.25v11.5h-11.5v-11.5h11.5ZM27.75,64.25v11.5h-11.5v-11.5h11.5ZM27.75,76.25v11.5h-11.5v-11.5h11.5ZM27.75,88.25v11.5h-11.5v-11.5h11.5ZM27.75,100.25v11.5h-11.5v-11.5h11.5ZM27.75,112.25v11.5h-11.5v-11.5h11.5ZM27.75,124.25v11.5h-11.5v-11.5h11.5ZM27.75,136.25v11.5h-11.5v-11.5h11.5ZM27.75,148.25v11.5h-11.5v-11.5h11.5ZM27.75,160.25v11.5h-11.5v-11.5h11.5ZM27.75,172.25v11.5h-11.5v-11.5h11.5ZM27.75,184.25v11.5h-11.5v-11.5h11.5ZM27.75,196.25v11.5h-11.5v-11.5h11.5ZM27.75,208.25v11.5h-11.5v-11.5h11.5ZM27.75,220.25v11.5h-11.5v-11.5h11.5ZM27.75,232.25v11.5h-11.5v-11.5h11.5ZM27.75,244.25v11.5h-11.5v-11.5h11.5ZM27.75,256.25v11.5h-11.5v-11.5h11.5ZM27.75,268.25v11.5h-11.5v-11.5h11.5ZM27.75,280.25v11.5h-11.5v-11.5h11.5ZM27.75,292.25v11.5h-11.5v-11.5h11.5ZM27.75,304.25v11.5h-11.5v-11.5h11.5ZM27.75,316.25v11.5h-11.5v-11.5h11.5ZM27.75,328.25v11.5h-11.5v-11.5h11.5ZM27.75,340.25v11.5h-11.5v-11.5h11.5ZM27.75,352.25v11.5h-11.5v-11.5h11.5ZM27.75,364.25v11.5h-11.5v-11.5h11.5ZM27.75,376.25v11.5h-11.5v-11.5h11.5ZM28.25,376.25h11.5v11.5h-11.5v-11.5ZM40.25,376.25h11.5v11.5h-11.5v-11.5ZM52.25,376.25h11.5v11.5h-11.5v-11.5ZM64.25,376.25h11.5v11.5h-11.5v-11.5ZM76.25,376.25h11.5v11.5h-11.5v-11.5ZM88.25,376.25h11.5v11.5h-11.5v-11.5ZM100.25,376.25h11.5v11.5h-11.5v-11.5ZM112.25,376.25h11.5v11.5h-11.5v-11.5ZM124.25,376.25h11.5v11.5h-11.5v-11.5ZM136.25,376.25h11.5v11.5h-11.5v-11.5ZM148.25,376.25h11.5v11.5h-11.5v-11.5ZM160.25,376.25h11.5v11.5h-11.5v-11.5ZM172.25,376.25h11.5v11.5h-11.5v-11.5ZM184.25,376.25h11.5v11.5h-11.5v-11.5ZM196.25,376.25h11.5v11.5h-11.5v-11.5ZM208.25,376.25h11.5v11.5h-11.5v-11.5ZM220.25,376.25h11.5v11.5h-11.5v-11.5ZM232.25,376.25h11.5v11.5h-11.5v-11.5ZM244.25,376.25h11.5v11.5h-11.5v-11.5ZM256.25,376.25h11.5v11.5h-11.5v-11.5ZM268.25,376.25h11.5v11.5h-11.5v-11.5ZM280.25,376.25h11.5v11.5h-11.5v-11.5ZM292.25,376.25h11.5v11.5h-11.5v-11.5ZM304.25,376.25h11.5v11.5h-11.5v-11.5ZM316.25,376.25h11.5v11.5h-11.5v-11.5ZM316.25,375.75v-11.5h11.5v11.5h-11.5ZM316.25,363.75v-11.5h11.5v11.5h-11.5ZM316.25,351.75v-11.5h11.5v11.5h-11.5ZM316.25,339.75v-11.5h11.5v11.5h-11.5ZM316.25,327.75v-11.5h11.5v11.5h-11.5ZM316.25,315.75v-11.5h11.5v11.5h-11.5ZM316.25,303.75v-11.5h11.5v11.5h-11.5ZM316.25,291.75v-11.5h11.5v11.5h-11.5ZM316.25,279.75v-11.5h11.5v11.5h-11.5ZM316.25,267.75v-11.5h11.5v11.5h-11.5ZM316.25,255.75v-11.5h11.5v11.5h-11.5ZM316.25,243.75v-11.5h11.5v11.5h-11.5ZM316.25,231.75v-11.5h11.5v11.5h-11.5ZM316.25,219.75v-11.5h11.5v11.5h-11.5ZM316.25,207.75v-11.5h11.5v11.5h-11.5ZM316.25,195.75v-11.5h11.5v11.5h-11.5ZM316.25,183.75v-11.5h11.5v11.5h-11.5ZM316.25,171.75v-11.5h11.5v11.5h-11.5ZM316.25,159.75v-11.5h11.5v11.5h-11.5ZM316.25,147.75v-11.5h11.5v11.5h-11.5ZM316.25,135.75v-11.5h11.5v11.5h-11.5ZM316.25,123.75v-11.5h11.5v11.5h-11.5ZM316.25,111.75v-11.5h11.5v11.5h-11.5ZM316.25,99.75v-11.5h11.5v11.5h-11.5ZM316.25,87.75v-11.5h11.5v11.5h-11.5ZM316.25,75.75v-11.5h11.5v11.5h-11.5ZM316.25,63.75v-11.5h11.5v11.5h-11.5ZM316.25,51.75v-11.5h11.5v11.5h-11.5ZM316.25,39.75v-11.5h11.5v11.5h-11.5ZM316.25,27.75v-11.5h11.5v11.5h-11.5ZM315.75,4.25v11.5h-11.5V4.25h11.5ZM303.75,4.25v11.5h-11.5V4.25h11.5ZM291.75,4.25v11.5h-11.5V4.25h11.5ZM279.75,4.25v11.5h-11.5V4.25h11.5ZM267.75,4.25v11.5h-11.5V4.25h11.5ZM255.75,4.25v11.5h-11.5V4.25h11.5ZM243.75,4.25v11.5h-11.5V4.25h11.5ZM231.75,4.25v11.5h-11.5V4.25h11.5ZM219.75,4.25v11.5h-11.5V4.25h11.5ZM207.75,4.25v11.5h-11.5V4.25h11.5ZM195.75,4.25v11.5h-11.5V4.25h11.5ZM183.75,4.25v11.5h-11.5V4.25h11.5ZM171.75,4.25v11.5h-11.5V4.25h11.5ZM159.75,4.25v11.5h-11.5V4.25h11.5ZM147.75,4.25v11.5h-11.5V4.25h11.5ZM135.75,4.25v11.5h-11.5V4.25h11.5ZM123.75,4.25v11.5h-11.5V4.25h11.5ZM111.75,4.25v11.5h-11.5V4.25h11.5ZM99.75,4.25v11.5h-11.5V4.25h11.5ZM87.75,4.25v11.5h-11.5V4.25h11.5ZM75.75,4.25v11.5h-11.5V4.25h11.5ZM63.75,4.25v11.5h-11.5V4.25h11.5ZM51.75,4.25v11.5h-11.5V4.25h11.5ZM39.75,4.25v11.5h-11.5V4.25h11.5ZM27.75,4.25v11.5h-11.5V4.25h11.5ZM4.25,4.25h11.5v11.5H4.25V4.25ZM4.25,16.25h11.5v11.5H4.25v-11.5ZM4.25,28.25h11.5v11.5H4.25v-11.5ZM4.25,40.25h11.5v11.5H4.25v-11.5ZM4.25,52.25h11.5v11.5H4.25v-11.5ZM4.25,64.25h11.5v11.5H4.25v-11.5ZM4.25,76.25h11.5v11.5H4.25v-11.5ZM4.25,88.25h11.5v11.5H4.25v-11.5ZM4.25,100.25h11.5v11.5H4.25v-11.5ZM4.25,112.25h11.5v11.5H4.25v-11.5ZM4.25,124.25h11.5v11.5H4.25v-11.5ZM4.25,136.25h11.5v11.5H4.25v-11.5ZM4.25,148.25h11.5v11.5H4.25v-11.5ZM4.25,160.25h11.5v11.5H4.25v-11.5ZM4.25,172.25h11.5v11.5H4.25v-11.5ZM4.25,184.25h11.5v11.5H4.25v-11.5ZM4.25,196.25h11.5v11.5H4.25v-11.5ZM4.25,208.25h11.5v11.5H4.25v-11.5ZM4.25,220.25h11.5v11.5H4.25v-11.5ZM4.25,232.25h11.5v11.5H4.25v-11.5ZM4.25,244.25h11.5v11.5H4.25v-11.5ZM4.25,256.25h11.5v11.5H4.25v-11.5ZM4.25,268.25h11.5v11.5H4.25v-11.5ZM4.25,280.25h11.5v11.5H4.25v-11.5ZM4.25,292.25h11.5v11.5H4.25v-11.5ZM4.25,304.25h11.5v11.5H4.25v-11.5ZM4.25,316.25h11.5v11.5H4.25v-11.5ZM4.25,328.25h11.5v11.5H4.25v-11.5ZM4.25,340.25h11.5v11.5H4.25v-11.5ZM4.25,352.25h11.5v11.5H4.25v-11.5ZM4.25,364.25h11.5v11.5H4.25v-11.5ZM4.25,376.25h11.5v11.5H4.25v-11.5ZM4.25,399.75v-11.5h11.5v11.5H4.25ZM16.25,399.75v-11.5h11.5v11.5h-11.5ZM28.25,399.75v-11.5h11.5v11.5h-11.5ZM40.25,399.75v-11.5h11.5v11.5h-11.5ZM52.25,399.75v-11.5h11.5v11.5h-11.5ZM64.25,399.75v-11.5h11.5v11.5h-11.5ZM76.25,399.75v-11.5h11.5v11.5h-11.5ZM88.25,399.75v-11.5h11.5v11.5h-11.5ZM100.25,399.75v-11.5h11.5v11.5h-11.5ZM112.25,399.75v-11.5h11.5v11.5h-11.5ZM124.25,399.75v-11.5h11.5v11.5h-11.5ZM136.25,399.75v-11.5h11.5v11.5h-11.5ZM148.25,399.75v-11.5h11.5v11.5h-11.5ZM160.25,399.75v-11.5h11.5v11.5h-11.5ZM172.25,399.75v-11.5h11.5v11.5h-11.5ZM184.25,399.75v-11.5h11.5v11.5h-11.5ZM196.25,399.75v-11.5h11.5v11.5h-11.5ZM208.25,399.75v-11.5h11.5v11.5h-11.5ZM220.25,399.75v-11.5h11.5v11.5h-11.5ZM232.25,399.75v-11.5h11.5v11.5h-11.5ZM244.25,399.75v-11.5h11.5v11.5h-11.5ZM256.25,399.75v-11.5h11.5v11.5h-11.5ZM268.25,399.75v-11.5h11.5v11.5h-11.5ZM280.25,399.75v-11.5h11.5v11.5h-11.5ZM292.25,399.75v-11.5h11.5v11.5h-11.5ZM304.25,399.75v-11.5h11.5v11.5h-11.5ZM316.25,399.75v-11.5h11.5v11.5h-11.5ZM339.75,399.75h-11.5v-11.5h11.5v11.5ZM339.75,387.75h-11.5v-11.5h11.5v11.5ZM339.75,375.75h-11.5v-11.5h11.5v11.5ZM339.75,363.75h-11.5v-11.5h11.5v11.5ZM339.75,351.75h-11.5v-11.5h11.5v11.5ZM339.75,339.75h-11.5v-11.5h11.5v11.5ZM339.75,327.75h-11.5v-11.5h11.5v11.5ZM339.75,315.75h-11.5v-11.5h11.5v11.5ZM339.75,303.75h-11.5v-11.5h11.5v11.5ZM339.75,291.75h-11.5v-11.5h11.5v11.5ZM339.75,279.75h-11.5v-11.5h11.5v11.5ZM339.75,267.75h-11.5v-11.5h11.5v11.5ZM339.75,255.75h-11.5v-11.5h11.5v11.5ZM339.75,243.75h-11.5v-11.5h11.5v11.5ZM339.75,231.75h-11.5v-11.5h11.5v11.5ZM339.75,219.75h-11.5v-11.5h11.5v11.5ZM339.75,207.75h-11.5v-11.5h11.5v11.5ZM339.75,195.75h-11.5v-11.5h11.5v11.5ZM339.75,183.75h-11.5v-11.5h11.5v11.5ZM339.75,171.75h-11.5v-11.5h11.5v11.5ZM339.75,159.75h-11.5v-11.5h11.5v11.5ZM339.75,147.75h-11.5v-11.5h11.5v11.5ZM339.75,135.75h-11.5v-11.5h11.5v11.5ZM339.75,123.75h-11.5v-11.5h11.5v11.5ZM339.75,111.75h-11.5v-11.5h11.5v11.5ZM339.75,99.75h-11.5v-11.5h11.5v11.5ZM339.75,87.75h-11.5v-11.5h11.5v11.5ZM339.75,75.75h-11.5v-11.5h11.5v11.5ZM339.75,63.75h-11.5v-11.5h11.5v11.5ZM339.75,51.75h-11.5v-11.5h11.5v11.5ZM339.75,39.75h-11.5v-11.5h11.5v11.5ZM339.75,27.75h-11.5v-11.5h11.5v11.5ZM339.75,15.75h-11.5V4.25h11.5v11.5Z" style="fill: #ccc;"/>
    </g>
  </g>
</svg>