<?xml version="1.0" encoding="UTF-8"?>
<svg id="Layer_2" data-name="Layer 2" xmlns="http://www.w3.org/2000/svg" viewBox="0 0 344 404">
  <g id="Layer_1-2" data-name="Layer 1">
    <g id="line_-_solid_-_compound" data-name="line - solid - compound">
      <rect width="344" height="404" style="fill: #fff; opacity: 0;"/>
      <path d="M11.75,30c0-.14.11-.25.25-.25h320c.14,0,.25.11.25.25s-.11.25-.25.25H12c-.14,0-.25-.11-.25-.25ZM332,53.75H12c-.14,0-.25.11-.25.25s.11.25.25.25h320c.14,0,.25-.11.25-.25s-.11-.25-.25-.25ZM332,77.75H12c-.14,0-.25.11-.25.25s.11.25.25.25h320c.14,0,.25-.11.25-.25s-.11-.25-.25-.25ZM332,101.75H12c-.14,0-.25.11-.25.25s.11.25.25.25h320c.14,0,.25-.11.25-.25s-.11-.25-.25-.25ZM332,125.75H12c-.14,0-.25.11-.25.25s.11.25.25.25h320c.14,0,.25-.11.25-.25s-.11-.25-.25-.25ZM332,149.75H12c-.14,0-.25.11-.25.25s.11.25.25.25h320c.14,0,.25-.11.25-.25s-.11-.25-.25-.25ZM332,173.75H12c-.14,0-.25.11-.25.25s.11.25.25.25h320c.14,0,.25-.11.25-.25s-.11-.25-.25-.25ZM332,197.75H12c-.14,0-.25.11-.25.25s.11.25.25.25h320c.14,0,.25-.11.25-.25s-.11-.25-.25-.25ZM332,221.75H12c-.14,0-.25.11-.25.25s.11.25.25.25h320c.14,0,.25-.11.25-.25s-.11-.25-.25-.25ZM332,245.75H12c-.14,0-.25.11-.25.25s.11.25.25.25h320c.14,0,.25-.11.25-.25s-.11-.25-.25-.25ZM332,269.75H12c-.14,0-.25.11-.25.25s.11.25.25.25h320c.14,0,.25-.11.25-.25s-.11-.25-.25-.25ZM332,293.75H12c-.14,0-.25.11-.25.25s.11.25.25.25h320c.14,0,.25-.11.25-.25s-.11-.25-.25-.25ZM332,317.75H12c-.14,0-.25.11-.25.25s.11.25.25.25h320c.14,0,.25-.11.25-.25s-.11-.25-.25-.25ZM332,341.75H12c-.14,0-.25.11-.25.25s.11.25.25.25h320c.14,0,.25-.11.25-.25s-.11-.25-.25-.25ZM332,365.75H12c-.14,0-.25.11-.25.25s.11.25.25.25h320c.14,0,.25-.11.25-.25s-.11-.25-.25-.25ZM332,389.75H12c-.14,0-.25.11-.25.25s.11.25.25.25h320c.14,0,.25-.11.25-.25s-.11-.25-.25-.25Z" style="fill: #ccc;"/>
    </g>
  </g>
</svg>