<?xml version="1.0" encoding="UTF-8"?>
<svg id="Layer_2" data-name="Layer 2" xmlns="http://www.w3.org/2000/svg" viewBox="0 0 101.99 95.73">
  <g id="Layer_1-2" data-name="Layer 1">
    <path d="M27.01,94.98c-.12-.08-1.76,1.73-2.48.02l-1.52-7.03-7.99,1.01c.33-10.53,1.15-22.5,9.98-29.5-3.06-2.05-6.73-2.01-10.21-3.77C11.88,54.25-.58,43.28.02,40.54l5.91-4.16-2.93-7.39c10.99-3.26,21.11-4.6,32-.01-.64-8.25,1.38-17.52,6.18-24.32,5.78-8.19,6.66-.23,9.46.26l5.87-4.91c6.93,7.66,12.42,19.57,9.5,29.97,3.22-.96,4.8-2.57,8.5-2.99,3.4-.39,23.12-.19,23.39,3.48l-2.83,7.44,6.91,3.58c-6.89,8.41-14.3,16.91-25.98,17.51,7.64,7.93,9.76,19.24,8.99,29.99l-7.97-.97-1.1,6.89c-10.25-.3-20.07-8.46-25.41-16.91-5.93,8.39-11.03,12.31-20.5,16-.99.38-1.91.91-3,1Z" style="fill: #202020;"/>
  </g>
</svg>